<svg id="Component_13_1" data-name="Component 13 – 1" xmlns="http://www.w3.org/2000/svg" width="20.789" height="23.666" viewBox="0 0 20.789 23.666">
  <path id="Path_831" data-name="Path 831" d="M383.135,406.544a16.656,16.656,0,0,0,4.334,1.032,25.479,25.479,0,0,0,3.939.176,21.323,21.323,0,0,0,6.211-1.008,7.411,7.411,0,0,0,2.435-1.279,2.361,2.361,0,0,0,.984-1.965,2.29,2.29,0,0,0-.742-1.541,6.136,6.136,0,0,0-2.176-1.313,16.79,16.79,0,0,0-3.287-.877c-.066-.011-.132-.028-.221-.047.065-.1.115-.188.167-.271.788-1.231,1.593-2.45,2.36-3.694a7.386,7.386,0,0,0,1.047-5.063,7.54,7.54,0,0,0-2.563-4.717,7.329,7.329,0,0,0-3.833-1.783c-.2-.029-.393-.062-.59-.094h-1.109c-.512.1-1.033.16-1.532.3a7.426,7.426,0,0,0-3.861,2.591,7.538,7.538,0,0,0-1.667,5.126,7.38,7.38,0,0,0,1.168,3.716c.791,1.247,1.591,2.487,2.386,3.731.028.044.052.092.09.159-.4.078-.781.146-1.161.231a12.671,12.671,0,0,0-3.319,1.142,3.788,3.788,0,0,0-1.709,1.562,6.012,6.012,0,0,0-.235.619v.647C380.66,405.406,381.865,406.023,383.135,406.544Zm2.224-11.478a6.309,6.309,0,0,1,.241-6.973,6.237,6.237,0,0,1,10.21,7.164q-2.5,3.893-4.979,7.8c-.053.084-.109.166-.185.282-.1-.159-.188-.286-.27-.414Q387.868,398.993,385.359,395.066Zm-3.486,8.022a4.412,4.412,0,0,1,.936-.735,10.536,10.536,0,0,1,3.325-1.111c.384-.075.775-.118,1.159-.191a.291.291,0,0,1,.349.163q1.174,1.864,2.364,3.718a.667.667,0,0,0,.831.363,1.077,1.077,0,0,0,.457-.391c.793-1.218,1.571-2.446,2.346-3.675a.314.314,0,0,1,.363-.179,12.88,12.88,0,0,1,4.464,1.294,4.22,4.22,0,0,1,.926.712.72.72,0,0,1,0,1.105,4.337,4.337,0,0,1-1.7,1.068,13.84,13.84,0,0,1-3.723.913c-1.107.121-2.22.19-2.781.237a23.759,23.759,0,0,1-6.392-.742,7.913,7.913,0,0,1-2.4-1.04,2.966,2.966,0,0,1-.515-.459A.7.7,0,0,1,381.873,403.088Z" transform="translate(-380.251 -384.099)"/>
  <path id="Path_832" data-name="Path 832" d="M432.846,415.3a3.464,3.464,0,1,0-3.477,3.446A3.463,3.463,0,0,0,432.846,415.3Zm-5.531-.062a2.026,2.026,0,0,1,2.1-2.024,2.068,2.068,0,1,1-.065,4.135A2.026,2.026,0,0,1,427.315,415.235Z" transform="translate(-418.987 -407.607)"/>
</svg>
