<svg xmlns="http://www.w3.org/2000/svg" width="147.268" height="214.701" viewBox="0 0 147.268 214.701">
  <g id="Group_143" data-name="Group 143" transform="translate(-132 -320)">
    <g id="Group_137" data-name="Group 137" transform="translate(132 466.279)">
      <g id="Group_135" data-name="Group 135" transform="translate(0.65)">
        <path id="Path_843" data-name="Path 843" d="M169.358,386.22a1.05,1.05,0,0,1-1.038-1.037V360.377a1.05,1.05,0,0,1,1.038-1.037h6.066a1.482,1.482,0,0,1,1.153.422,4.711,4.711,0,0,1,.5.615l5.568,9.216,5.567-9.216a4.78,4.78,0,0,1,.5-.615,1.479,1.479,0,0,1,1.152-.422h6.066a1.049,1.049,0,0,1,1.038,1.037v24.806a1.049,1.049,0,0,1-1.038,1.037h-6.95a1.049,1.049,0,0,1-1.036-1.037V374.662l-2.534,4.147a3.705,3.705,0,0,1-.519.633,1.22,1.22,0,0,1-.9.326H181.3a1.222,1.222,0,0,1-.9-.326,3.647,3.647,0,0,1-.519-.633l-2.534-4.147v10.521a1.047,1.047,0,0,1-1.036,1.037Z" transform="translate(-168.32 -357.42)" fill="#008838"/>
        <path id="Path_844" data-name="Path 844" d="M226.433,391.451a1.047,1.047,0,0,1-1.036-1.037V372.52a1.049,1.049,0,0,1,1.036-1.037h6.72a1.052,1.052,0,0,1,1.038,1.037v1.344a10.377,10.377,0,0,1,2.745-1.728,8.126,8.126,0,0,1,3.244-.653h1.844a1.052,1.052,0,0,1,1.036,1.037v5.99a1.051,1.051,0,0,1-1.036,1.037h-4.955a2.036,2.036,0,0,0-2.3,2.3v8.563a1.05,1.05,0,0,1-1.038,1.037Z" transform="translate(-192.909 -362.651)" fill="#008838"/>
        <path id="Path_845" data-name="Path 845" d="M257.6,399.939a1.049,1.049,0,0,1-1.038-1.037V392.22a1.049,1.049,0,0,1,1.038-1.036h6.682a1.049,1.049,0,0,1,1.036,1.036V398.9a1.049,1.049,0,0,1-1.036,1.037Z" transform="translate(-206.336 -371.138)" fill="#008838"/>
        <path id="Path_846" data-name="Path 846" d="M292.076,386.22a1.049,1.049,0,0,1-1.038-1.037V360.377a1.049,1.049,0,0,1,1.038-1.037h7.334a1.049,1.049,0,0,1,1.038,1.037v7.6l4.34-7.8a2.124,2.124,0,0,1,.557-.576,1.617,1.617,0,0,1,.979-.269h8.487a.852.852,0,0,1,.844.845.8.8,0,0,1-.116.422l-6.911,11.6,7.564,12.749a.691.691,0,0,1,.114.422.85.85,0,0,1-.845.845h-8.754a1.537,1.537,0,0,1-1.133-.365,2.532,2.532,0,0,1-.442-.518l-4.685-8.371v8.217a1.049,1.049,0,0,1-1.038,1.037Z" transform="translate(-221.188 -357.42)" fill="#008838"/>
        <path id="Path_847" data-name="Path 847" d="M339.638,384.766a1.047,1.047,0,0,1-1.036-1.037V365.835a1.049,1.049,0,0,1,1.036-1.037h6.874a1.052,1.052,0,0,1,1.038,1.037v17.894a1.05,1.05,0,0,1-1.038,1.037Zm.191-22.08a1.049,1.049,0,0,1-1.036-1.037V357a1.05,1.05,0,0,1,1.036-1.037h6.49A1.048,1.048,0,0,1,347.356,357v4.646a1.047,1.047,0,0,1-1.036,1.037Z" transform="translate(-241.679 -355.966)" fill="#008838"/>
        <path id="Path_848" data-name="Path 848" d="M364.8,391.156a1.047,1.047,0,0,1-1.036-1.037V372.225a1.049,1.049,0,0,1,1.036-1.037h6.337a1.049,1.049,0,0,1,1.036,1.037v1.267a7.266,7.266,0,0,1,2.054-1.747,6.671,6.671,0,0,1,3.284-.941q4.531-.154,6.068,3.149a7,7,0,0,1,2.495-2.247,6.826,6.826,0,0,1,3.38-.9,7.213,7.213,0,0,1,3.552.883,6.347,6.347,0,0,1,2.553,2.765,10.853,10.853,0,0,1,.959,4.916v10.752a1.047,1.047,0,0,1-1.036,1.037h-6.759a1.047,1.047,0,0,1-1.036-1.037v-10.56a2.491,2.491,0,0,0-.193-1.037,1.429,1.429,0,0,0-.517-.633,1.5,1.5,0,0,0-.826-.211,1.516,1.516,0,0,0-.805.211,1.275,1.275,0,0,0-.519.633,2.763,2.763,0,0,0-.173,1.037v10.56a1.047,1.047,0,0,1-1.036,1.037H376.86a1.05,1.05,0,0,1-1.036-1.037v-10.56a2.52,2.52,0,0,0-.191-1.037,1.439,1.439,0,0,0-.519-.633,1.5,1.5,0,0,0-.825-.211,1.415,1.415,0,0,0-.807.23,1.543,1.543,0,0,0-.538.633,2.375,2.375,0,0,0-.192,1.018v10.56a1.049,1.049,0,0,1-1.036,1.037Z" transform="translate(-252.52 -362.355)" fill="#008838"/>
      </g>
      <g id="Group_136" data-name="Group 136" transform="translate(0 34.29)">
        <path id="Path_849" data-name="Path 849" d="M167.519,428.18a.319.319,0,0,1-.341-.341V417.658a.36.36,0,0,1,.092-.264.339.339,0,0,1,.249-.093H171.3a4.5,4.5,0,0,1,1.887.365,2.8,2.8,0,0,1,1.245,1.08,3.775,3.775,0,0,1,0,3.544,2.791,2.791,0,0,1-1.245,1.08,4.5,4.5,0,0,1-1.887.365h-3.14v4.1a.333.333,0,0,1-.094.249.356.356,0,0,1-.264.093Zm.638-5.378h3.062a2.947,2.947,0,0,0,2.013-.591,2.5,2.5,0,0,0,0-3.388,2.949,2.949,0,0,0-2.013-.591h-3.062Z" transform="translate(-167.178 -416.679)" fill="#145629"/>
        <path id="Path_850" data-name="Path 850" d="M184.314,430.3a.32.32,0,0,1-.343-.341v-7.384a.362.362,0,0,1,.093-.256.324.324,0,0,1,.249-.1h.249a.345.345,0,0,1,.357.357v.715a1.8,1.8,0,0,1,.808-.808,2.9,2.9,0,0,1,1.306-.264h.575a.32.32,0,0,1,.343.341v.217a.32.32,0,0,1-.343.342h-.668a1.877,1.877,0,0,0-2.021,2.021v4.819a.323.323,0,0,1-.1.249.363.363,0,0,1-.256.093Z" transform="translate(-174.413 -418.797)" fill="#145629"/>
        <path id="Path_851" data-name="Path 851" d="M195.929,430.336a3.5,3.5,0,0,1-1.873-.466,3.036,3.036,0,0,1-1.151-1.274,4.336,4.336,0,0,1-.427-1.8q-.016-.232-.016-.653t.016-.652a4.32,4.32,0,0,1,.427-1.811,3.046,3.046,0,0,1,1.151-1.266,3.993,3.993,0,0,1,3.745,0,3.046,3.046,0,0,1,1.151,1.266,4.337,4.337,0,0,1,.427,1.811c.011.155.015.372.015.652s0,.5-.015.653a4.353,4.353,0,0,1-.427,1.8,3.036,3.036,0,0,1-1.151,1.274A3.5,3.5,0,0,1,195.929,430.336Zm0-.9a2.369,2.369,0,0,0,1.771-.7,2.927,2.927,0,0,0,.73-2.021c.011-.155.015-.347.015-.575s0-.419-.015-.575a2.922,2.922,0,0,0-.73-2.029,2.615,2.615,0,0,0-3.543,0,2.922,2.922,0,0,0-.73,2.029c-.011.155-.016.348-.016.575s.006.42.016.575a2.927,2.927,0,0,0,.73,2.021A2.368,2.368,0,0,0,195.929,429.435Z" transform="translate(-178.071 -418.679)" fill="#145629"/>
        <path id="Path_852" data-name="Path 852" d="M208.565,427.71a.321.321,0,0,1-.342-.342v-6.839h-1.383a.321.321,0,0,1-.343-.342v-.217a.321.321,0,0,1,.343-.342h1.383v-.886a3.942,3.942,0,0,1,.195-1.274,1.756,1.756,0,0,1,.7-.917,2.588,2.588,0,0,1,1.453-.342h.808a.321.321,0,0,1,.343.342v.217a.321.321,0,0,1-.343.342h-.808a1.23,1.23,0,0,0-1.112.443,2.334,2.334,0,0,0-.286,1.267v.808h2.051a.32.32,0,0,1,.342.342v.217a.32.32,0,0,1-.342.342h-2.051v6.839a.321.321,0,0,1-.343.342Z" transform="translate(-184.117 -416.209)" fill="#145629"/>
        <path id="Path_853" data-name="Path 853" d="M220.4,430.336a3.053,3.053,0,0,1-2.392-.986A4.245,4.245,0,0,1,217,426.761c-.01-.156-.015-.363-.015-.622s.006-.466.015-.622a4.777,4.777,0,0,1,.5-1.865,3.124,3.124,0,0,1,1.158-1.259,3.3,3.3,0,0,1,1.748-.45,3.392,3.392,0,0,1,1.85.482,3.118,3.118,0,0,1,1.173,1.383,5.133,5.133,0,0,1,.413,2.145v.233a.32.32,0,0,1-.1.249.361.361,0,0,1-.256.093h-5.534v.155a3.467,3.467,0,0,0,.327,1.329,2.606,2.606,0,0,0,.839,1.026,2.131,2.131,0,0,0,1.289.4,2.68,2.68,0,0,0,1.112-.2,2.747,2.747,0,0,0,.708-.443,2.1,2.1,0,0,0,.341-.366.8.8,0,0,1,.219-.24.581.581,0,0,1,.249-.039h.249a.362.362,0,0,1,.241.085.245.245,0,0,1,.085.226,1.161,1.161,0,0,1-.241.536,2.989,2.989,0,0,1-.637.63,3.567,3.567,0,0,1-1,.512A4.059,4.059,0,0,1,220.4,430.336Zm-2.455-4.679h4.943v-.062a3.214,3.214,0,0,0-.3-1.4,2.355,2.355,0,0,0-.854-.987,2.39,2.39,0,0,0-1.337-.365,2.269,2.269,0,0,0-2.167,1.352,3.3,3.3,0,0,0-.288,1.4Z" transform="translate(-188.635 -418.679)" fill="#145629"/>
        <path id="Path_854" data-name="Path 854" d="M234.8,430.336a4,4,0,0,1-1.391-.217,3.382,3.382,0,0,1-.955-.521,2.4,2.4,0,0,1-.553-.6,1.249,1.249,0,0,1-.194-.451.261.261,0,0,1,.109-.257.423.423,0,0,1,.234-.085h.233a.408.408,0,0,1,.162.031.576.576,0,0,1,.179.171,3.674,3.674,0,0,0,.467.5,1.874,1.874,0,0,0,.676.381,3.265,3.265,0,0,0,1.033.14,2.985,2.985,0,0,0,1.539-.357,1.155,1.155,0,0,0,.607-1.058,1,1,0,0,0-.24-.7,2.008,2.008,0,0,0-.817-.466,14.337,14.337,0,0,0-1.554-.42,5.113,5.113,0,0,1-1.5-.559,1.746,1.746,0,0,1-.707-.755,2.3,2.3,0,0,1-.186-.924,2.061,2.061,0,0,1,.31-1.065,2.362,2.362,0,0,1,.926-.854,3.2,3.2,0,0,1,1.547-.334,3.689,3.689,0,0,1,1.3.2,2.988,2.988,0,0,1,.878.49,2.24,2.24,0,0,1,.5.567,1.206,1.206,0,0,1,.179.451.275.275,0,0,1-.094.249.375.375,0,0,1-.249.093H237a.343.343,0,0,1-.2-.055.535.535,0,0,1-.139-.147,2.635,2.635,0,0,0-.373-.466,1.568,1.568,0,0,0-.583-.349,2.973,2.973,0,0,0-.986-.133,2.112,2.112,0,0,0-1.384.381,1.215,1.215,0,0,0-.45.971,1,1,0,0,0,.186.6,1.612,1.612,0,0,0,.7.466,10.691,10.691,0,0,0,1.492.443,5.921,5.921,0,0,1,1.569.536,2,2,0,0,1,.816.754,2.1,2.1,0,0,1,.241,1.026,2.04,2.04,0,0,1-.349,1.15,2.426,2.426,0,0,1-1.042.848A4.066,4.066,0,0,1,234.8,430.336Z" transform="translate(-194.975 -418.679)" fill="#145629"/>
        <path id="Path_855" data-name="Path 855" d="M248.23,430.336a4,4,0,0,1-1.392-.217,3.382,3.382,0,0,1-.955-.521,2.408,2.408,0,0,1-.553-.6,1.271,1.271,0,0,1-.194-.451.262.262,0,0,1,.109-.257.421.421,0,0,1,.233-.085h.233a.408.408,0,0,1,.162.031.575.575,0,0,1,.179.171,3.673,3.673,0,0,0,.467.5,1.874,1.874,0,0,0,.676.381,3.269,3.269,0,0,0,1.034.14,2.983,2.983,0,0,0,1.538-.357,1.155,1.155,0,0,0,.607-1.058,1,1,0,0,0-.241-.7,2.008,2.008,0,0,0-.817-.466,14.3,14.3,0,0,0-1.554-.42,5.119,5.119,0,0,1-1.5-.559,1.749,1.749,0,0,1-.708-.755,2.306,2.306,0,0,1-.186-.924,2.057,2.057,0,0,1,.311-1.065,2.36,2.36,0,0,1,.926-.854,3.2,3.2,0,0,1,1.546-.334,3.687,3.687,0,0,1,1.3.2,2.989,2.989,0,0,1,.878.49,2.229,2.229,0,0,1,.5.567,1.207,1.207,0,0,1,.179.451.275.275,0,0,1-.094.249.374.374,0,0,1-.249.093h-.233a.343.343,0,0,1-.2-.055.528.528,0,0,1-.14-.147,2.611,2.611,0,0,0-.373-.466,1.565,1.565,0,0,0-.583-.349,2.977,2.977,0,0,0-.986-.133,2.112,2.112,0,0,0-1.384.381,1.215,1.215,0,0,0-.45.971,1,1,0,0,0,.186.6,1.609,1.609,0,0,0,.7.466,10.679,10.679,0,0,0,1.492.443,5.906,5.906,0,0,1,1.569.536,2.01,2.01,0,0,1,.817.754,2.1,2.1,0,0,1,.24,1.026,2.041,2.041,0,0,1-.349,1.15,2.424,2.424,0,0,1-1.042.848A4.068,4.068,0,0,1,248.23,430.336Z" transform="translate(-200.763 -418.679)" fill="#145629"/>
        <path id="Path_856" data-name="Path 856" d="M259.544,418.317a.321.321,0,0,1-.343-.342v-.59a.361.361,0,0,1,.094-.257.321.321,0,0,1,.249-.1h.59a.347.347,0,0,1,.358.358v.59a.325.325,0,0,1-.1.249.362.362,0,0,1-.256.093Zm.171,9.746a.321.321,0,0,1-.343-.341v-7.4a.321.321,0,0,1,.343-.341h.264a.319.319,0,0,1,.341.341v7.4a.319.319,0,0,1-.341.341Z" transform="translate(-206.822 -416.561)" fill="#145629"/>
        <path id="Path_857" data-name="Path 857" d="M268.373,430.336a3.5,3.5,0,0,1-1.873-.466,3.04,3.04,0,0,1-1.151-1.274,4.335,4.335,0,0,1-.426-1.8q-.017-.232-.017-.653t.017-.652a4.32,4.32,0,0,1,.426-1.811,3.05,3.05,0,0,1,1.151-1.266,3.994,3.994,0,0,1,3.745,0,3.054,3.054,0,0,1,1.151,1.266,4.346,4.346,0,0,1,.426,1.811c.011.155.015.372.015.652s0,.5-.015.653a4.362,4.362,0,0,1-.426,1.8,3.044,3.044,0,0,1-1.151,1.274A3.5,3.5,0,0,1,268.373,430.336Zm0-.9a2.371,2.371,0,0,0,1.772-.7,2.926,2.926,0,0,0,.73-2.021c.011-.155.015-.347.015-.575s0-.419-.015-.575a2.921,2.921,0,0,0-.73-2.029,2.616,2.616,0,0,0-3.544,0,2.924,2.924,0,0,0-.73,2.029c-.011.155-.017.348-.017.575s.006.42.017.575a2.929,2.929,0,0,0,.73,2.021A2.369,2.369,0,0,0,268.373,429.435Z" transform="translate(-209.28 -418.679)" fill="#145629"/>
        <path id="Path_858" data-name="Path 858" d="M281.17,430.18a.321.321,0,0,1-.343-.341v-7.4a.321.321,0,0,1,.343-.341h.264a.319.319,0,0,1,.342.341v.731a3.407,3.407,0,0,1,1.018-.886,3.742,3.742,0,0,1,3.358.116,2.825,2.825,0,0,1,1.058,1.244,4.343,4.343,0,0,1,.349,1.779v4.415a.321.321,0,0,1-.343.341h-.264a.321.321,0,0,1-.341-.341V425.5a2.905,2.905,0,0,0-.607-1.951,2.205,2.205,0,0,0-1.772-.707,2.347,2.347,0,0,0-1.779.707,2.705,2.705,0,0,0-.677,1.951v4.337a.319.319,0,0,1-.342.341Z" transform="translate(-216.139 -418.679)" fill="#145629"/>
        <path id="Path_859" data-name="Path 859" d="M298.657,430.336a3.072,3.072,0,0,1-1.375-.31,2.789,2.789,0,0,1-1.018-.832,1.909,1.909,0,0,1-.389-1.174,2.012,2.012,0,0,1,.855-1.694,4.731,4.731,0,0,1,2.223-.824l2.457-.342v-.544a1.7,1.7,0,0,0-.507-1.3,2.3,2.3,0,0,0-1.608-.474,2.387,2.387,0,0,0-1.306.319,1.639,1.639,0,0,0-.685.831.294.294,0,0,1-.295.233h-.249a.314.314,0,0,1-.265-.1.382.382,0,0,1-.077-.241,1.278,1.278,0,0,1,.164-.544,2.294,2.294,0,0,1,.5-.645,2.814,2.814,0,0,1,.886-.536,3.575,3.575,0,0,1,1.322-.217,3.988,3.988,0,0,1,1.516.248,2.287,2.287,0,0,1,1.407,1.524,3.426,3.426,0,0,1,.139.948v5.176a.32.32,0,0,1-.342.341h-.265a.319.319,0,0,1-.341-.341v-.731a2.627,2.627,0,0,1-.529.56,3,3,0,0,1-.878.474A3.994,3.994,0,0,1,298.657,430.336Zm.155-.9a2.758,2.758,0,0,0,1.306-.311,2.253,2.253,0,0,0,.94-.956,3.378,3.378,0,0,0,.351-1.624v-.528l-2.006.28a4.806,4.806,0,0,0-1.927.59,1.23,1.23,0,0,0-.653,1.057,1.2,1.2,0,0,0,.3.839,1.807,1.807,0,0,0,.754.49A2.786,2.786,0,0,0,298.813,429.435Z" transform="translate(-222.622 -418.679)" fill="#145629"/>
        <path id="Path_860" data-name="Path 860" d="M311.946,428.062a.321.321,0,0,1-.343-.341V417.37a.322.322,0,0,1,.343-.343h.265a.32.32,0,0,1,.341.343v10.351a.319.319,0,0,1-.341.341Z" transform="translate(-229.398 -416.561)" fill="#145629"/>
        <path id="Path_861" data-name="Path 861" d="M327.843,428.218a5.082,5.082,0,0,1-2.137-.4,3.348,3.348,0,0,1-1.345-1.041,2.445,2.445,0,0,1-.5-1.352.3.3,0,0,1,.094-.217.318.318,0,0,1,.233-.093h.311a.308.308,0,0,1,.24.093.391.391,0,0,1,.1.217,1.84,1.84,0,0,0,.389.863,2.428,2.428,0,0,0,.963.714,4.017,4.017,0,0,0,1.648.288,3.588,3.588,0,0,0,2.222-.552,1.789,1.789,0,0,0,.7-1.484,1.389,1.389,0,0,0-.365-1,3.2,3.2,0,0,0-1.112-.684q-.745-.3-1.912-.676a11.442,11.442,0,0,1-1.818-.738,2.348,2.348,0,0,1-1.383-2.323,2.508,2.508,0,0,1,.419-1.422,2.892,2.892,0,0,1,1.22-1,4.59,4.59,0,0,1,1.951-.373,4.686,4.686,0,0,1,1.6.249,3.353,3.353,0,0,1,1.134.661,3,3,0,0,1,.684.886,2.253,2.253,0,0,1,.249.926.341.341,0,0,1-.077.209.3.3,0,0,1-.249.1h-.31A.427.427,0,0,1,330.6,420a.32.32,0,0,1-.148-.248,1.786,1.786,0,0,0-.816-1.282,3.2,3.2,0,0,0-1.874-.506,3.537,3.537,0,0,0-1.881.451,1.743,1.743,0,0,0-.4,2.433,2.71,2.71,0,0,0,1.027.7q.7.3,1.8.661a14.317,14.317,0,0,1,1.927.746,2.887,2.887,0,0,1,1.135.909,2.38,2.38,0,0,1,.373,1.391,2.7,2.7,0,0,1-.474,1.609,2.969,2.969,0,0,1-1.346,1.01A5.573,5.573,0,0,1,327.843,428.218Z" transform="translate(-234.679 -416.561)" fill="#145629"/>
        <path id="Path_862" data-name="Path 862" d="M343.967,430.336a3.055,3.055,0,0,1-2.393-.986,4.247,4.247,0,0,1-1.011-2.588c-.01-.156-.015-.363-.015-.622s.006-.466.015-.622a4.767,4.767,0,0,1,.5-1.865,3.124,3.124,0,0,1,1.158-1.259,3.3,3.3,0,0,1,1.748-.45,3.394,3.394,0,0,1,1.85.482,3.118,3.118,0,0,1,1.173,1.383,5.133,5.133,0,0,1,.413,2.145v.233a.32.32,0,0,1-.1.249.361.361,0,0,1-.256.093h-5.534v.155a3.457,3.457,0,0,0,.327,1.329,2.606,2.606,0,0,0,.839,1.026,2.13,2.13,0,0,0,1.289.4,2.675,2.675,0,0,0,1.112-.2,2.741,2.741,0,0,0,.708-.443,2.1,2.1,0,0,0,.341-.366.809.809,0,0,1,.218-.24.584.584,0,0,1,.249-.039h.249a.363.363,0,0,1,.241.085.245.245,0,0,1,.085.226,1.161,1.161,0,0,1-.241.536,2.99,2.99,0,0,1-.638.63,3.567,3.567,0,0,1-1,.512A4.059,4.059,0,0,1,343.967,430.336Zm-2.455-4.679h4.943v-.062a3.214,3.214,0,0,0-.3-1.4,2.355,2.355,0,0,0-.854-.987,2.39,2.39,0,0,0-1.337-.365A2.269,2.269,0,0,0,341.8,424.2a3.294,3.294,0,0,0-.288,1.4Z" transform="translate(-241.868 -418.679)" fill="#145629"/>
        <path id="Path_863" data-name="Path 863" d="M356.539,430.3a.321.321,0,0,1-.343-.341v-7.384a.36.36,0,0,1,.094-.256.322.322,0,0,1,.249-.1h.249a.345.345,0,0,1,.357.357v.715a1.8,1.8,0,0,1,.808-.808,2.9,2.9,0,0,1,1.306-.264h.575a.32.32,0,0,1,.342.341v.217a.32.32,0,0,1-.342.342h-.669a1.878,1.878,0,0,0-2.021,2.021v4.819a.323.323,0,0,1-.1.249.362.362,0,0,1-.256.093Z" transform="translate(-248.609 -418.797)" fill="#145629"/>
        <path id="Path_864" data-name="Path 864" d="M367.953,430.3a.588.588,0,0,1-.382-.109.756.756,0,0,1-.21-.28L364.5,422.7a.533.533,0,0,1-.031-.171.319.319,0,0,1,.31-.311h.327a.326.326,0,0,1,.241.085.341.341,0,0,1,.1.147l2.627,6.715,2.626-6.715a.712.712,0,0,1,.109-.147.3.3,0,0,1,.233-.085h.326a.316.316,0,0,1,.31.311.532.532,0,0,1-.031.171l-2.86,7.212a.611.611,0,0,1-.2.28.618.618,0,0,1-.388.109Z" transform="translate(-252.174 -418.797)" fill="#145629"/>
        <path id="Path_865" data-name="Path 865" d="M380.378,418.317a.321.321,0,0,1-.343-.342v-.59a.363.363,0,0,1,.094-.257.321.321,0,0,1,.249-.1h.59a.347.347,0,0,1,.358.358v.59a.325.325,0,0,1-.1.249.363.363,0,0,1-.256.093Zm.171,9.746a.321.321,0,0,1-.343-.341v-7.4a.321.321,0,0,1,.343-.341h.265a.319.319,0,0,1,.341.341v7.4a.319.319,0,0,1-.341.341Z" transform="translate(-258.879 -416.561)" fill="#145629"/>
        <path id="Path_866" data-name="Path 866" d="M389.192,430.336a3.729,3.729,0,0,1-1.85-.427,2.786,2.786,0,0,1-1.158-1.235,4.58,4.58,0,0,1-.426-1.912c-.011-.156-.017-.363-.017-.622s.006-.466.017-.622a4.558,4.558,0,0,1,.426-1.919,2.8,2.8,0,0,1,1.158-1.228,3.729,3.729,0,0,1,1.85-.427,4.046,4.046,0,0,1,1.422.225,2.95,2.95,0,0,1,.987.591,2.594,2.594,0,0,1,.59.8,2.239,2.239,0,0,1,.218.855.273.273,0,0,1-.093.249.372.372,0,0,1-.249.093h-.218a.308.308,0,0,1-.225-.07.842.842,0,0,1-.147-.257,2.336,2.336,0,0,0-.894-1.235,2.613,2.613,0,0,0-1.392-.35,2.47,2.47,0,0,0-1.75.645,2.909,2.909,0,0,0-.737,2.106,9.382,9.382,0,0,0,0,1.088,2.908,2.908,0,0,0,.737,2.107,2.468,2.468,0,0,0,1.75.645,2.613,2.613,0,0,0,1.392-.35,2.338,2.338,0,0,0,.894-1.235.842.842,0,0,1,.147-.257.308.308,0,0,1,.225-.07h.218a.372.372,0,0,1,.249.093.273.273,0,0,1,.093.249,2.272,2.272,0,0,1-.141.684,2.426,2.426,0,0,1-.38.669,2.671,2.671,0,0,1-.63.574,3.125,3.125,0,0,1-.894.4A4.3,4.3,0,0,1,389.192,430.336Z" transform="translate(-261.337 -418.679)" fill="#145629"/>
        <path id="Path_867" data-name="Path 867" d="M403.744,430.336a3.055,3.055,0,0,1-2.393-.986,4.244,4.244,0,0,1-1.011-2.588c-.01-.156-.015-.363-.015-.622s.005-.466.015-.622a4.776,4.776,0,0,1,.5-1.865A3.129,3.129,0,0,1,402,422.393a3.294,3.294,0,0,1,1.748-.45,3.392,3.392,0,0,1,1.85.482,3.123,3.123,0,0,1,1.174,1.383,5.142,5.142,0,0,1,.412,2.145v.233a.32.32,0,0,1-.1.249.361.361,0,0,1-.256.093h-5.534v.155a3.466,3.466,0,0,0,.327,1.329,2.61,2.61,0,0,0,.839,1.026,2.133,2.133,0,0,0,1.29.4,2.677,2.677,0,0,0,1.112-.2,2.738,2.738,0,0,0,.708-.443,2.09,2.09,0,0,0,.341-.366.794.794,0,0,1,.218-.24.583.583,0,0,1,.249-.039h.249a.361.361,0,0,1,.24.085.245.245,0,0,1,.085.226,1.161,1.161,0,0,1-.241.536,2.977,2.977,0,0,1-.638.63,3.559,3.559,0,0,1-1,.512A4.056,4.056,0,0,1,403.744,430.336Zm-2.456-4.679h4.944v-.062a3.222,3.222,0,0,0-.3-1.4,2.355,2.355,0,0,0-.854-.987,2.391,2.391,0,0,0-1.337-.365,2.352,2.352,0,0,0-1.328.365,2.325,2.325,0,0,0-.839.987,3.3,3.3,0,0,0-.289,1.4Z" transform="translate(-267.62 -418.679)" fill="#145629"/>
        <path id="Path_868" data-name="Path 868" d="M418.133,430.336a4,4,0,0,1-1.392-.217,3.4,3.4,0,0,1-.955-.521,2.4,2.4,0,0,1-.552-.6,1.264,1.264,0,0,1-.195-.451.262.262,0,0,1,.109-.257.423.423,0,0,1,.233-.085h.234a.408.408,0,0,1,.162.031.581.581,0,0,1,.179.171,3.676,3.676,0,0,0,.467.5,1.876,1.876,0,0,0,.675.381,3.272,3.272,0,0,0,1.034.14,2.986,2.986,0,0,0,1.538-.357,1.155,1.155,0,0,0,.607-1.058,1,1,0,0,0-.241-.7,2,2,0,0,0-.816-.466,14.377,14.377,0,0,0-1.554-.42,5.112,5.112,0,0,1-1.5-.559,1.742,1.742,0,0,1-.708-.755,2.3,2.3,0,0,1-.186-.924,2.062,2.062,0,0,1,.31-1.065,2.362,2.362,0,0,1,.926-.854,3.2,3.2,0,0,1,1.546-.334,3.689,3.689,0,0,1,1.3.2,3,3,0,0,1,.878.49,2.251,2.251,0,0,1,.5.567,1.193,1.193,0,0,1,.179.451.273.273,0,0,1-.093.249.375.375,0,0,1-.249.093h-.233a.343.343,0,0,1-.2-.055.527.527,0,0,1-.139-.147,2.637,2.637,0,0,0-.373-.466,1.567,1.567,0,0,0-.583-.349,2.973,2.973,0,0,0-.986-.133,2.112,2.112,0,0,0-1.384.381,1.213,1.213,0,0,0-.45.971,1,1,0,0,0,.186.6,1.612,1.612,0,0,0,.7.466,10.691,10.691,0,0,0,1.492.443,5.908,5.908,0,0,1,1.569.536,2,2,0,0,1,.817.754,2.1,2.1,0,0,1,.241,1.026,2.04,2.04,0,0,1-.349,1.15,2.426,2.426,0,0,1-1.042.848A4.068,4.068,0,0,1,418.133,430.336Z" transform="translate(-273.959 -418.679)" fill="#145629"/>
      </g>
    </g>
    <path id="Path_870" data-name="Path 870" d="M259,240.091l-16.492-17.429,2.64-2.641,9.008,6.679L254,220.8l4.038-1.709.311-15.22,6.834-2.485a11.089,11.089,0,0,0-7.61-3.883,100.416,100.416,0,0,0-10.1.311L241.886,193l-.155-3.572,4.5-3.107-4.038-1.4,2.174-1.864,4.659-.155s5.9,2.485,7.765,2.485l-.621-3.262-2.64,1.243-4.194-3.417-3.882.932-2.019-.776.621-3.262,3.106-1.4,5.125-.466-.932-2.8-1.864,1.088-3.417-1.553-4.194-.155-.776-3.572,6.834-9.629,3.106-.311s.155,4.815,4.194,5.436l1.4,1.708,2.174-1.708,5.592-.155,1.863,2.019,1.553-.311-.466-2.019-3.728-3.572,2.951-4.5,5.9,2.951,4.5,4.97L279.627,177l3.261.466s1.864-3.882,5.592-3.261l-3.417,5.436,1.4,2.485,4.5-6.678-1.243,13.822-6.523,8.077-.466,20.035-3.106,2.019.311,11.027-10.258,9.9a63.868,63.868,0,0,0,57.14-45.005l-7.588.781-22.365,15.687-2.8,7.455-4.5.621,2.33-12.27-6.523-.621v-8.232l1.709-1.4,5.436-7.921,1.243-7.144c12.891-.777,6.368-14.91,6.368-14.91l.155-16.774c-4.97-21.744-21.278-26.558-21.278-26.558-.932-1.553-1.243-1.553-3.572-2.33a54.993,54.993,0,0,0-13.978-1.864c-5.436,0-8.387,2.485-11.493,5.436s-8.7,6.989-11.337,9.785-4.97,14.755-4.97,14.755-10.872,2.33-10.872,6.679,4.038,6.523,4.038,6.523l7.455,5.436v6.367l1.709,5.281-.311,13.822,2.174,3.883,4.5,4.659-9.474,4.97-1.864,8.542-11.337-5.747-8.429-.42A63.831,63.831,0,0,0,259,240.091Zm-22.083-90.737,1.242-6.679s.932-3.883,2.641-5.9a56.059,56.059,0,0,1,4.97-4.815s-.622,5.592.466,3.883,6.057-11.493,11.027-12.27,6.367-.932,9.163-.311c0,0-7.455,5.125-7.455,12.27,0,0,2.019.621,2.64-.932s1.243-5.436,8.387-9.94c0,0,1.864-1.087,6.679,1.243s9.629,3.882,14.6,10.871,6.523,10.1,6.523,16.618.155,11.027.155,11.027-17.861-13.357-30.6-14.6C252.158,148.337,247.477,147.8,236.916,149.354Z" transform="translate(-60.309 208.214)" fill="#008838"/>
    <path id="Path_871" data-name="Path 871" d="M282.356,151.592c12.735,1.242,30.6,14.6,30.6,14.6s-.155-4.5-.155-11.027-1.553-9.629-6.523-16.618-9.785-8.542-14.6-10.871S285,126.431,285,126.431c-7.144,4.5-7.765,8.387-8.387,9.94s-2.64.932-2.64.932c0-7.144,7.455-12.27,7.455-12.27-2.8-.622-4.193-.466-9.163.311s-9.94,10.561-11.027,12.27-.466-3.883-.466-3.883a56.06,56.06,0,0,0-4.97,4.815c-1.709,2.019-2.641,5.9-2.641,5.9l-1.242,6.679C262.476,149.573,267.157,150.109,282.356,151.592Z" transform="translate(-75.308 206.442)" fill="#fe0"/>
    <path id="Path_872" data-name="Path 872" d="M297.076,239.909l3.106-2.019.466-20.035,6.523-8.077,1.243-13.822-4.5,6.678-1.4-2.485,3.417-5.436c-3.728-.621-5.592,3.261-5.592,3.261l-3.261-.466-2.64-14.133-4.5-4.97-5.9-2.951-2.951,4.5,3.728,3.572.466,2.019-1.553.311-1.863-2.019-5.592.155-2.174,1.708-1.4-1.708c-4.038-.622-4.194-5.436-4.194-5.436l-3.106.311-6.834,9.629.776,3.572,4.194.155,3.417,1.553,1.864-1.088.932,2.8-5.125.466-3.106,1.4-.621,3.262,2.019.776,3.882-.932,4.194,3.417,2.64-1.243.621,3.262c-1.863,0-7.765-2.485-7.765-2.485l-4.659.155-2.174,1.864,4.038,1.4-4.5,3.107.155,3.572,5.591,4.815a100.416,100.416,0,0,1,10.1-.311,11.089,11.089,0,0,1,7.61,3.883l-6.834,2.485-.311,15.22-4.038,1.709.155,5.9-9.008-6.679-2.64,2.641L276.448,260.6a64.6,64.6,0,0,0,6.777.358c1.312,0,2.612-.045,3.9-.122l10.258-9.9Z" transform="translate(-77.759 187.704)" fill="#fff"/>
    <rect id="Rectangle_38" data-name="Rectangle 38" width="62" height="4" rx="2" transform="translate(174.634 530.701)" fill="#068838"/>
    <g id="Ellipse_5" data-name="Ellipse 5" transform="translate(141 320)" fill="none" stroke="#008838" stroke-width="0.5">
      <circle cx="64.5" cy="64.5" r="64.5" stroke="none"/>
      <circle cx="64.5" cy="64.5" r="64.25" fill="none"/>
    </g>
  </g>
</svg>
