<svg id="Component_3_1" data-name="Component 3 – 1" xmlns="http://www.w3.org/2000/svg" width="57" height="57" viewBox="0 0 57 57">
  <g id="Group_139" data-name="Group 139" transform="translate(0.518 0.518)">
    <path id="Path_873" data-name="Path 873" d="M209.055,153.206l.8-3.687,4.089-2.145-1.944-2.011-.939-1.676.134-5.966-.738-2.28v-2.748l-3.218-2.347a3.454,3.454,0,0,1-1.743-2.816c0-1.877,4.693-2.883,4.693-2.883s1.006-5.162,2.145-6.369,3.553-2.95,4.894-4.224,2.615-2.346,4.961-2.346a23.738,23.738,0,0,1,6.034.8c1.006.335,1.14.335,1.542,1.006,0,0,7.039,2.078,9.185,11.464l-.067,7.24s2.816,6.1-2.749,6.436l-.536,3.084-2.346,3.419-.738.6v3.553l2.816.268-1.006,5.3,1.944-.268,1.207-3.218,9.654-6.771,3.275-.337a27.555,27.555,0,1,0-49.887,6.256l3.639.181Z" transform="translate(-196.507 -108.661)" fill="#fff"/>
    <path id="Path_874" data-name="Path 874" d="M231.859,171.749l-7.119-7.523,1.14-1.14,3.888,2.883-.067-2.547,1.743-.738.134-6.57,2.95-1.073a4.787,4.787,0,0,0-3.285-1.676,43.347,43.347,0,0,0-4.358.134l-2.413-2.078-.067-1.542,1.944-1.341-1.743-.6.939-.8,2.011-.067a16.443,16.443,0,0,0,3.352,1.073l-.268-1.408-1.14.536-1.81-1.475-1.676.4-.872-.335.268-1.408,1.341-.6,2.212-.2-.4-1.207-.8.469-1.475-.671-1.81-.067-.335-1.542,2.95-4.156,1.341-.134s.067,2.078,1.81,2.347l.6.737.939-.737,2.414-.067.8.871.671-.134-.2-.872-1.609-1.542L235.132,135l2.548,1.274,1.944,2.145,1.14,6.1,1.408.2a2.455,2.455,0,0,1,2.414-1.408l-1.475,2.346.6,1.073,1.944-2.883-.536,5.966-2.816,3.486-.2,8.648-1.341.872.134,4.76-4.428,4.273a27.569,27.569,0,0,0,24.665-19.427l-3.275.337-9.654,6.771L247,162.75l-1.944.268,1.006-5.3-2.816-.268V153.9l.738-.6,2.346-3.419.536-3.084c5.564-.335,2.749-6.436,2.749-6.436l.067-7.24c-2.145-9.386-9.185-11.464-9.185-11.464-.4-.671-.536-.671-1.542-1.006a23.738,23.738,0,0,0-6.034-.8c-2.346,0-3.62,1.073-4.961,2.346s-3.754,3.017-4.894,4.224-2.145,6.369-2.145,6.369-4.693,1.006-4.693,2.883a3.454,3.454,0,0,0,1.743,2.816l3.218,2.347v2.748l.738,2.28-.134,5.966.939,1.676,1.944,2.011-4.089,2.145-.8,3.687-4.894-2.481-3.639-.181A27.553,27.553,0,0,0,231.859,171.749Zm-9.532-39.167.536-2.883a7.545,7.545,0,0,1,1.14-2.548,24.2,24.2,0,0,1,2.145-2.078s-.268,2.414.2,1.676,2.614-4.961,4.76-5.3a8.946,8.946,0,0,1,3.955-.134s-3.218,2.212-3.218,5.3c0,0,.872.268,1.14-.4s.536-2.346,3.62-4.291c0,0,.8-.469,2.883.536s4.156,1.676,6.3,4.693,2.816,4.358,2.816,7.173.067,4.76.067,4.76-7.71-5.766-13.207-6.3C228.906,132.143,226.886,131.911,222.327,132.582Z" transform="translate(-207.231 -116.797)" fill="#008838"/>
    <path id="Path_875" data-name="Path 875" d="M265.055,136.28c5.5.536,13.207,6.3,13.207,6.3s-.067-1.944-.067-4.76-.671-4.156-2.816-7.173-4.224-3.687-6.3-4.693-2.883-.536-2.883-.536c-3.084,1.944-3.352,3.62-3.62,4.291s-1.14.4-1.14.4c0-3.084,3.218-5.3,3.218-5.3a8.946,8.946,0,0,0-3.955.134c-2.146.335-4.291,4.559-4.76,5.3s-.2-1.676-.2-1.676a24.2,24.2,0,0,0-2.145,2.078,7.545,7.545,0,0,0-1.14,2.548l-.536,2.883C256.474,135.408,258.494,135.64,265.055,136.28Z" transform="translate(-236.819 -120.294)" fill="#fe0"/>
    <path id="Path_876" data-name="Path 876" d="M275.185,203.277l1.341-.872.2-8.648,2.815-3.486.536-5.966-1.944,2.883-.6-1.073,1.475-2.346a2.455,2.455,0,0,0-2.414,1.408l-1.408-.2-1.14-6.1-1.944-2.145-2.548-1.274L268.28,177.4l1.609,1.542.2.872-.67.134-.8-.871-2.414.067-.939.737-.6-.737c-1.743-.268-1.81-2.347-1.81-2.347l-1.341.134-2.95,4.156.335,1.542,1.81.067,1.475.671.8-.469.4,1.207-2.212.2-1.341.6-.268,1.408.872.335,1.676-.4,1.81,1.475,1.14-.536.268,1.408a16.443,16.443,0,0,1-3.352-1.073l-2.011.067-.939.8,1.743.6-1.944,1.341.067,1.542,2.413,2.078a43.347,43.347,0,0,1,4.358-.134,4.787,4.787,0,0,1,3.285,1.676L266,196.573l-.134,6.57-1.743.738.067,2.547-3.888-2.883-1.14,1.14,7.119,7.523a27.885,27.885,0,0,0,2.925.155c.566,0,1.128-.019,1.685-.053l4.428-4.273Z" transform="translate(-241.653 -157.257)" fill="#fff"/>
  </g>
  <g id="Ellipse_4" data-name="Ellipse 4" fill="none" stroke="#008838" stroke-width="1">
    <circle cx="28.5" cy="28.5" r="28.5" stroke="none"/>
    <circle cx="28.5" cy="28.5" r="28" fill="none"/>
  </g>
</svg>
