<svg id="Component_14_1" data-name="Component 14 – 1" xmlns="http://www.w3.org/2000/svg" width="97" height="97" viewBox="0 0 97 97">
  <g id="Group_139" data-name="Group 139" transform="translate(1.248 1.248)">
    <path id="Path_873" data-name="Path 873" d="M217.7,183.882l1.359-6.227,6.906-3.623-3.283-3.4-1.585-2.83.227-10.075-1.245-3.849V149.24l-5.434-3.963a5.832,5.832,0,0,1-2.944-4.754c0-3.17,7.925-4.868,7.925-4.868s1.7-8.717,3.623-10.755,6-4.981,8.264-7.133,4.415-3.962,8.377-3.962a40.085,40.085,0,0,1,10.189,1.359c1.7.566,1.924.566,2.6,1.7,0,0,11.887,3.509,15.51,19.359l-.113,12.226s4.754,10.3-4.642,10.868l-.906,5.208-3.962,5.773-1.245,1.019v6l4.755.453-1.7,8.943,3.283-.453,2.038-5.434L282,169.391l5.531-.569a46.531,46.531,0,1,0-84.242,10.565l6.144.306Z" transform="translate(-196.507 -108.661)" fill="#fff"/>
    <path id="Path_874" data-name="Path 874" d="M246.053,207.493l-12.021-12.7,1.924-1.925,6.566,4.868-.113-4.3,2.944-1.245.226-11.094,4.981-1.811a8.083,8.083,0,0,0-5.547-2.83,73.2,73.2,0,0,0-7.359.226l-4.075-3.509-.113-2.6,3.283-2.264-2.944-1.019,1.585-1.359,3.4-.113s4.3,1.811,5.66,1.811L244,165.24l-1.925.906-3.057-2.49-2.83.679-1.472-.566.453-2.378,2.264-1.019,3.736-.34L240.486,158l-1.359.793-2.49-1.132-3.057-.113-.566-2.6L238,147.92l2.264-.226s.113,3.509,3.057,3.963l1.019,1.245,1.585-1.245,4.076-.113,1.358,1.471,1.132-.226-.34-1.472-2.717-2.6,2.151-3.283,4.3,2.151,3.283,3.623,1.924,10.3,2.377.34s1.359-2.83,4.076-2.377l-2.491,3.962,1.019,1.811,3.283-4.868-.906,10.075-4.754,5.887-.34,14.6-2.264,1.472.226,8.038-7.477,7.216a46.554,46.554,0,0,0,41.65-32.8l-5.531.569-16.3,11.434-2.038,5.434-3.283.453,1.7-8.943-4.755-.453v-6l1.245-1.019,3.962-5.773.906-5.208c9.4-.566,4.642-10.868,4.642-10.868l.113-12.226c-3.623-15.849-15.51-19.358-15.51-19.358-.68-1.132-.906-1.132-2.6-1.7a40.084,40.084,0,0,0-10.189-1.359c-3.962,0-6.113,1.811-8.377,3.962s-6.339,5.094-8.264,7.133-3.623,10.755-3.623,10.755-7.925,1.7-7.925,4.868a5.832,5.832,0,0,0,2.944,4.754l5.434,3.963v4.641l1.245,3.849-.227,10.075,1.585,2.83,3.283,3.4-6.906,3.623-1.359,6.227-8.264-4.189-6.144-.306A46.527,46.527,0,0,0,246.053,207.493Zm-16.1-66.139.905-4.868a12.741,12.741,0,0,1,1.925-4.3,40.861,40.861,0,0,1,3.623-3.509s-.453,4.076.34,2.83,4.415-8.377,8.038-8.943,4.641-.68,6.679-.226c0,0-5.434,3.736-5.434,8.943,0,0,1.472.453,1.925-.68s.906-3.962,6.113-7.245c0,0,1.359-.792,4.868.906s7.019,2.83,10.641,7.924,4.755,7.359,4.755,12.113.113,8.038.113,8.038-13.019-9.736-22.3-10.641C241.068,140.613,237.655,140.222,229.957,141.354Z" transform="translate(-204.466 -114.699)" fill="#008838"/>
    <path id="Path_875" data-name="Path 875" d="M274.1,144.288c9.283.905,22.3,10.641,22.3,10.641s-.113-3.283-.113-8.038-1.132-7.019-4.755-12.113-7.132-6.226-10.642-7.924-4.868-.906-4.868-.906c-5.208,3.283-5.66,6.113-6.113,7.245s-1.924.68-1.924.68c0-5.208,5.434-8.943,5.434-8.943-2.038-.453-3.056-.34-6.679.226s-7.246,7.7-8.038,8.943-.34-2.83-.34-2.83a40.858,40.858,0,0,0-3.623,3.509,12.741,12.741,0,0,0-1.925,4.3l-.905,4.868C259.613,142.817,263.025,143.208,274.1,144.288Z" transform="translate(-226.423 -117.294)" fill="#fe0"/>
    <path id="Path_876" data-name="Path 876" d="M286.634,222.436l2.264-1.472.34-14.6,4.754-5.887L294.9,190.4l-3.283,4.868-1.019-1.811,2.491-3.962c-2.717-.453-4.076,2.377-4.076,2.377l-2.377-.34-1.924-10.3-3.283-3.623-4.3-2.151-2.151,3.283,2.717,2.6.34,1.472-1.132.226-1.358-1.471-4.076.113-1.585,1.245-1.019-1.245c-2.944-.453-3.057-3.963-3.057-3.963l-2.264.226-4.981,7.019.566,2.6,3.057.113,2.49,1.132,1.359-.793.679,2.038-3.736.34-2.264,1.019-.453,2.378,1.472.566,2.83-.679,3.057,2.49,1.924-.906.453,2.378c-1.358,0-5.66-1.811-5.66-1.811l-3.4.113-1.585,1.359,2.944,1.019-3.283,2.264.113,2.6L263.2,206.7a73.193,73.193,0,0,1,7.359-.226,8.083,8.083,0,0,1,5.547,2.83l-4.981,1.811L270.9,222.21l-2.944,1.245.113,4.3-6.566-4.868-1.924,1.925,12.021,12.7a47.086,47.086,0,0,0,4.94.261c.956,0,1.9-.033,2.846-.089l7.477-7.216Z" transform="translate(-230.011 -144.725)" fill="#fff"/>
  </g>
  <g id="Ellipse_4" data-name="Ellipse 4" fill="none" stroke="#008838" stroke-width="1">
    <circle cx="48.5" cy="48.5" r="48.5" stroke="none"/>
    <circle cx="48.5" cy="48.5" r="48" fill="none"/>
  </g>
</svg>
