<svg id="Component_12_1" data-name="Component 12 – 1" xmlns="http://www.w3.org/2000/svg" width="19.737" height="23.666" viewBox="0 0 19.737 23.666">
  <path id="Path_825" data-name="Path 825" d="M595.5,484.658c0-.843,0-1.686,0-2.529,0,.843,0,1.686,0,2.529,0,.613.008,1.226,0,1.839C595.5,485.884,595.495,485.271,595.5,484.658Z" transform="translate(-592.278 -467.417)" fill="none"/>
  <path id="Path_826" data-name="Path 826" d="M678.29,509.9c.465.007.93,0,1.395,0,.5,0,1,0,1.5,0-.5,0-1,0-1.5,0C679.22,509.9,678.755,509.9,678.29,509.9Z" transform="translate(-663.247 -491.218)" fill="none"/>
  <path id="Path_827" data-name="Path 827" d="M591.654,393.786a.289.289,0,0,1-.219-.336c.007-.5.012-1-.008-1.5a2.075,2.075,0,0,0-2-1.953c-.2,0-.392,0-.621,0,0-.275,0-.522,0-.769,0-.517.013-1.034-.009-1.55a2.068,2.068,0,0,0-2.009-2.025c-.026,0-.051-.007-.119-.017v-.266c0-.629,0-1.258,0-1.887a2.292,2.292,0,0,0-2.292-2.33c-.273-.006-.547,0-.826,0a2.288,2.288,0,0,0-1.315-1.765,5.758,5.758,0,0,0-.834-.247h-4.134c-.183.042-.37.072-.549.127a2.3,2.3,0,0,0-1.615,2.168c-.009,1.335,0,2.67,0,4v.288a2.9,2.9,0,0,0-1.343.8,2.8,2.8,0,0,0-.772,1.968q0,6.072,0,12.143a2.116,2.116,0,0,0,2.057,2.155c.069.005.138.006.206.006q6.973,0,13.946,0a2.111,2.111,0,0,0,2.144-1.491,2.916,2.916,0,0,0,.094-.737c.015-.439,0-.878.01-1.317a.276.276,0,0,1,.119-.212,1.716,1.716,0,0,0,1.123-1.309c0-.014.022-.025.033-.037v-2.585a5.069,5.069,0,0,0-.182-.507A1.553,1.553,0,0,0,591.654,393.786Zm-4.97-6.819a.744.744,0,0,1,.809.663c.028.778.008,1.558.008,2.352h-.817Zm-2.386-4.52a1,1,0,0,1,1.071,1.038c.009,2.119,0,4.238,0,6.357,0,.041-.008.083-.016.153h-.622c-.051,0-.1,0-.174-.008a2.184,2.184,0,0,0-.727-2.094,2.06,2.06,0,0,0-1.524-.517,2.18,2.18,0,0,0-2,2.6h-.795c0-.082-.012-.173-.012-.263q0-3.05,0-6.1a1.033,1.033,0,0,1,1.177-1.167Q582.489,382.447,584.3,382.448Zm-1.03,7.281c-.036.18-.107.3-.324.271a4.584,4.584,0,0,0-.515,0,4.231,4.231,0,0,0-.489,0c-.227.026-.3-.092-.337-.286a.845.845,0,0,1,.366-.9.836.836,0,0,1,.947.008A.846.846,0,0,1,583.267,389.728Zm-5.706-9.265c1.222.034,2.445.007,3.668.01a.913.913,0,0,1,.952.68c-.582,0-1.141-.01-1.7,0a2.286,2.286,0,0,0-2.276,2.319c-.007,2.059,0,4.118,0,6.176v.327h-1.792c0-.083-.012-.174-.012-.264,0-2.7.008-5.393-.006-8.089A1.077,1.077,0,0,1,577.561,380.463Zm-2.468,6.686v2.643a1.524,1.524,0,0,1-.8-1.224A1.473,1.473,0,0,1,575.093,387.149Zm15.035,13.66a.76.76,0,0,1-.734.676c-.086.005-.172,0-.258,0-4.616,0-9.232-.008-13.849.009a.909.909,0,0,1-1.008-1.007c.014-3.11.007-6.221.007-9.331v-.282a1.011,1.011,0,0,1,.136.048,3.093,3.093,0,0,0,1.536.367q6.6-.008,13.2,0c.679,0,.979.3.98.969,0,.456,0,.911,0,1.41-.775,0-1.515-.012-2.253,0a2.711,2.711,0,0,0-2.552,2.075,2.747,2.747,0,0,0,2.718,3.388c.594.009,1.188,0,1.783,0h.3C590.135,399.712,590.155,400.261,590.128,400.809Zm1.284-3.463c0,.354-.13.473-.492.475-.5,0-1,0-1.5,0-.465,0-.93.005-1.395,0a1.409,1.409,0,0,1-1.463-1.438,1.428,1.428,0,0,1,1.484-1.423q1.434,0,2.867,0c.354,0,.493.128.5.475Q591.421,396.39,591.412,397.346Z" transform="translate(-572.984 -379.141)"/>
  <path id="Path_828" data-name="Path 828" d="M596.08,476.852c-.372.019-.606.3-.609.753,0,.843,0,1.686,0,2.529,0,.613.008,1.226,0,1.839q0,.306-.009.613c-.016.659.355.858.669.862.408,0,.649-.32.649-.852q0-2.026,0-4.052c0-.336.008-.671,0-1.006A.647.647,0,0,0,596.08,476.852Z" transform="translate(-592.253 -462.893)"/>
  <path id="Path_829" data-name="Path 829" d="M633.411,415.534a.966.966,0,0,0,.95-.956.961.961,0,1,0-1.922,0A.962.962,0,0,0,633.411,415.534Z" transform="translate(-623.946 -408.69)"/>
  <path id="Path_830" data-name="Path 830" d="M674.29,494.164a.807.807,0,0,0-.814.817.834.834,0,0,0,.829.837.855.855,0,0,0,.823-.827A.832.832,0,0,0,674.29,494.164Z" transform="translate(-659.12 -477.732)"/>
</svg>
