<svg id="Component_10_1" data-name="Component 10 – 1" xmlns="http://www.w3.org/2000/svg" width="23.436" height="23.436" viewBox="0 0 23.436 23.436">
  <path id="Path_25" data-name="Path 25" d="M35.208,21.423h-.944v-.049H23.718v4.687H30.34a7.036,7.036,0,1,1-1.958-7.594L31.7,15.153a11.706,11.706,0,1,0,3.739,8.565A11.8,11.8,0,0,0,35.208,21.423Z" transform="translate(-12 -12)" fill="#ffc107"/>
  <path id="Path_26" data-name="Path 26" d="M18.918,18.264l3.85,2.823a7.017,7.017,0,0,1,11.181-2.62l3.314-3.314a11.695,11.695,0,0,0-18.346,3.111Z" transform="translate(-17.567 -12)" fill="#ff3d00"/>
  <path id="Path_27" data-name="Path 27" d="M29.017,93.5a11.663,11.663,0,0,0,7.856-3.042l-3.627-3.069a7.013,7.013,0,0,1-10.84-3.232l-3.821,2.944A11.709,11.709,0,0,0,29.017,93.5Z" transform="translate(-17.299 -70.069)" fill="#4caf50"/>
  <path id="Path_28" data-name="Path 28" d="M83.49,60.049h-.944V60H72v4.687h6.622a7.054,7.054,0,0,1-2.395,3.264h0l3.627,3.069a11.335,11.335,0,0,0,3.862-8.675A11.8,11.8,0,0,0,83.49,60.049Z" transform="translate(-60.282 -50.626)" fill="#1976d2"/>
</svg>
