<svg id="Component_8_1" data-name="Component 8 – 1" xmlns="http://www.w3.org/2000/svg" xmlns:xlink="http://www.w3.org/1999/xlink" width="279.769" height="280.752" viewBox="0 0 279.769 280.752">
  <defs>
    <linearGradient id="linear-gradient" x1="0.738" y1="0.579" x2="0.015" y2="0.284" gradientUnits="objectBoundingBox">
      <stop offset="0" stop-color="#f8b79b"/>
      <stop offset="0.99" stop-color="#f8b79b"/>
    </linearGradient>
    <linearGradient id="linear-gradient-2" x1="-0.203" y1="1.27" x2="0.777" y2="0.172" gradientUnits="objectBoundingBox">
      <stop offset="0" stop-color="#0f1c3d"/>
      <stop offset="1" stop-color="#25356d"/>
    </linearGradient>
    <linearGradient id="linear-gradient-3" x1="0.489" y1="0.692" x2="0.792" y2="-0.39" xlink:href="#linear-gradient-2"/>
    <linearGradient id="linear-gradient-4" x1="2.384" y1="1.307" x2="-1.204" y2="-0.229" xlink:href="#linear-gradient"/>
    <linearGradient id="linear-gradient-5" x1="0.418" y1="0.372" x2="0.102" y2="-0.437" xlink:href="#linear-gradient"/>
    <linearGradient id="linear-gradient-6" x1="0.721" y1="0.693" x2="0.109" y2="0.408" gradientUnits="objectBoundingBox">
      <stop offset="0" stop-color="#b44414"/>
      <stop offset="1" stop-color="#ee5402"/>
    </linearGradient>
    <linearGradient id="linear-gradient-7" x1="0.499" y1="0.635" x2="0.657" y2="-0.029" xlink:href="#linear-gradient-2"/>
    <linearGradient id="linear-gradient-8" x1="0.559" y1="-3.033" x2="0.488" y2="1.555" gradientUnits="objectBoundingBox">
      <stop offset="0" stop-color="#4d0628"/>
      <stop offset="1" stop-color="#6f0b37"/>
    </linearGradient>
    <linearGradient id="linear-gradient-9" x1="-9.156" y1="-4.395" x2="4.981" y2="2.687" gradientUnits="objectBoundingBox">
      <stop offset="0" stop-color="#6fb059"/>
      <stop offset="1" stop-color="#007a33"/>
    </linearGradient>
    <linearGradient id="linear-gradient-10" x1="-16.074" y1="-4.2" x2="5.124" y2="1.935" xlink:href="#linear-gradient-9"/>
    <linearGradient id="linear-gradient-11" x1="-7.667" y1="-3.956" x2="5.733" y2="3.399" xlink:href="#linear-gradient-9"/>
    <linearGradient id="linear-gradient-12" x1="-9.456" y1="-2.848" x2="9.602" y2="3.371" xlink:href="#linear-gradient-9"/>
    <linearGradient id="linear-gradient-13" x1="-10.398" y1="-5.456" x2="3.002" y2="1.901" xlink:href="#linear-gradient-9"/>
    <linearGradient id="linear-gradient-14" x1="-12.415" y1="-3.813" x2="6.64" y2="2.405" xlink:href="#linear-gradient-9"/>
    <linearGradient id="linear-gradient-15" x1="-3.12" y1="-1.603" x2="9.87" y2="5.952" xlink:href="#linear-gradient-9"/>
    <linearGradient id="linear-gradient-16" x1="-4.451" y1="-4.375" x2="6.895" y2="6.342" xlink:href="#linear-gradient-9"/>
    <linearGradient id="linear-gradient-17" x1="-4.186" y1="-2.421" x2="8.306" y2="5.469" xlink:href="#linear-gradient-9"/>
    <linearGradient id="linear-gradient-18" x1="-1.624" y1="-0.639" x2="11.776" y2="6.716" xlink:href="#linear-gradient-9"/>
    <linearGradient id="linear-gradient-19" x1="-16.649" y1="-5.195" x2="2.404" y2="1.022" xlink:href="#linear-gradient-9"/>
    <linearGradient id="linear-gradient-20" x1="-12.619" y1="-7.639" x2="-0.008" y2="0.158" xlink:href="#linear-gradient-9"/>
  </defs>
  <path id="Path_1138" data-name="Path 1138" d="M539.01,459.909c-10.162,12.412-15.611,1.343-2.919-20.8,4.846-8.45,3.075-8.929-2.182-5.048,26.4-43.79,11.91-45.138-1.054-29.1-2.161,2.637-4.105,4.211-5.711,4.847,4.059-6.969,7.985-14.355,11.7-22.138,28.771-60.3-11.687-41.163-42.7-19.665,1.968-6,.069-10.532-3.922-13.383q1.168-1.478,2.376-3.009c47.21-59.736-23.908-21.479-44.863-10.976q1.072-1.384,2.141-2.761c1.994-7.374.785-11.578-2.728-12.879-1.236-4.984-9.325-3.952-19.445-.5,12.312-46.565-29.025-2.238-29.025-2.238-6.917,8.946-13.021,17.139-18.394,24.629-16.829,10.553-25.235,23.145-13.854-19.254,12.7-47.3-28.908-2.683-28.908-2.683-74.685,96.606-54.957,105.663-37.869,84.531,10.162-12.412,15.61-1.342,2.916,20.8-4.847,8.449-3.074,8.929,2.182,5.049-26.4,43.79-11.911,45.138,1.056,29.1,2.158-2.637,4.1-4.211,5.708-4.846-4.058,6.969-7.984,14.354-11.7,22.138-28.77,60.3,11.687,41.164,42.694,19.664-1.967,6-.07,10.532,3.922,13.382q-1.165,1.478-2.376,3.009c-47.208,59.737,23.909,21.48,44.865,10.977q-1.072,1.385-2.142,2.761c-1.993,7.373-.785,11.578,2.728,12.878,1.237,4.984,9.325,3.953,19.447.5-12.312,46.565,29.024,2.238,29.024,2.238,6.917-8.945,13.021-17.139,18.395-24.629,16.827-10.554,25.234-23.145,13.854,19.254-12.695,47.3,28.907,2.683,28.907,2.683C575.825,447.835,556.1,438.776,539.01,459.909Z" transform="translate(-275.069 -285.435)" fill="#008838" opacity="0.238"/>
  <g id="Group_207" data-name="Group 207">
    <g id="Group_206" data-name="Group 206">
      <g id="Group_204" data-name="Group 204">
        <g id="Group_198" data-name="Group 198">
          <path id="Path_927" data-name="Path 927" d="M180.344,264.765c-.652.632-12.884,11.109-12.884,11.109s1.692,16.646,12.213,22.993h21.433v-3.638s-26.044-3.845-14.615-23.477Z" transform="translate(-167.46 -35.219)" fill="#040d14"/>
          <path id="Path_928" data-name="Path 928" d="M240.758,196.023l-24.069,3.952c-2.43,4.831-9.284,24.085-8.449,39.339C208.922,251.776,204,263.9,204,263.9c-24.724,14.524-31.328,43.588-31.328,43.588,2.988,5.7,4.322,7.9,10.5,11.395,0,0,41.2-33.753,47.852-47.759S240.758,196.023,240.758,196.023Z" transform="translate(-164.178 -78.518)" fill="#006320"/>
          <path id="Path_929" data-name="Path 929" d="M201.941,220.117s-1.648-5.219-2.746-10.162S200.569,169,200.569,169s7.69-17.577,15.929-21.7c0,0,20.048,6.865,24.442,11.809s5.767,15.1,5.767,15.1l-6.042,45.9Z" transform="translate(-147.648 -109.203)" fill="#fff22d"/>
          <path id="Path_930" data-name="Path 930" d="M242.146,148.817l1.715-5.141s-1.715-18.7-16.848-18.7-14.279,12.708-14.279,12.708l.857,15.277-1.713,4.855,16.276,10.708,1.571-5.426a22.439,22.439,0,0,0,8.138,2.733L241,154.955a3.885,3.885,0,0,0,3.426-1.855Z" transform="translate(-139.482 -123.273)" fill="url(#linear-gradient)"/>
          <path id="Path_931" data-name="Path 931" d="M211.986,147.3l6.43,2.207A8.669,8.669,0,0,0,220.3,147.3c.4-.945.593-6.666.593-6.666l4.921.223a4.563,4.563,0,0,0,0,1.848c.243.517,2.093,1.17,3.167.856,1.2-.349,2.588-10.18,2.588-10.18L211.7,136.043s1.084,7.519,1.02,8.958A4.27,4.27,0,0,1,211.986,147.3Z" transform="translate(-139.591 -117.973)" fill="#040d14"/>
          <g id="Group_197" data-name="Group 197" transform="translate(70.654)">
            <path id="Path_932" data-name="Path 932" d="M212.55,145.189s22.911-2.911,31.488-7.727c0,0-2.29-17.854-22.636-12.547C204.982,129.2,212.55,145.189,212.55,145.189Z" transform="translate(-210.809 -123.929)" fill="url(#linear-gradient-2)"/>
            <path id="Path_933" data-name="Path 933" d="M247.424,133.963s2.339,8.451-28.688,4.226c0,0,14.025-2.836,20.308-5.957Z" transform="translate(-205.816 -118.7)" fill="url(#linear-gradient-3)"/>
            <ellipse id="Ellipse_8" data-name="Ellipse 8" cx="3.28" cy="4.18" rx="3.28" ry="4.18" transform="translate(8.035 19.041) rotate(-14.076)" fill="url(#linear-gradient-4)"/>
          </g>
          <path id="Path_934" data-name="Path 934" d="M209.7,149.348l2.546-5.279,18.846,10.708V162.2S215.151,156.482,209.7,149.348Z" transform="translate(-140.852 -111.244)" fill="#fff22d"/>
          <path id="Path_935" data-name="Path 935" d="M225.083,277.284v14.679h38.148v-4.287s-17.807,1.689-26.9-11.95Z" transform="translate(-131.164 -28.315)" fill="#040d14"/>
          <path id="Path_936" data-name="Path 936" d="M258.758,288.661c-4.968-14.689-16.913-44.175-16.913-44.175a207.526,207.526,0,0,0,5.767-40.221c1.143-23.273,0-34.925,0-34.925-4.477-1-6.723-.222-10.549.466-1.764-6.084-7.488-18.44-25.037-19.767L209,153.9s17.461-.975,23.017,17.1c-1.8.526-2.895.958-2.895.958s1.185,16.511-5.682,31.889S200.1,215.1,200.1,215.1s-2.205,18.677-2.572,27.19a31.651,31.651,0,0,0,.931,10.319c1.617,5.16,10.589,18.683,21.8,29.059,9.16,8.477,17.529,15.947,17.529,15.947-8.529,24.4,1.729,59.73,1.729,59.73,6.11,2.015,12.667,1.791,19.539,0C259.059,357.346,263.724,303.349,258.758,288.661Z" transform="translate(-148.553 -107.483)" fill="#007a33"/>
        </g>
        <g id="Group_201" data-name="Group 201" transform="translate(58.109 51.563)">
          <g id="Group_200" data-name="Group 200">
            <path id="Path_937" data-name="Path 937" d="M203.112,178.346l11.812,27.071s13.06-4.073,17.067-9.447l-7.18-30.518s-1.63-8.813-10.7-9.887" transform="translate(-203.112 -155.565)" fill="#fff22d"/>
            <path id="Path_938" data-name="Path 938" d="M203.112,178.347c1.1,2.207,2.155,4.43,3.211,6.653s2.129,4.443,3.159,6.679l3.1,6.7,3.058,6.722-.944-.43a71.09,71.09,0,0,0,8.979-3.741,34.051,34.051,0,0,0,4.159-2.419,15.132,15.132,0,0,0,3.444-3.079l-.153.738c-1.773-7.621-3.524-15.249-5.176-22.895l-1.234-5.734c-.21-.945-.381-1.944-.611-2.821a14.825,14.825,0,0,0-1.033-2.637,12.336,12.336,0,0,0-3.62-4.352,12.9,12.9,0,0,0-5.333-2.171,12.169,12.169,0,0,1,5.594,1.786,12.981,12.981,0,0,1,4.111,4.324,14.486,14.486,0,0,1,1.248,2.756c.311,1,.51,1.925.773,2.875l1.452,5.683c1.928,7.577,3.76,15.174,5.566,22.776a.893.893,0,0,1-.153.737,16.066,16.066,0,0,1-3.881,3.468,35.525,35.525,0,0,1-4.38,2.508c-1.5.748-3.025,1.413-4.577,2.015s-3.1,1.165-4.712,1.664l-.011,0a.768.768,0,0,1-.932-.434l-2.847-6.813-2.81-6.831c-.939-2.275-1.835-4.57-2.746-6.857S203.986,180.651,203.112,178.347Z" transform="translate(-203.112 -155.565)" fill="#007a33"/>
            <path id="Path_939" data-name="Path 939" d="M210.809,191.776v3.511l8.891,2.336,6.242,4.256,28.585,1.333,7.092,7.2H272.58l.934,3.974s5.084-2.145,5.084-3.974-5.372-10-6.877-10.642-8.813-.861-8.813-.861-18.706-12.535-34.188-15.6C223.48,186.686,216.507,190.215,210.809,191.776Z" transform="translate(-198.264 -138.089)" fill="url(#linear-gradient-5)"/>
            <path id="Path_940" data-name="Path 940" d="M244.207,199.939v3.973h3.678l68.4,82.393v6.865l4.658.981v-8.336l-69.4-85.876Z" transform="translate(-177.227 -127.615)" fill="#040d14"/>
            <g id="Group_199" data-name="Group 199" transform="translate(72.46 81.173)">
              <path id="Path_941" data-name="Path 941" d="M257.132,221.255l-9.563-11.142,5.2-4.745,9.559,11.515Zm-7.074-10.99,7.277,8.48,2.479-2.086-7.225-8.7Z" transform="translate(-247.569 -205.368)" fill="#040d14"/>
            </g>
            <path id="Path_942" data-name="Path 942" d="M296.088,263.294s-1.226-7.806,1.221-9.528,41.914,7.216,43.733,9.528,1.855,11.83,1.855,11.83Z" transform="translate(-144.741 -93.848)" fill="#040d14"/>
            <path id="Path_943" data-name="Path 943" d="M312.976,267.453s-49.555-22.416-54.63-19.828-13.425,34.614-10.272,39.463,56.088,9,56.088,9Z" transform="translate(-175.228 -97.709)" fill="url(#linear-gradient-6)"/>
            <path id="Path_944" data-name="Path 944" d="M251.584,264.464c-1.268-3.149,3.126-15.531,6.9-15.531s41.723,15.373,41.723,15.373l-1.143,9.287S253.662,269.624,251.584,264.464Z" transform="translate(-172.72 -96.754)" fill="#0f1c3d" opacity="0.2"/>
            <path id="Path_945" data-name="Path 945" d="M307.672,261.673c-.96-1.837,1.356-8.762,3.543-10.039s26.975,6.761,29.074,10.039,1.221,16.594,1.221,16.594l-18.568-2.321,1.649-8.919S308.631,263.51,307.672,261.673Z" transform="translate(-137.392 -95.138)" fill="url(#linear-gradient-7)"/>
            <path id="Path_946" data-name="Path 946" d="M285.107,259.385l-4.446,29.962a2.6,2.6,0,0,0,2.569,2.978h82.184a2.6,2.6,0,0,0,2.486-3.346l-3.638-12.071a4.484,4.484,0,0,0-3.173-3.05L290.664,255.7A4.485,4.485,0,0,0,285.107,259.385Z" transform="translate(-154.283 -92.582)" fill="#fff22d"/>
            <path id="Path_947" data-name="Path 947" d="M299.407,277.237s-2.046-10.935,0-12.27,26.751,3.687,28.554,5.726,1.42,8.254,1.42,8.254Z" transform="translate(-143.03 -86.794)" fill="#000e20" opacity="0.33"/>
            <path id="Path_948" data-name="Path 948" d="M281.843,271.4l-1.182,7.965a2.6,2.6,0,0,0,2.569,2.978h82.184A2.6,2.6,0,0,0,367.9,279l-.823-2.735Z" transform="translate(-154.283 -82.602)" fill="url(#linear-gradient-8)"/>
            <path id="Path_949" data-name="Path 949" d="M341.5,280.266l-3.278-10.878a17.569,17.569,0,0,0-15.666,14.224H339.01A2.6,2.6,0,0,0,341.5,280.266Z" transform="translate(-127.879 -83.87)" fill="#000e20" opacity="0.33"/>
            <path id="Path_950" data-name="Path 950" d="M283.468,264.687,280.661,283.6a2.6,2.6,0,0,0,2.569,2.978h20.2A21.984,21.984,0,0,0,283.468,264.687Z" transform="translate(-154.283 -86.831)" fill="#000e20" opacity="0.33"/>
            <path id="Path_951" data-name="Path 951" d="M203.112,173.272a1.831,1.831,0,0,1,1.676-.388,2.952,2.952,0,0,1,1.477.839,3.432,3.432,0,0,1,.833,1.376,3.07,3.07,0,0,1,.055,1.63,6.244,6.244,0,0,1-1.252-.887c-.347-.29-.631-.588-.908-.861l-.8-.828A5.731,5.731,0,0,0,203.112,173.272Z" transform="translate(-203.112 -144.687)" fill="#007a33"/>
          </g>
          <path id="Path_952" data-name="Path 952" d="M207.991,189.5s8.563-10.961,22.872-11.39l1.571,7.307s-15.966,9.838-21.394,9.623Z" transform="translate(-200.039 -141.362)" fill="#007a33"/>
        </g>
        <g id="Group_202" data-name="Group 202" transform="translate(172.258 234.079)">
          <circle id="Ellipse_9" data-name="Ellipse 9" cx="14.785" cy="14.785" r="14.785" fill="#25356d"/>
          <circle id="Ellipse_10" data-name="Ellipse 10" cx="10.646" cy="10.646" r="10.646" transform="translate(4.138 4.138)" fill="#fff"/>
          <circle id="Ellipse_11" data-name="Ellipse 11" cx="3.071" cy="3.071" r="3.071" transform="translate(11.713 11.713)" fill="#040d14"/>
        </g>
        <g id="Group_203" data-name="Group 203" transform="translate(256.264 240.943)">
          <circle id="Ellipse_12" data-name="Ellipse 12" cx="11.353" cy="11.353" r="11.353" fill="#25356d"/>
          <circle id="Ellipse_13" data-name="Ellipse 13" cx="8.175" cy="8.175" r="8.175" transform="translate(3.178 3.178)" fill="#fff"/>
          <circle id="Ellipse_14" data-name="Ellipse 14" cx="2.358" cy="2.358" r="2.358" transform="translate(8.995 8.995)" fill="#040d14"/>
        </g>
      </g>
      <g id="Group_205" data-name="Group 205" transform="translate(60.757 210.496)">
        <path id="Path_953" data-name="Path 953" d="M237.186,269.378s-.971-4.518,4.215-6.342c0,0-3.072-.849-4.746.655C235.624,264.619,234.1,266.963,237.186,269.378Z" transform="translate(-185.45 -246.954)" fill="url(#linear-gradient-9)"/>
        <path id="Path_954" data-name="Path 954" d="M239.622,268.44s3.071,3.454-.544,7.6c0,0,3.092-.776,3.807-2.911C243.325,271.814,243.495,269.023,239.622,268.44Z" transform="translate(-183.106 -243.4)" fill="url(#linear-gradient-10)"/>
        <path id="Path_955" data-name="Path 955" d="M232.882,266.636s.482,4.6-4.868,5.856c0,0,2.963,1.172,4.789-.145C233.926,271.535,235.689,269.368,232.882,266.636Z" transform="translate(-190.075 -244.536)" fill="url(#linear-gradient-11)"/>
        <path id="Path_956" data-name="Path 956" d="M229.466,267.623s-2.684-3.762,1.351-7.494c0,0-3.156.44-4.1,2.486C226.145,263.873,225.679,266.629,229.466,267.623Z" transform="translate(-191.133 -248.635)" fill="url(#linear-gradient-12)"/>
        <path id="Path_957" data-name="Path 957" d="M250.146,260.4s.482,4.6-4.869,5.856c0,0,2.963,1.17,4.789-.147C251.19,265.3,252.953,263.135,250.146,260.4Z" transform="translate(-179.201 -248.462)" fill="url(#linear-gradient-13)"/>
        <path id="Path_958" data-name="Path 958" d="M243.882,260.573s-2.686-3.762,1.351-7.5c0,0-3.157.442-4.1,2.487C240.558,256.823,240.094,259.579,243.882,260.573Z" transform="translate(-182.054 -253.077)" fill="url(#linear-gradient-14)"/>
        <path id="Path_959" data-name="Path 959" d="M210.344,267.495s.152,4.621-5.278,5.491c0,0,2.872,1.382,4.787.2C211.031,272.458,212.947,270.422,210.344,267.495Z" transform="translate(-204.53 -243.995)" fill="url(#linear-gradient-15)"/>
        <path id="Path_960" data-name="Path 960" d="M221.342,271.61s-2.57,3.843-7.489,1.385c0,0,1.529,2.8,3.775,2.953C219.008,276.045,221.751,275.505,221.342,271.61Z" transform="translate(-198.995 -241.403)" fill="url(#linear-gradient-16)"/>
        <path id="Path_961" data-name="Path 961" d="M217.17,264.883s.342-4.608,5.833-4.895c0,0-2.707-1.68-4.738-.711C217.015,259.876,214.895,261.695,217.17,264.883Z" transform="translate(-197.54 -249.361)" fill="url(#linear-gradient-17)"/>
        <path id="Path_962" data-name="Path 962" d="M209.605,253.077s.482,4.6-4.868,5.856c0,0,2.963,1.172,4.789-.145C210.649,257.978,212.412,255.809,209.605,253.077Z" transform="translate(-204.737 -253.077)" fill="url(#linear-gradient-18)"/>
        <path id="Path_963" data-name="Path 963" d="M249.139,278.655s-2.686-3.762,1.351-7.5c0,0-3.157.442-4.1,2.487C245.816,274.9,245.349,277.661,249.139,278.655Z" transform="translate(-178.743 -241.687)" fill="url(#linear-gradient-19)"/>
        <path id="Path_964" data-name="Path 964" d="M259.625,272.944s-.214,4.617-5.695,5.056c0,0,2.753,1.605,4.756.579C259.918,277.946,261.988,276.068,259.625,272.944Z" transform="translate(-173.751 -240.563)" fill="url(#linear-gradient-20)"/>
      </g>
    </g>
    <path id="Path_965" data-name="Path 965" d="M334.128,286.17c.039-.033.073-.07.111-.106-.065.143-.132.287-.215.432C334.062,286.392,334.1,286.284,334.128,286.17Z" transform="translate(-62.544 -21.803)" fill="#006320"/>
  </g>
</svg>
