<svg id="Component_37_1" data-name="Component 37 – 1" xmlns="http://www.w3.org/2000/svg" width="50" height="50" viewBox="0 0 50 50">
  <circle id="Ellipse_46" data-name="Ellipse 46" cx="25" cy="25" r="25" fill="#fe0"/>
  <g id="Group_835" data-name="Group 835" transform="translate(-36.505 -51.371)">
    <path id="Path_2133" data-name="Path 2133" d="M214.736,137.748h0c.767,0,1.534,0,2.3,0C216.27,137.75,215.5,137.748,214.736,137.748Z" transform="translate(-144.322 -61.641)" fill="#008838"/>
    <path id="Path_2134" data-name="Path 2134" d="M49.544,85.649c0,.319-.007.607,0,.894a.565.565,0,0,0,.641.631q1.031.007,2.062,0a.561.561,0,0,0,.629-.639c0-.286,0-.572,0-.877H67.123c.387,0,.578-.138.577-.414s-.183-.407-.578-.409c-.223,0-.447,0-.7,0v-.381q0-6.512,0-13.024a1.816,1.816,0,0,0-.035-.4.4.4,0,0,0-.761-.019,1.407,1.407,0,0,0-.041.374q0,6.539,0,13.078v.361c-.118.005-.207.013-.3.013H48.874c-.457,0-.551-.1-.551-.561q0-7.774,0-15.547c0-.488.083-.573.564-.573h16.7c0,.218,0,.4,0,.578,0,.226-.013.454.008.678a.392.392,0,0,0,.394.4.383.383,0,0,0,.421-.369,2.707,2.707,0,0,0,.017-.378c0-.3,0-.59,0-.912H73.89c.5,0,.58.084.58.585q0,7.747,0,15.493c0,.529-.077.6-.618.6H69.511c-.448,0-.633.118-.637.4s.19.418.626.418h.385a.484.484,0,0,1,.025.086c0,.253,0,.506,0,.76,0,.474.2.669.68.67q.99,0,1.98,0c.462,0,.661-.2.672-.655.007-.278,0-.557,0-.863.327,0,.624.009.92,0a1.15,1.15,0,0,0,1.116-1.138c.005-.271,0-.543,0-.814q0-7.543-.01-15.086a1.659,1.659,0,0,0-.229-.81,1.171,1.171,0,0,0-1.111-.486q-12.493,0-24.986,0a1.337,1.337,0,0,0-1.446.924v16.5C47.839,85.765,48.69,85.691,49.544,85.649Zm.849.024h1.655v.651H50.393Zm22.013.653H70.746v-.646h1.659Z" fill="#008838"/>
    <path id="Path_2135" data-name="Path 2135" d="M74.577,87.172A6.491,6.491,0,0,0,69.265,92.2a6.2,6.2,0,0,0-.118,2.527.4.4,0,0,0,.45.4.394.394,0,0,0,.361-.454c0-.152-.02-.3-.033-.491.409,0,.814.005,1.218,0,.157,0,.2.054.242.207a15.243,15.243,0,0,0,.5,1.5,4.641,4.641,0,0,0,.449.72L71.33,97.62a5.651,5.651,0,0,1-.385-.518c-.226-.389-.416-.8-.657-1.18a.553.553,0,0,0-.4-.233.5.5,0,0,0-.337.284.606.606,0,0,0,.062.41,6.712,6.712,0,1,0,4.968-9.21Zm7.076,6.153H80.272a11.439,11.439,0,0,0-.373-1.268,10.963,10.963,0,0,0-.619-1.128l.987-.986A5.789,5.789,0,0,1,81.653,93.325Zm-4.238,1.465a.29.29,0,0,1-.026-.23,2.754,2.754,0,0,1,.145-.364h1.856a3.549,3.549,0,0,1-.763,1.825C78.207,95.6,77.8,95.2,77.414,94.791Zm.606,1.831a3.486,3.486,0,0,1-1.8.741V95.51l.485-.2Zm-.376-3.285c-.243,0-.163-.264-.259-.389a.239.239,0,0,1,.038-.223c.385-.4.781-.8,1.2-1.219a3.536,3.536,0,0,1,.774,1.834C78.794,93.34,78.219,93.346,77.644,93.337Zm-1.436-5.443a5.849,5.849,0,0,1,3.439,1.427c-.32.318-.628.628-.944.93a.167.167,0,0,1-.161,0,4.6,4.6,0,0,0-2.334-.937ZM76.2,90.166a3.445,3.445,0,0,1,1.792.713L76.675,92.2c-.475-.2-.475-.2-.475-.749ZM73.56,90.9a3.521,3.521,0,0,1,1.819-.734v1.281c0,.555,0,.555-.5.768Zm.39,2.437c-.583.011-1.166,0-1.764,0a3.592,3.592,0,0,1,.769-1.839c.419.424.819.824,1.214,1.23C74.283,92.847,74.113,93.332,73.95,93.335Zm1.417-5.443v1.414a3.842,3.842,0,0,0-.739.161c-.51.219-1.009.467-1.5.733-.159.087-.237.092-.361-.036-.27-.278-.556-.539-.859-.828A5.863,5.863,0,0,1,75.367,87.892Zm-3.844,4.616a4.826,4.826,0,0,0-.153.655c-.017.065-.079.166-.123.167-.439.012-.878.008-1.328.008a5.889,5.889,0,0,1,1.416-3.427l.949.948C72.023,91.422,71.758,91.959,71.523,92.508Zm.658,1.676c.6,0,1.179,0,1.754,0a.221.221,0,0,1,.15.112c.066.126.112.262.16.378l-1.31,1.311A3.533,3.533,0,0,1,72.181,94.184Zm3.183,5.443a5.85,5.85,0,0,1-3.375-1.369L73,97.242a4.59,4.59,0,0,0,2.366.966Zm.024-3.574c-.042.419-.009.846-.009,1.3a3.372,3.372,0,0,1-1.795-.7l1.326-1.328h0C75.324,95.4,75.429,95.653,75.389,96.053Zm-.551-2.3a.947.947,0,0,1,.947-.947.958.958,0,1,1-.947.947Zm1.373,5.881v-.359c0-.353,0-.689,0-1.026.321-.091.65-.162.967-.263.106-.034.21-.071.312-.113a11.136,11.136,0,0,0,1.142-.623l.976.986A5.823,5.823,0,0,1,76.21,99.635Zm4.053-2.048L79.25,96.574a4.516,4.516,0,0,0,.976-2.374h1.427A5.806,5.806,0,0,1,80.264,97.587Z" transform="translate(-18.875 -17.27)" fill="#008838"/>
    <path id="Path_2136" data-name="Path 2136" d="M214.385,150.237q.007-2.548,0-5.1a.785.785,0,0,0-.851-.841q-1.938,0-3.876,0a.777.777,0,0,0-.853.858q0,1.261,0,2.521c0,.859,0,1.717,0,2.576a.768.768,0,0,0,.829.827q1.952.006,3.9,0A.783.783,0,0,0,214.385,150.237Zm-.853.022h-3.889V145.13h3.889Z" transform="translate(-141.168 -67.373)" fill="#008838"/>
    <path id="Path_2137" data-name="Path 2137" d="M208.8,153.705q0-1.261,0-2.521,0,1.261,0,2.521c0,.859,0,1.717,0,2.576C208.8,155.423,208.8,154.564,208.8,153.705Z" transform="translate(-141.168 -73.401)" fill="#008838"/>
    <path id="Path_2138" data-name="Path 2138" d="M209.243,87.752a.648.648,0,0,0,.342.042c.713,0,1.426,0,2.139,0s1.444,0,2.166,0a.664.664,0,0,0,.343-.041c.121-.083.269-.222.279-.347a.588.588,0,0,0-.223-.385.557.557,0,0,0-.336-.061q-2.206-.005-4.413,0a.566.566,0,0,0-.337.059.585.585,0,0,0-.226.38A.594.594,0,0,0,209.243,87.752Z" transform="translate(-141.319 -17.19)" fill="#008838"/>
    <path id="Path_2139" data-name="Path 2139" d="M209.255,102.516c.081.006.163,0,.244,0h3.011c.488,0,.977,0,1.465-.007a.409.409,0,0,0,.421-.407.43.43,0,0,0-.427-.409c-.072-.006-.145,0-.217,0h-3.907c-.19,0-.38,0-.57,0a.418.418,0,0,0-.455.4A.41.41,0,0,0,209.255,102.516Z" transform="translate(-141.182 -30.086)" fill="#008838"/>
    <path id="Path_2140" data-name="Path 2140" d="M213.892,116.471c-.76,0-1.519,0-2.279,0s-1.537,0-2.306,0c-.3,0-.477.148-.486.393s.173.419.485.42q2.293,0,4.585,0c.315,0,.506-.159.506-.406S214.206,116.472,213.892,116.471Z" transform="translate(-141.182 -43.019)" fill="#008838"/>
    <path id="Path_2141" data-name="Path 2141" d="M209.466,131.18c-.094,0-.234.013-.274.073a.768.768,0,0,0-.165.443c.021.207.207.3.42.3h2.328c.767,0,1.534,0,2.3,0,.308,0,.5-.168.5-.416s-.187-.4-.481-.4Q211.781,131.173,209.466,131.18Z" transform="translate(-141.363 -55.89)" fill="#008838"/>
  </g>
</svg>
