<svg id="Component_38_1" data-name="Component 38 – 1" xmlns="http://www.w3.org/2000/svg" width="50" height="50" viewBox="0 0 50 50">
  <circle id="Ellipse_47" data-name="Ellipse 47" cx="25" cy="25" r="25" fill="#fe0"/>
  <g id="Group_836" data-name="Group 836" transform="translate(-67.413 -66.985)">
    <path id="Path_2142" data-name="Path 2142" d="M87.318,78.985a4.029,4.029,0,0,1,2.339,1.485c.119.131.255.247.373.379a.965.965,0,0,0,.639.336,3.05,3.05,0,0,1,2.517,2.389,2.936,2.936,0,0,1,.058.5.853.853,0,0,1-.894.966q-2.14.024-4.28,0a.864.864,0,0,1-.872-.991,2.963,2.963,0,0,1,.532-1.583c.081-.115.061-.169-.021-.273a1.5,1.5,0,0,0-1.443-.628,15.218,15.218,0,0,1-1.544.012c-.4,0-.548.153-.548.555,0,2.465,0,4.931-.006,7.4,0,.218.065.259.269.26.742,0,1.485-.036,2.227.033a7,7,0,0,1,3.725,1.489.44.44,0,0,1,.058.049c.184.205.331.219.566.015a3.056,3.056,0,0,1,2.054-.727c1.57,0,3.141,0,4.711,0a3.247,3.247,0,0,1,2.966,1.6.266.266,0,0,0,.272.128q1.2,0,2.406,0a1.762,1.762,0,0,1,1.9,1.368c0,.014.023.023.035.034V94.8a.99.99,0,0,1-1.093.622c-.162-.018-.2.06-.2.207.008.321,0,.641,0,.962a5.509,5.509,0,0,1-2.164,4.529.962.962,0,0,0-.45.932c.019.227.064.312.3.292a1.281,1.281,0,0,1,1.044.355,1.349,1.349,0,0,1,.4,1.028c0,.387-.042.342.33.344.405,0,.811.013,1.215,0a.661.661,0,0,1,.611.26v.355a.73.73,0,0,1-.639.258q-9.447-.01-18.9-.005h-5.9c-.323,0-.509-.161-.509-.431s.182-.429.509-.43c.481,0,.963-.006,1.444,0,.151,0,.219-.036.206-.2a1.985,1.985,0,0,1,.007-.329,1.274,1.274,0,0,1,1.262-1.206c.464-.019.443-.02.471-.5a.639.639,0,0,0-.312-.616,5.386,5.386,0,0,1-2.273-4.24c-.051-1.239-.021-2.482-.025-3.722,0-.433,0-.433-.435-.445a.848.848,0,0,1-.853-.851c0-.118,0-.236,0-.355a1.738,1.738,0,0,1,1.826-1.83c.359,0,.33.059.331-.344q0-3.66,0-7.32a3.044,3.044,0,0,1,1.268-2.572,3.827,3.827,0,0,1,1.338-.564Zm5.06,22.485c1.985,0,3.969,0,5.954,0a4.78,4.78,0,0,0,4.627-3.281,8.465,8.465,0,0,0,.227-2.634c0-.167-.117-.134-.212-.134-.507,0-1.014.008-1.52-.005-.2-.005-.255.055-.254.255.01,1.039.007,2.078,0,3.116a1.283,1.283,0,0,1-1.389,1.387q-2.369,0-4.738,0a1.55,1.55,0,0,1-.427-.037,1.306,1.306,0,0,1-.975-1.345c-.007-1,0-2.01,0-3.015,0-.4.033-.36-.351-.355a7.075,7.075,0,0,1-4.779-1.695,3.829,3.829,0,0,0-2.495-.9c-1.41-.009-2.821,0-4.231-.007-.192,0-.24.052-.238.24.009,1.25,0,2.5.006,3.75a4.293,4.293,0,0,0,.54,2.109,4.718,4.718,0,0,0,4.4,2.553Q89.452,101.474,92.378,101.47Zm2.913-9.942a1.025,1.025,0,0,0,.07.112,3.381,3.381,0,0,1,.926,2.465c-.014,1.562,0,3.124,0,4.687,0,.351.16.514.507.515q1.52,0,3.04,0a.447.447,0,0,0,.509-.493c0-1.655.016-3.31-.006-4.965A2.271,2.271,0,0,0,98.442,91.6,25.275,25.275,0,0,0,95.292,91.528Zm-2.916,12.539h.861c1.645,0,3.291,0,4.936,0,.184,0,.246-.025.207-.232a2.531,2.531,0,0,0-.744-1.377.419.419,0,0,0-.316-.121q-4.937,0-9.873,0a.421.421,0,0,0-.315.125,2.553,2.553,0,0,0-.734,1.328c-.048.22-.007.281.231.28C88.545,104.063,90.46,104.067,92.376,104.067ZM83.457,91.959c.861,0,1.722,0,2.583,0a4.658,4.658,0,0,1,3.073,1.106,6.19,6.19,0,0,0,3.993,1.481c.586.005.586,0,.568-.586A.635.635,0,0,0,93,93.265a5,5,0,0,1-3.073-1.194,5.738,5.738,0,0,0-3.614-1.385c-1.662-.032-3.326,0-4.988-.024a.944.944,0,0,0-1.061,1.073c.009.2.076.229.251.228C81.5,91.955,82.477,91.959,83.457,91.959Zm5.808-10.673c-.267-.258-.516-.485-.75-.727a2.277,2.277,0,0,0-1.724-.71c-.675,0-1.351.014-2.025,0a2.227,2.227,0,0,0-2.327,2.309c.036,2.354.011,4.709.011,7.064,0,.569,0,.556.558.574.247.008.306-.063.3-.307-.01-2.439.013-4.878-.015-7.317A1.373,1.373,0,0,1,84.755,80.7c.715.037,1.434.008,2.152.008a1.283,1.283,0,0,1,.913.371c.1.1.2.2.305.3.309.309.309.308.684.115C88.943,81.431,89.081,81.371,89.264,81.285Zm2.309,10.776a3.467,3.467,0,0,0,1.369.315,1.542,1.542,0,0,1,1.615,1.681q0,2.254,0,4.509c0,.672.08.751.762.739.049,0,.1-.01.153-.017a2.281,2.281,0,0,1-.061-.612c0-1.545,0-3.09,0-4.636a2.444,2.444,0,0,0-.771-1.884A2.35,2.35,0,0,0,91.573,92.062Zm-1.356-7.9c.607,0,1.214,0,1.821,0,.383,0,.373.064.3-.369A2.149,2.149,0,0,0,90.1,82.023a2.176,2.176,0,0,0-2.019,1.9c-.018.175.009.255.218.25C88.936,84.154,89.577,84.163,90.217,84.163Zm10.586,19.9c.439,0,.877,0,1.316,0,.067,0,.153.039.2-.059a.558.558,0,0,0-.489-.8c-.245,0-.489,0-.734,0a.446.446,0,0,1-.5-.5c0-.211,0-.422,0-.633,0-.119-.033-.144-.149-.1a5.246,5.246,0,0,1-1.547.342c-.2.012-.19.075-.1.224a3.162,3.162,0,0,1,.462,1.35c.017.167.084.186.221.185C99.926,104.064,100.364,104.067,100.8,104.067Zm-14.719-1.73a6.058,6.058,0,0,1-1.771-.375c-.1-.038-.144-.021-.139.091,0,.059,0,.118,0,.177,0,.975,0,.975-.987.975-.093,0-.186,0-.278,0a.569.569,0,0,0-.451.81c.032.056.082.05.13.05h2.758c.083,0,.142-.008.152-.116A3.585,3.585,0,0,1,86.084,102.337Zm16.75-7.791c.488,0,.977-.005,1.465,0,.154,0,.218-.04.2-.2-.011-.091,0-.186-.007-.278a.822.822,0,0,0-.72-.793c-.833-.025-1.667-.011-2.5-.014-.083,0-.125.024-.1.119a4.163,4.163,0,0,1,.036.957c0,.172.058.211.218.208C101.89,94.54,102.362,94.546,102.834,94.546Z" fill="#008838"/>
    <path id="Path_2143" data-name="Path 2143" d="M196.247,181.635c-.022.067-.045.148-.076.226q-.393.986-.789,1.971c-.128.318-.346.441-.6.346s-.334-.345-.21-.659c.27-.681.544-1.361.816-2.041a.425.425,0,0,1,.449-.3.413.413,0,0,1,.385.316C196.231,181.535,196.236,181.577,196.247,181.635Z" transform="translate(-107.307 -95.274)" fill="#008838"/>
    <path id="Path_2144" data-name="Path 2144" d="M258.707,181.09a.454.454,0,0,1,.422.29c.286.711.573,1.421.85,2.135a.434.434,0,1,1-.806.321c-.291-.709-.577-1.419-.852-2.134A.435.435,0,0,1,258.707,181.09Z" transform="translate(-166.765 -95.193)" fill="#008838"/>
    <path id="Path_2145" data-name="Path 2145" d="M233.566,182.64c0,.345,0,.691,0,1.036a.426.426,0,0,1-.446.469.418.418,0,0,1-.419-.466q-.008-1.036,0-2.072a.436.436,0,1,1,.865,0C233.569,181.95,233.566,182.3,233.566,182.64Z" transform="translate(-142.906 -95.219)" fill="#008838"/>
    <path id="Path_2146" data-name="Path 2146" d="M124.14,335.019c0-.051,0-.1,0-.152a.436.436,0,1,1,.868-.01,3.028,3.028,0,0,0,2.832,2.975c.452.033.641.177.618.49s-.269.438-.694.393a3.893,3.893,0,0,1-3.582-3.294C124.158,335.289,124.154,335.153,124.14,335.019Z" transform="translate(-41.699 -238.109)" fill="#008838"/>
  </g>
</svg>
