<svg id="Component_34_1" data-name="Component 34 – 1" xmlns="http://www.w3.org/2000/svg" width="50" height="50" viewBox="0 0 50 50">
  <circle id="Ellipse_49" data-name="Ellipse 49" cx="25" cy="25" r="25" fill="#fe0"/>
  <g id="Group_844" data-name="Group 844" transform="translate(-59.453 -69.458)">
    <path id="Path_2151" data-name="Path 2151" d="M73.307,144.472a1.114,1.114,0,0,1-.62-1.153c.016-4.57.007-9.14.015-13.71,0-.247-.063-.313-.307-.307a.875.875,0,0,1-.946-.607.892.892,0,0,1,.412-1.029q4.232-3.132,8.466-6.261a.872.872,0,0,1,1.184-.013q1.371,1.005,2.734,2.02a.461.461,0,0,1,.167.657c-.158.227-.416.249-.689.048q-1.307-.964-2.608-1.936c-.121-.09-.206-.129-.35-.022q-4.156,3.085-8.32,6.159c-.026.019-.049.043-.126.111h7.4c.361,0,.556.16.55.448a.391.391,0,0,1-.339.411,1.691,1.691,0,0,1-.328.019c-1.921,0-3.842,0-5.763,0-.217,0-.283.046-.283.276q.012,6.88,0,13.76c0,.2.038.272.258.271q3.859-.012,7.718,0c.214,0,.264-.059.263-.267-.01-1.2-.008-2.4,0-3.605a2.6,2.6,0,0,1,5.144-.586,3.212,3.212,0,0,1,.069.731c0,1.142.008,2.285-.007,3.427,0,.253.072.32.312.3a4.564,4.564,0,0,1,.736,0c.2.016.251-.057.25-.253-.008-1.642,0-3.284,0-4.925q0-1.168,0-2.336c0-.338.166-.532.444-.528s.425.191.425.519c0,2.488,0,4.976,0,7.464a.985.985,0,0,1-.623.92Zm12.808-2.981c0-.583,0-1.167,0-1.75a1.8,1.8,0,0,0-.083-.573,1.729,1.729,0,0,0-3.371.6c-.012,1.209,0,2.418-.006,3.627,0,.158.035.221.209.22q1.522-.012,3.043,0c.171,0,.213-.055.211-.217C86.11,142.759,86.115,142.125,86.115,141.491Z" transform="translate(0 -37.039)" fill="#008838"/>
    <path id="Path_2152" data-name="Path 2152" d="M230.069,84.327c-.061.182-.115.366-.183.545a2.67,2.67,0,0,1-.741,1.014q-2.3,2.09-4.6,4.182a.279.279,0,0,0-.089.379,2.962,2.962,0,0,1-.573,3.295,1.752,1.752,0,0,1-.718.588c-.088.029-.086.115-.105.187-.2.767-.41,1.532-.6,2.3a.841.841,0,0,1-.369.518,2.8,2.8,0,0,1-2.049.371,7.25,7.25,0,0,1-6.139-5.6,4.236,4.236,0,0,1-.02-2.083,2.439,2.439,0,0,1,.188-.468.939.939,0,0,1,.668-.524c.756-.175,1.5-.39,2.253-.59a.278.278,0,0,0,.2-.131,3.074,3.074,0,0,1,1.94-1.439,2.865,2.865,0,0,1,1.955.184.243.243,0,0,0,.339-.078c1.351-1.493,2.712-2.978,4.061-4.474a2.878,2.878,0,0,1,1.611-1.028,2.506,2.506,0,0,1,2.923,1.9c.015.065.038.128.057.192Zm-9.615,12.549a2.943,2.943,0,0,0,.948-.149.35.35,0,0,0,.239-.266c.188-.736.379-1.471.581-2.2a.258.258,0,0,0-.08-.289q-2.31-2.3-4.614-4.614a.256.256,0,0,0-.29-.074c-.707.2-1.415.39-2.129.559a.455.455,0,0,0-.374.354,3.371,3.371,0,0,0-.018,1.557c.032.181.08.225.26.171.428-.129.862-.239,1.294-.354a.451.451,0,0,1,.621.3c.062.239-.079.445-.381.532-.421.122-.843.244-1.269.345-.2.047-.208.114-.13.285a7.5,7.5,0,0,0,.907,1.491c.113.145.179.169.319.021.407-.43.829-.846,1.255-1.259a.432.432,0,0,1,.749.157.469.469,0,0,1-.166.5c-.413.413-.823.828-1.241,1.236-.1.1-.137.159,0,.268a7.589,7.589,0,0,0,1.576.961c.166.076.2,0,.23-.127.115-.432.23-.864.353-1.294.085-.3.294-.441.533-.378.273.072.386.3.3.622q-.176.66-.359,1.319c-.034.124-.034.209.132.226C219.978,96.8,220.253,96.848,220.453,96.876ZM227.57,82.3a1.63,1.63,0,0,0-1.178.51q-2.155,2.359-4.3,4.726c-.1.11-.085.167.013.263q.8.791,1.6,1.6c.109.111.17.11.282.005.576-.535,1.161-1.06,1.743-1.589.976-.887,1.955-1.77,2.927-2.662a1.623,1.623,0,0,0,.435-1.806A1.651,1.651,0,0,0,227.57,82.3Zm-7.739,5.369a2.15,2.15,0,0,0-1.586.688c-.24.241-.242.239-.01.472l4.446,4.446c.042.042.086.081.125.126.061.071.108.072.187.009a2.2,2.2,0,0,0,.242-3.236c-.623-.655-1.269-1.289-1.917-1.919A2.053,2.053,0,0,0,219.831,87.668Z" transform="translate(-132.691 0)" fill="#008838"/>
    <path id="Path_2153" data-name="Path 2153" d="M127.338,358.7c0,.693,0,1.387,0,2.08,0,.355-.15.516-.506.517q-2.093.007-4.186,0c-.354,0-.515-.161-.516-.514q-.007-2.093,0-4.186c0-.354.165-.5.525-.5q2.08,0,4.16,0c.372,0,.521.15.522.522C127.34,357.317,127.338,358.01,127.338,358.7Zm-1.482.439h-.063c-.619,0-.623,0-.618.616,0,.21-.09.479.038.614s.415.047.631.05c.629.007.633,0,.627-.625,0-.209.092-.476-.041-.611S126.027,359.165,125.856,359.142Zm.616-1.539c0-.638,0-.641-.64-.637-.209,0-.477-.089-.612.037s-.043.4-.045.608c-.006.646,0,.646.641.646S126.472,358.258,126.472,357.6Zm-2.176,0c0-.636,0-.64-.617-.633-.216,0-.5-.1-.628.049-.106.125-.036.4-.037.612,0,.629,0,.629.63.629C124.3,358.258,124.3,358.258,124.3,357.6Zm0,2.188c0-.646,0-.65-.629-.644-.208,0-.475-.091-.609.04s-.04.4-.042.607c-.006.633,0,.633.641.633S124.3,360.424,124.3,359.789Z" transform="translate(-47.279 -256.033)" fill="#008838"/>
    <path id="Path_2154" data-name="Path 2154" d="M124.744,260.288c.693,0,1.387,0,2.08,0,.37,0,.517.151.518.526q0,2.067,0,4.135c0,.386-.146.539-.535.54q-2.067.005-4.135,0c-.383,0-.537-.158-.538-.545q-.005-2.055,0-4.109c0-.4.15-.546.556-.547Q123.717,260.287,124.744,260.288Zm.433,3.684c0,.64,0,.64.645.64h.025c.628,0,.632,0,.626-.629,0-.209.093-.477-.042-.61s-.4-.039-.611-.041C125.178,263.326,125.178,263.33,125.178,263.972Zm0-2.183c0,.657,0,.657.657.657.642,0,.646,0,.639-.643,0-.208.093-.477-.042-.608s-.4-.038-.61-.039C125.178,261.149,125.178,261.153,125.178,261.789Zm-.871,0c-.033-.2.091-.48-.055-.6-.122-.1-.386-.041-.587-.036s-.479-.095-.608.043-.035.4-.037.612c0,.634,0,.638.623.632.209,0,.476.089.612-.04S124.277,262,124.307,261.792Zm-.006,2.183c0-.645,0-.649-.63-.643-.208,0-.475-.091-.608.04s-.039.4-.042.607c-.006.632,0,.632.642.632S124.3,264.612,124.3,263.975Z" transform="translate(-47.283 -166.721)" fill="#008838"/>
    <path id="Path_2155" data-name="Path 2155" d="M251.37,90.738a1.5,1.5,0,0,1-1.518-1.506,1.519,1.519,0,0,1,1.523-1.533,1.541,1.541,0,0,1,1.516,1.526A1.524,1.524,0,0,1,251.37,90.738Zm0-.873a.634.634,0,0,0,.634-.646.621.621,0,0,0-.642-.633.645.645,0,0,0-.643.642A.653.653,0,0,0,251.369,89.866Z" transform="translate(-166.339 -5.841)" fill="#008838"/>
    <path id="Path_2156" data-name="Path 2156" d="M358.418,306.5a1.508,1.508,0,0,1,1.5-1.523,1.519,1.519,0,1,1-1.5,1.523Zm1.508.633a.639.639,0,1,0,.014-1.279.639.639,0,1,0-.014,1.279Z" transform="translate(-267.539 -208.378)" fill="#008838"/>
    <path id="Path_2157" data-name="Path 2157" d="M145.485,118.1a.489.489,0,0,1-.32-.141c-.2-.2-.411-.4-.608-.607a.426.426,0,0,1-.014-.648.433.433,0,0,1,.631.033c.213.2.422.412.624.627a.4.4,0,0,1,.079.468A.455.455,0,0,1,145.485,118.1Z" transform="translate(-68.042 -32.768)" fill="#008838"/>
    <path id="Path_2158" data-name="Path 2158" d="M116.668,116.528a.415.415,0,0,1,.413.231.367.367,0,0,1-.04.449,10.123,10.123,0,0,1-.753.75.387.387,0,0,1-.551-.037.414.414,0,0,1-.053-.554c.243-.269.507-.52.768-.771A.266.266,0,0,1,116.668,116.528Z" transform="translate(-41.196 -32.712)" fill="#008838"/>
    <path id="Path_2159" data-name="Path 2159" d="M116.118,87.909c.265.006,1.07.8,1.066,1.064a.416.416,0,0,1-.238.39.388.388,0,0,1-.452-.037q-.381-.352-.733-.734a.384.384,0,0,1-.035-.452A.409.409,0,0,1,116.118,87.909Z" transform="translate(-41.26 -6.037)" fill="#008838"/>
    <path id="Path_2160" data-name="Path 2160" d="M144.754,89.343a.446.446,0,0,1-.414-.241.378.378,0,0,1,.04-.45c.234-.255.477-.5.732-.735a.416.416,0,0,1,.556.028.383.383,0,0,1,.076.527,4.945,4.945,0,0,1-.8.8A.526.526,0,0,1,144.754,89.343Z" transform="translate(-67.934 -5.957)" fill="#008838"/>
    <path id="Path_2161" data-name="Path 2161" d="M423.045,260.29c.152,0,.3-.007.457,0a.429.429,0,0,1,0,.857c-.3.01-.609.01-.913,0a.429.429,0,0,1,0-.857C422.74,260.283,422.892,260.29,423.045,260.29Z" transform="translate(-326.965 -166.721)" fill="#008838"/>
    <path id="Path_2162" data-name="Path 2162" d="M409.36,235.631c0-.144-.009-.288,0-.431a.428.428,0,0,1,.429-.413.4.4,0,0,1,.434.4,8.474,8.474,0,0,1,0,.938.405.405,0,0,1-.418.392.436.436,0,0,1-.442-.4c-.015-.159,0-.321,0-.482Z" transform="translate(-315.022 -142.95)" fill="#008838"/>
    <path id="Path_2163" data-name="Path 2163" d="M384.753,261.117c-.144,0-.288.006-.431,0a.43.43,0,0,1-.415-.428.42.42,0,0,1,.41-.43c.3-.01.609-.01.913,0a.407.407,0,0,1,.41.425.42.42,0,0,1-.4.434c-.017,0-.034,0-.051,0Z" transform="translate(-291.299 -166.686)" fill="#008838"/>
    <path id="Path_2164" data-name="Path 2164" d="M409.358,273.931c0-.144-.008-.288,0-.431a.435.435,0,0,1,.442-.429.408.408,0,0,1,.424.412,8.618,8.618,0,0,1,0,.912.4.4,0,0,1-.432.4.427.427,0,0,1-.432-.411c-.012-.151,0-.3,0-.456Z" transform="translate(-315.02 -178.637)" fill="#008838"/>
    <path id="Path_2165" data-name="Path 2165" d="M263.49,401.7a4.341,4.341,0,0,1,0,.481.422.422,0,0,1-.424.391.428.428,0,0,1-.433-.386,7.867,7.867,0,0,1,0-.963.415.415,0,0,1,.429-.386.411.411,0,0,1,.429.382A4.391,4.391,0,0,1,263.49,401.7Z" transform="translate(-178.236 -297.735)" fill="#008838"/>
  </g>
</svg>
