<svg id="Component_33_1" data-name="Component 33 – 1" xmlns="http://www.w3.org/2000/svg" width="321" height="170.02" viewBox="0 0 321 170.02">
  <rect id="Rectangle_24" data-name="Rectangle 24" width="321" height="145" rx="29" transform="translate(0 25.02)" fill="#008838"/>
  <text id="Subscribe_to_Get_PREMIUM_SERVICES" data-name="Subscribe to Get
PREMIUM
SERVICES" transform="translate(291 74.02)" fill="#fe0" font-size="14" font-family="Rubik" font-weight="500"><tspan x="-112.181" y="0">Subscribe to Get</tspan><tspan fill="#fff" font-size="18"><tspan x="-82.596" y="18">PREMIUM</tspan><tspan x="-87.08" y="36">SERVICES</tspan></tspan></text>
  <text id="from_MR_KIM" data-name="from MR KIM" transform="translate(291 130.02)" fill="#fe0" font-size="15" font-family="Rubik" font-weight="600"><tspan x="-91.299" y="0">from MR KIM</tspan></text>
  <path id="Icon_awesome-long-arrow-alt-right" data-name="Icon awesome-long-arrow-alt-right" d="M11.922,12.92H.456A.456.456,0,0,0,0,13.376V15.5a.456.456,0,0,0,.456.456H11.922v1.749a.911.911,0,0,0,1.556.644l3.268-3.268a.911.911,0,0,0,0-1.289l-3.268-3.268a.911.911,0,0,0-1.556.644Z" transform="translate(274 124.762)" fill="#fff"/>
  <path id="Path_1138" data-name="Path 1138" d="M401.222,374.628c-4.632,5.657-7.115.612-1.33-9.478,2.209-3.851,1.4-4.069-.995-2.3,12.031-19.958,5.428-20.573-.48-13.264a7.2,7.2,0,0,1-2.6,2.209c1.85-3.176,3.639-6.543,5.332-10.09,13.113-27.485-5.327-18.761-19.459-8.963a5.02,5.02,0,0,0-1.788-6.1l1.083-1.372c21.517-27.226-10.9-9.789-20.448-5q.488-.631.976-1.259c.909-3.361.358-5.277-1.243-5.87-.563-2.272-4.25-1.8-8.863-.226,5.611-21.223-13.229-1.02-13.229-1.02-3.153,4.077-5.935,7.811-8.384,11.225-7.67,4.81-11.5,10.549-6.314-8.776,5.786-21.556-13.176-1.223-13.176-1.223-34.039,44.031-25.048,48.159-17.26,38.527,4.632-5.657,7.115-.612,1.329,9.478-2.209,3.851-1.4,4.07.995,2.3-12.031,19.958-5.429,20.573.481,13.264a7.2,7.2,0,0,1,2.6-2.209c-1.85,3.176-3.639,6.542-5.331,10.09-13.113,27.484,5.326,18.761,19.459,8.963a5.02,5.02,0,0,0,1.787,6.1L313.281,401c-21.516,27.226,10.9,9.79,20.448,5q-.488.631-.976,1.259c-.908,3.36-.358,5.277,1.243,5.87.564,2.272,4.25,1.8,8.863.227-5.612,21.223,13.228,1.02,13.228,1.02,3.153-4.077,5.935-7.811,8.384-11.225,7.669-4.81,11.5-10.549,6.314,8.776-5.786,21.556,13.175,1.223,13.175,1.223C418,369.125,409.01,365,401.222,374.628Z" transform="translate(-255.479 -275.262)" fill="#fff" opacity="0.238"/>
  <path id="Path_877" data-name="Path 877" d="M244.529,417.012c0,3.154-17.528,5.712-39.149,5.712s-39.149-2.558-39.149-5.712,17.527-5.712,39.149-5.712S244.529,413.857,244.529,417.012Z" transform="translate(-71.972 -258.772)" fill="#0b7436"/>
  <g id="Group_144" data-name="Group 144" transform="translate(115.113 97.794)">
    <path id="Path_878" data-name="Path 878" d="M213.586,322.295l20.889-12.005-.495-19.732-21.745,7.3Z" transform="translate(-212.236 -290.558)" fill="#6b6966"/>
  </g>
  <g id="Group_145" data-name="Group 145" transform="translate(95.891 105.095)">
    <rect id="Rectangle_39" data-name="Rectangle 39" width="21.597" height="24.862" rx="5.239" transform="translate(0 0)" fill="#6b6966"/>
  </g>
  <g id="Group_146" data-name="Group 146" transform="translate(95.891 99.702)">
    <path id="Path_879" data-name="Path 879" d="M169.832,304.513h21.6l20.854-9.6-21.1-.148-21.279,7.273Z" transform="translate(-169.832 -294.766)" fill="#5c5a58"/>
  </g>
  <g id="Group_147" data-name="Group 147" transform="translate(108.967 82.001)">
    <path id="Path_880" data-name="Path 880" d="M199.488,255.719l.45,7.7a5.756,5.756,0,0,0-1.23,2.553c-.223,1.41.854,5.066,1.893,5.14a37.083,37.083,0,0,0,6.354-.678c.371-.223-.247-2.491-.247-2.491s-.525-3.492-1.341-4.308,0-7.914,0-7.914Z" transform="translate(-198.679 -255.719)" fill="#ffb189"/>
  </g>
  <g id="Group_148" data-name="Group 148" transform="translate(94.733 104.595)">
    <path id="Path_881" data-name="Path 881" d="M187.235,305.56H169.584a2.3,2.3,0,0,0-2.307,2.306h22.265A2.306,2.306,0,0,0,187.235,305.56Z" transform="translate(-167.277 -305.56)" fill="#f90"/>
  </g>
  <g id="Group_149" data-name="Group 149" transform="translate(96.37 97.08)">
    <path id="Path_882" data-name="Path 882" d="M194.455,288.981,170.888,296.6l21.118,3.1,20.632-9.426Z" transform="translate(-170.888 -288.981)" fill="#f90"/>
  </g>
  <g id="Group_150" data-name="Group 150" transform="translate(94.259 106.554)">
    <path id="Path_883" data-name="Path 883" d="M189.881,310.5a.619.619,0,0,1-.619.619H166.849a.619.619,0,0,1-.618-.619h0a.618.618,0,0,1,.618-.618h22.413a.618.618,0,0,1,.619.618Z" transform="translate(-166.231 -309.883)" fill="#f90"/>
  </g>
  <g id="Group_151" data-name="Group 151" transform="translate(107.282 90.38)">
    <path id="Path_884" data-name="Path 884" d="M197.335,287.6H194.96v-5.792a4.517,4.517,0,0,1,3.15-4.163L210.3,274.2v8.645h-2.375V277.34l-9.167,2.592a2.125,2.125,0,0,0-1.421,1.878Z" transform="translate(-194.96 -274.201)" fill="#6b6966"/>
  </g>
  <g id="Group_152" data-name="Group 152" transform="translate(106.664 35.499)">
    <path id="Path_885" data-name="Path 885" d="M199.921,157.322c-2.49,3.524-7.1,22.314-6.212,27.806s2.4,16.179,2.4,16.179l7.253-.014s-1.359-18.794.57-21.169a37.236,37.236,0,0,0,2.769-3.768l7.223,23.912,15.437,2.227s3.513-24.59,12.616-32.7c0,0,.891-15.388-6.234-15.981S203.978,151.582,199.921,157.322Z" transform="translate(-193.597 -153.134)" fill="#ffed43"/>
  </g>
  <g id="Group_153" data-name="Group 153" transform="translate(116.997 49.087)">
    <path id="Path_886" data-name="Path 886" d="M246.126,291.068s-1.978-57.591-2.374-71.642,7.718-29.043,7.718-29.043-1.781-2.524-9.8-7.273l-24.728.33-.553,13.072s3.016,13.217,2.423,33.008-2.177,60.559-2.177,60.559l5.146-.593s5.731-64.517,9.689-60.955,10.3,62.539,10.3,62.539h4.353Z" transform="translate(-216.393 -183.109)" fill="#007a33"/>
  </g>
  <g id="Group_154" data-name="Group 154" transform="translate(117.505 34.831)">
    <path id="Path_887" data-name="Path 887" d="M225.189,152.329c.5-1.152-5.687-.7-6.58.477-1.809,2.375-.835,18.95-.835,18.95l5.71-3.365S222.418,158.693,225.189,152.329Z" transform="translate(-217.512 -151.661)" fill="#007a33"/>
  </g>
  <g id="Group_155" data-name="Group 155" transform="translate(126.545 27.048)">
    <path id="Path_888" data-name="Path 888" d="M248.89,143.22s-6.346,3.937-11.435.226l.481-5.421.065-.778.243-2.755H248.1l.422,4.643Z" transform="translate(-237.455 -134.492)" fill="#ffb189"/>
  </g>
  <g id="Group_156" data-name="Group 156" transform="translate(125.426 34.172)">
    <path id="Path_889" data-name="Path 889" d="M239.738,153.628l-3.508-3.42-1.245,1.616S235.187,153.183,239.738,153.628Z" transform="translate(-234.986 -150.208)" fill="#006320"/>
  </g>
  <g id="Group_157" data-name="Group 157" transform="translate(130.178 34.172)">
    <path id="Path_890" data-name="Path 890" d="M253.126,150.208l-7.656,3.42a12.342,12.342,0,0,0,8.955-1.992Z" transform="translate(-245.47 -150.208)" fill="#006320"/>
  </g>
  <g id="Group_158" data-name="Group 158" transform="translate(126.545 27.048)">
    <path id="Path_891" data-name="Path 891" d="M248.521,139.135l-2.683.178c-4.869.178-7.048-.742-7.9-1.288a2.085,2.085,0,0,1-.481-.392l.546-.386c.8-.576,2.4-1.686,4.1-2.755h6Z" transform="translate(-237.455 -134.492)" fill="#e09c79"/>
  </g>
  <g id="Group_159" data-name="Group 159" transform="translate(123.242 5.265)">
    <path id="Path_892" data-name="Path 892" d="M230.168,91.432s.819,8.551.819,11.007-1.819,5.913,0,7.824,14.607,2.846,16.374-.978c1.281-2.772,1.91-10.575,0-19.308S230.168,91.432,230.168,91.432Z" transform="translate(-230.168 -86.439)" fill="#ffb189"/>
  </g>
  <g id="Group_160" data-name="Group 160" transform="translate(139.248 15.558)">
    <path id="Path_893" data-name="Path 893" d="M270.428,112.914c-.413,1.734-1.831,2.883-3.166,2.565s-2.084-1.982-1.67-3.716,1.83-2.883,3.166-2.565S270.841,111.18,270.428,112.914Z" transform="translate(-265.477 -109.145)" fill="#ffb189"/>
  </g>
  <g id="Group_161" data-name="Group 161" transform="translate(135.374 8.902)">
    <path id="Path_894" data-name="Path 894" d="M256.932,94.645s2.72,2.177,3.537,4.3c.569,1.482.654,5.831.654,5.831h.818s.065-3.527,1.26-3.614a32.7,32.7,0,0,0,.447-5.519C263.5,93.829,256.932,94.645,256.932,94.645Z" transform="translate(-256.932 -94.462)" fill="#5d4837"/>
  </g>
  <g id="Group_162" data-name="Group 162" transform="translate(122.955 1.247)">
    <path id="Path_895" data-name="Path 895" d="M248.67,88.514s1.794-7.853-2.115-9.288-14.868-2.966-15.808.25a51.036,51.036,0,0,0-1.212,9.038S235.413,78.18,248.67,88.514Z" transform="translate(-229.535 -77.576)" fill="#007a33"/>
  </g>
  <g id="Group_163" data-name="Group 163" transform="translate(113.479)">
    <path id="Path_896" data-name="Path 896" d="M236.146,86.574v0c-3.809-1.449-16.272-5.636-17.514,1.132l-.072-.029-.082-.033a.025.025,0,0,1-.019-.01c-.024-.01-.048-.02-.077-.029s-.029-.014-.048-.019c-.039-.019-.087-.039-.134-.058a.181.181,0,0,1-.048-.019c-1.794-.762-8.112-3.578-9.32-5.962v-.005a1.34,1.34,0,0,1,.024-1.448c1.976-2.883,13.263-6.063,16.549-5.085,5.315,1.583,11.661,11.718,11.834,12C237.192,86.987,236.794,86.819,236.146,86.574Z" transform="translate(-208.632 -74.824)" fill="#ffed43"/>
  </g>
  <g id="Group_164" data-name="Group 164" transform="translate(131.699 12.906)">
    <path id="Path_897" data-name="Path 897" d="M249.388,105.369a6.7,6.7,0,0,1,4.175.495s.758-.375.84-.6c.148-.4-1.884-2.359-4.651-1.9C248.158,103.631,249.026,105.443,249.388,105.369Z" transform="translate(-248.825 -103.295)" fill="#5d4837"/>
  </g>
  <g id="Group_165" data-name="Group 165" transform="translate(123.027 13.242)">
    <path id="Path_898" data-name="Path 898" d="M234.157,105.983a5.994,5.994,0,0,0-3.746.607s-.64-.375-.71-.6c-.125-.4,1.573-2.3,3.93-1.9C235.046,104.332,234.333,105.9,234.157,105.983Z" transform="translate(-229.695 -104.036)" fill="#5d4837"/>
  </g>
  <g id="Group_166" data-name="Group 166" transform="translate(128.225 15.44)">
    <path id="Path_899" data-name="Path 899" d="M242.667,109.5a26.549,26.549,0,0,1-.321,4.057s-1.583.594-1.088,2.053,2.518.569,2.573.519c.445-.4.584-4.064-.148-6.63C243.286,108.115,242.667,109.5,242.667,109.5Z" transform="translate(-241.162 -108.885)" fill="#ff9d6b"/>
  </g>
  <g id="Group_167" data-name="Group 167" transform="translate(128.225 22.928)">
    <path id="Path_900" data-name="Path 900" d="M247.782,126.441v.006a3.54,3.54,0,0,1-.2,1.033c-.005.018-.012.036-.017.053a.7.7,0,0,1-.048.119,2.481,2.481,0,0,1-1.859,1.609,4.259,4.259,0,0,1-3.354-.831,5.2,5.2,0,0,1-1.14-1.152s.3.006.772-.024c.095-.006.2-.012.3-.024a10.544,10.544,0,0,0,5.409-1.829S247.83,125.467,247.782,126.441Z" transform="translate(-241.162 -125.402)" fill="#5d4837"/>
  </g>
  <g id="Group_168" data-name="Group 168" transform="translate(134.196 16.658)">
    <path id="Path_901" data-name="Path 901" d="M255.88,112.524a.79.79,0,1,1-.773-.952A.877.877,0,0,1,255.88,112.524Z" transform="translate(-254.334 -111.572)" fill="#ad795e"/>
  </g>
  <g id="Group_169" data-name="Group 169" transform="translate(126.238 16.658)">
    <path id="Path_902" data-name="Path 902" d="M238.323,112.524a.79.79,0,1,1-.773-.952A.876.876,0,0,1,238.323,112.524Z" transform="translate(-236.777 -111.572)" fill="#ad795e"/>
  </g>
  <g id="Group_170" data-name="Group 170" transform="translate(141.589 16.733)">
    <path id="Path_903" data-name="Path 903" d="M270.7,114.872a.835.835,0,0,0,.344-1.1,5.824,5.824,0,0,1-.4-1.049s.658-1.558,1.363-.751a2.694,2.694,0,0,1-.278,3.108C271.143,115.474,270.621,115.6,270.7,114.872Z" transform="translate(-270.643 -111.736)" fill="#ff9d6b"/>
  </g>
  <g id="Group_171" data-name="Group 171" transform="translate(123.242 52.649)">
    <path id="Path_904" data-name="Path 904" d="M230.168,190.968h13.616S235.841,193.492,230.168,190.968Z" transform="translate(-230.168 -190.968)" fill="#006320"/>
  </g>
  <g id="Group_172" data-name="Group 172" transform="translate(111.846 92.253)">
    <path id="Path_905" data-name="Path 905" d="M205.029,283.481s1.51-.667.768-3.784c-.31-1.3,4.1-1.605,4.749-1.189,1.222.778.653,3.983-.366,4.466S205.029,283.481,205.029,283.481Z" transform="translate(-205.029 -278.334)" fill="#ffb189"/>
  </g>
  <g id="Group_173" data-name="Group 173" transform="translate(137.983 34.584)">
    <path id="Path_906" data-name="Path 906" d="M264.934,151.668c1.388-1.364,8.16.131,6.587.938-3.2,1.64-2.827,17.329-2.827,17.329l-5.937.792S262.082,154.471,264.934,151.668Z" transform="translate(-262.687 -151.116)" fill="#007a33"/>
  </g>
  <g id="Group_174" data-name="Group 174" transform="translate(106.664 154.175)">
    <path id="Path_907" data-name="Path 907" d="M204.243,415.088s-11.251,2.569-10.621,3.707,2.857,2.374,6.173,1.528c1.43-.364,5.611-1.742,6.254-1.691l.227.237,3.117-.3s.512-3.643.186-3.636S204.243,415.088,204.243,415.088Z" transform="translate(-193.597 -414.935)" fill="#1d1d1d"/>
  </g>
  <g id="Group_175" data-name="Group 175" transform="translate(141.833 154.175)">
    <path id="Path_908" data-name="Path 908" d="M276.623,415.088s11.252,2.569,10.621,3.707-2.857,2.374-6.172,1.528c-1.43-.364-5.611-1.742-6.254-1.691l-.227.237-3.117-.3s-.512-3.643-.186-3.636S276.623,415.088,276.623,415.088Z" transform="translate(-271.18 -414.935)" fill="#1d1d1d"/>
  </g>
  <g id="Group_176" data-name="Group 176" transform="translate(101.773 129.169)">
    <path id="Path_909" data-name="Path 909" d="M184.329,360.532a.761.761,0,0,1-.761.76h0a.76.76,0,0,1-.76-.76h0a.76.76,0,0,1,.76-.761h0a.761.761,0,0,1,.761.761Z" transform="translate(-182.808 -359.771)" fill="#6b6966"/>
  </g>
  <g id="Group_177" data-name="Group 177" transform="translate(105.929 129.169)">
    <path id="Path_910" data-name="Path 910" d="M193.5,360.532a.76.76,0,0,1-.761.76h0a.76.76,0,0,1-.76-.76h0a.76.76,0,0,1,.76-.761h0a.76.76,0,0,1,.761.761Z" transform="translate(-191.976 -359.771)" fill="#6b6966"/>
  </g>
  <g id="Group_178" data-name="Group 178" transform="translate(110.085 129.169)">
    <path id="Path_911" data-name="Path 911" d="M202.665,360.532a.76.76,0,0,1-.761.76h0a.76.76,0,0,1-.761-.76h0a.76.76,0,0,1,.761-.761h0a.761.761,0,0,1,.761.761Z" transform="translate(-201.144 -359.771)" fill="#6b6966"/>
  </g>
  <g id="Group_179" data-name="Group 179" transform="translate(98.872 112.467)">
    <rect id="Rectangle_40" data-name="Rectangle 40" width="15.634" height="13.111" fill="#5c5a58"/>
  </g>
  <g id="Group_180" data-name="Group 180" transform="translate(128.997 22.928)">
    <path id="Path_912" data-name="Path 912" d="M248.713,126.441v.006a3.539,3.539,0,0,1-.2,1.033c-.005.018-.012.036-.017.053a10.252,10.252,0,0,1-2.334.255,9.66,9.66,0,0,1-3.3-.534c.095-.006.2-.012.3-.024a10.544,10.544,0,0,0,5.409-1.829S248.76,125.467,248.713,126.441Z" transform="translate(-242.864 -125.402)" fill="#fff"/>
  </g>
  <g id="Group_181" data-name="Group 181" transform="translate(123.205 53.21)">
    <path id="Path_913" data-name="Path 913" d="M230.124,192.766s-.386,10.258,1.346,11.2,10.934,1.435,11.627.248.643-12.006.643-12.006-.538,11.611-1.976,11.858S231.152,204.377,230.124,192.766Z" transform="translate(-230.087 -192.205)" fill="#006320"/>
  </g>
  <g id="Group_182" data-name="Group 182" transform="translate(107.469 77.718)">
    <path id="Path_914" data-name="Path 914" d="M197.079,252.791s7.951-.073,7.823-.618.475-5.739,0-5.739-9.529-.544-9.529.346S196.409,252.8,197.079,252.791Z" transform="translate(-195.373 -246.269)" fill="#006320"/>
  </g>
  <path id="Path_915" data-name="Path 915" d="M203.905,274.693s2.039,3.6.85,4.457c-.594.428,3.087,1.012,2.787-1.267a24.645,24.645,0,0,0-.958-4.277,5.071,5.071,0,0,0-1.829-2.365C204.065,270.857,203.217,273.2,203.905,274.693Z" transform="translate(-92.429 -182.18)" fill="#ffb189"/>
  <path id="Path_916" data-name="Path 916" d="M237.2,280.758s-3.358-2.789-3.437-2.457-7.236,61.922-7.236,61.922h1.056s7.521-55.868,9.349-59.349Z" transform="translate(-104.934 -186.048)" fill="#006320"/>
  <path id="Path_917" data-name="Path 917" d="M276.739,289.4s-4.733-63.59-4.115-66.308,1.411-37.781,1.411-37.781,4.823,8.22,5.514,11.964c.385,2.085-3.874,11.262-4.131,18.46s1.965,73.818,1.965,73.818Z" transform="translate(-130.106 -135.229)" fill="#006320"/>
  <g id="Group_183" data-name="Group 183" transform="translate(143.125 90.445)">
    <rect id="Rectangle_41" data-name="Rectangle 41" width="23.854" height="2.375" transform="translate(0 4.077) rotate(-9.841)" fill="#6b6966"/>
  </g>
  <g id="Group_184" data-name="Group 184" transform="translate(151.558 81.482)">
    <path id="Path_918" data-name="Path 918" d="M295,254.572l-.05,6.7s-2.078,3.34-2.3,4.75,1.632,4.825,2.671,4.9a27.468,27.468,0,0,0,5.768-1.111c.371-.223,1.163-3.119,1.163-3.119s-.251-2.969-1.068-3.785.05-8.242.05-8.242Z" transform="translate(-292.635 -254.572)" fill="#ffb189"/>
  </g>
  <g id="Group_185" data-name="Group 185" transform="translate(143.813 36.366)">
    <path id="Path_919" data-name="Path 919" d="M275.663,168.768s6.31,9.693,7.63,19.879c1.253,9.675,1.314,11.6,1.314,11.6h7.956s1.039-6.8-.8-19.147c-1.71-11.47-4.477-23.1-8.783-25.3C274.035,151.243,275.663,168.768,275.663,168.768Z" transform="translate(-275.547 -155.047)" fill="#ffed43"/>
  </g>
  <g id="Group_186" data-name="Group 186" transform="translate(136.47 91.598)">
    <path id="Path_920" data-name="Path 920" d="M267.926,279.478a4.488,4.488,0,0,0-4.075-2.588,4.218,4.218,0,0,0-.8.073,4.5,4.5,0,0,0-3.363,6.142.726.726,0,0,0,.054.122,2.569,2.569,0,0,0,.177.354,3.489,3.489,0,0,0,.281.444,4.488,4.488,0,0,0,3.649,1.868,4.506,4.506,0,0,0,4.479-4.071c.014-.141.023-.286.023-.431A4.49,4.49,0,0,0,267.926,279.478ZM265.66,282.5a2.123,2.123,0,0,1-3.934-1.111,2.081,2.081,0,0,1,.213-.92,2.121,2.121,0,0,1,1.913-1.206,2.042,2.042,0,0,1,.558.077,2.081,2.081,0,0,1,1.129.757,2.107,2.107,0,0,1,.44,1.292A2.06,2.06,0,0,1,265.66,282.5Z" transform="translate(-259.35 -276.89)" fill="#6b6966"/>
  </g>
  <g id="Group_187" data-name="Group 187" transform="translate(164.825 87.111)">
    <path id="Path_921" data-name="Path 921" d="M326.406,266.99a4.509,4.509,0,0,0-4.42,3.631,4.23,4.23,0,0,0-.086.87,4.384,4.384,0,0,0,.263,1.509,4.505,4.505,0,0,0,4.243,2.992,4.451,4.451,0,0,0,1.02-.118l-1.3-2.276a2.126,2.126,0,1,1,2.4-2.108,2.1,2.1,0,0,1-.1.657l1.333,2.339a4.5,4.5,0,0,0-3.354-7.5Z" transform="translate(-321.9 -266.99)" fill="#6b6966"/>
  </g>
  <g id="Group_188" data-name="Group 188" transform="translate(136.335 89.061)">
    <rect id="Rectangle_42" data-name="Rectangle 42" width="2.709" height="6.402" transform="translate(0 1.34) rotate(-29.656)" fill="#007a33"/>
  </g>
  <g id="Group_189" data-name="Group 189" transform="translate(152.004 76.433)">
    <path id="Path_922" data-name="Path 922" d="M294.486,249.707s-1.162-5.274-.8-5.348,9.819-1.664,10.017-.5-.3,6.209-1.336,6.376S294.486,249.707,294.486,249.707Z" transform="translate(-293.617 -243.435)" fill="#006320"/>
  </g>
  <g id="Group_194" data-name="Group 194" transform="translate(118.585 76.539)">
    <g id="Group_190" data-name="Group 190">
      <path id="Path_923" data-name="Path 923" d="M220.278,243.742s10.809,4.524,27.266,0c0,0,.153,5.767-.689,5.941s-11.056,4-26.577-.514C220.278,249.168,219.419,242.932,220.278,243.742Z" transform="translate(-219.896 -243.669)" fill="#723400"/>
    </g>
    <g id="Group_192" data-name="Group 192" transform="translate(8.243 1.75)">
      <g id="Group_191" data-name="Group 191">
        <path id="Path_924" data-name="Path 924" d="M245.75,247.793a1.8,1.8,0,0,0-.943-.263h-4.891a1.8,1.8,0,0,0-.766.168,1.834,1.834,0,0,0-1.07,1.668v2.525a1.836,1.836,0,0,0,1.836,1.836h4.891a1.821,1.821,0,0,0,.938-.258,1.735,1.735,0,0,0,.5-.44,1.814,1.814,0,0,0,.394-1.138v-2.525A1.824,1.824,0,0,0,245.75,247.793Zm-5.834,4.71a.6.6,0,0,1-.594-.476.448.448,0,0,1-.018-.136v-2.525a.609.609,0,0,1,.612-.612h4.891a.609.609,0,0,1,.612.612v2.525a.609.609,0,0,1-.612.612Z" transform="translate(-238.08 -247.53)" fill="#aba8a3"/>
      </g>
    </g>
    <g id="Group_193" data-name="Group 193" transform="translate(14.163 4.491)">
      <path id="Path_925" data-name="Path 925" d="M253.3,254.024a.445.445,0,0,1-.446.445h-1.264a.446.446,0,0,1-.447-.445h0a.446.446,0,0,1,.447-.447h1.264a.446.446,0,0,1,.446.447Z" transform="translate(-251.141 -253.577)" fill="#aba8a3"/>
    </g>
  </g>
  <path id="Path_926" data-name="Path 926" d="M236.335,87.49c-3.809-1.449-16.271-5.636-17.514,1.132l-.072-.029c-.019-.009-.048-.019-.082-.033a.025.025,0,0,1-.019-.01c-.024-.01-.048-.02-.077-.029s-.029-.014-.048-.019c-.039-.019-.087-.039-.134-.058a.179.179,0,0,1-.048-.019c-1.866-.772-8.553-3.674-9.32-5.962v0c-.883-2.662,11.766-6.384,15.647-5.909C228.491,77.018,236.123,87.207,236.335,87.49Z" transform="translate(-95.341 -75.744)" fill="#007a33"/>
  <g id="Group_521" data-name="Group 521" transform="translate(18.172 5.749)">
    <path id="Path_968" data-name="Path 968" d="M445.334,427.385c0,1.15,6.89,2.08,15.389,2.08s15.39-.931,15.39-2.08-6.891-2.079-15.39-2.079S445.334,426.237,445.334,427.385Z" transform="translate(-402.598 -277.013)" fill="#c2c3c8" style="mix-blend-mode: multiply;isolation: isolate"/>
    <ellipse id="Ellipse_16" data-name="Ellipse 16" cx="15.39" cy="5.119" rx="15.39" ry="5.119" transform="translate(67.622 138.452)" fill="#c2c3c8" style="mix-blend-mode: multiply;isolation: isolate"/>
    <path id="Path_969" data-name="Path 969" d="M387.258,426.24c0,.651,5.529,1.18,12.351,1.18s12.351-.529,12.351-1.18-5.529-1.18-12.351-1.18S387.258,425.589,387.258,426.24Z" transform="translate(-369.35 -276.873)" fill="#c2c3c8" style="mix-blend-mode: multiply;isolation: isolate"/>
    <g id="Group_518" data-name="Group 518" transform="translate(0 0)">
      <g id="Group_225" data-name="Group 225" transform="translate(69.717 77.077)">
        <g id="Group_211" data-name="Group 211" transform="translate(5.393 55.847)">
          <path id="Path_970" data-name="Path 970" d="M521.063,390.428h15.71l-1.475-1.074H522.539Z" transform="translate(-521.063 -389.354)" fill="#c55262"/>
        </g>
        <g id="Group_212" data-name="Group 212" transform="translate(5.393 56.921)">
          <rect id="Rectangle_43" data-name="Rectangle 43" width="15.71" height="1.265" fill="#ae4957"/>
        </g>
        <g id="Group_221" data-name="Group 221" transform="translate(10.31)">
          <g id="Group_213" data-name="Group 213" transform="translate(1.562)">
            <path id="Path_971" data-name="Path 971" d="M536.22,260.1a1.375,1.375,0,1,0,1.375-1.376A1.375,1.375,0,0,0,536.22,260.1Zm.512,0a.863.863,0,1,1,.863.863A.863.863,0,0,1,536.732,260.1Z" transform="translate(-536.22 -258.72)" fill="#69262c"/>
          </g>
          <g id="Group_217" data-name="Group 217" transform="translate(1.831 2.272)">
            <g id="Group_214" data-name="Group 214">
              <rect id="Rectangle_44" data-name="Rectangle 44" width="2.212" height="51.679" fill="#bfbfc2"/>
            </g>
            <g id="Group_215" data-name="Group 215">
              <rect id="Rectangle_45" data-name="Rectangle 45" width="0.65" height="51.679" fill="#f8f8f8"/>
            </g>
            <g id="Group_216" data-name="Group 216" transform="translate(1.533)">
              <rect id="Rectangle_46" data-name="Rectangle 46" width="0.679" height="51.679" fill="#959395"/>
            </g>
          </g>
          <g id="Group_218" data-name="Group 218" transform="translate(0 55.734)">
            <path id="Path_972" data-name="Path 972" d="M533.41,389.091H537.6a.844.844,0,0,1,.844.844h-5.875A.844.844,0,0,1,533.41,389.091Z" transform="translate(-532.566 -389.091)" fill="#98323e"/>
          </g>
          <g id="Group_219" data-name="Group 219" transform="translate(1.153 53.819)">
            <rect id="Rectangle_47" data-name="Rectangle 47" width="3.568" height="2.028" fill="#98323e"/>
          </g>
          <g id="Group_220" data-name="Group 220" transform="translate(1.366 2.272)">
            <rect id="Rectangle_48" data-name="Rectangle 48" width="3.143" height="0.957" fill="#98323e"/>
          </g>
        </g>
        <g id="Group_222" data-name="Group 222" transform="translate(0 57.203)">
          <path id="Path_973" data-name="Path 973" d="M508.449,402.7l5.117-10.17h16.261l5.117,10.17-6.208-6.131H514.719Z" transform="translate(-508.449 -392.526)" fill="#c55262"/>
        </g>
        <g id="Group_223" data-name="Group 223" transform="translate(5.117 57.203)">
          <path id="Path_974" data-name="Path 974" d="M521.326,396.5h14.445l.908-3.976H520.418Z" transform="translate(-520.418 -392.526)" fill="#98323e"/>
        </g>
        <g id="Group_224" data-name="Group 224" transform="translate(0 61.179)">
          <path id="Path_975" data-name="Path 975" d="M508.449,408.02h26.5l-6.025-6.194H514.474Z" transform="translate(-508.449 -401.826)" fill="#ae4957"/>
        </g>
      </g>
      <g id="Group_354" data-name="Group 354">
        <g id="Group_230" data-name="Group 230" transform="translate(40.14)">
          <g id="Group_226" data-name="Group 226">
            <path id="Path_976" data-name="Path 976" d="M440.133,78.656c4.469-1.806,7.521,7.609,7.521,7.609S436.05,80.725,440.133,78.656Z" transform="translate(-439.262 -78.425)" fill="#394b68"/>
          </g>
          <g id="Group_227" data-name="Group 227" transform="translate(2.304 1.646)">
            <path id="Path_977" data-name="Path 977" d="M445.025,82.364c2.355-.952,5.714,6.1,5.714,6.1S442.873,83.453,445.025,82.364Z" transform="translate(-444.652 -82.275)" fill="#2e3d56"/>
          </g>
          <g id="Group_228" data-name="Group 228" transform="translate(10.011)">
            <path id="Path_978" data-name="Path 978" d="M470.2,78.656c-4.469-1.806-7.521,7.609-7.521,7.609S474.283,80.725,470.2,78.656Z" transform="translate(-462.679 -78.425)" fill="#394b68"/>
          </g>
          <g id="Group_229" data-name="Group 229" transform="translate(10.011 1.646)">
            <path id="Path_979" data-name="Path 979" d="M468.394,82.364c-2.356-.952-5.715,6.1-5.715,6.1S470.546,83.453,468.394,82.364Z" transform="translate(-462.679 -82.275)" fill="#2e3d56"/>
          </g>
        </g>
        <g id="Group_231" data-name="Group 231" transform="translate(47.306 5.157)">
          <path id="Path_980" data-name="Path 980" d="M456.025,92.832a2.342,2.342,0,1,0,2.342-2.343A2.342,2.342,0,0,0,456.025,92.832Z" transform="translate(-456.025 -90.489)" fill="#2e3d56"/>
        </g>
        <g id="Group_234" data-name="Group 234" transform="translate(37.123 6.464)">
          <g id="Group_232" data-name="Group 232" transform="translate(11.836)">
            <path id="Path_981" data-name="Path 981" d="M472.837,111.081c-.283.073,3.921-23.622-12.945-16.036,8.9,4.608,12.662,16.109,12.662,16.109" transform="translate(-459.892 -93.547)" fill="#394b68"/>
          </g>
          <g id="Group_233" data-name="Group 233">
            <path id="Path_982" data-name="Path 982" d="M432.714,111.081c.283.073-4.809-23.622,12.057-16.036C435.873,99.652,433,111.154,433,111.154" transform="translate(-432.205 -93.547)" fill="#394b68"/>
          </g>
        </g>
        <g id="Group_235" data-name="Group 235" transform="translate(49.648 23.999)">
          <path id="Path_983" data-name="Path 983" d="M473.024,134.562s-2.012,13.124,4.407,14.709c-1.062,1.289-8.755,4.837-15.927.685Z" transform="translate(-461.504 -134.562)" fill="#1d1100"/>
        </g>
        <g id="Group_236" data-name="Group 236" transform="translate(34.852 23.999)">
          <path id="Path_984" data-name="Path 984" d="M431.3,134.562s2.011,13.124-4.408,14.709c1.063,1.289,8.755,4.837,15.928.685Z" transform="translate(-426.894 -134.562)" fill="#1d1100"/>
        </g>
        <g id="Group_237" data-name="Group 237" transform="translate(56.831 147.801)">
          <path id="Path_985" data-name="Path 985" d="M482,424.155l7.426,1.577v1.775H478.306v-3.352Z" transform="translate(-478.306 -424.155)" fill="#d9d9d9"/>
        </g>
        <g id="Group_238" data-name="Group 238" transform="translate(50.17 96.209)">
          <path id="Path_986" data-name="Path 986" d="M477.117,303.473l-1.973,24.149-2.069,27.185a2.264,2.264,0,0,1-3.722,0l-2.367-16.167.888-11.019-5.15-24.149Z" transform="translate(-462.724 -303.473)" fill="#4d808c"/>
        </g>
        <g id="Group_239" data-name="Group 239" transform="translate(50.17 96.466)" style="mix-blend-mode: multiply;isolation: isolate">
          <path id="Path_987" data-name="Path 987" d="M469.92,304.074l2.686,24.051-1.658,28.206a5.115,5.115,0,0,1-1.6-.922l-2.367-16.167.888-11.018-5.15-24.15Z" transform="translate(-462.724 -304.074)" fill="#d7d8dc"/>
        </g>
        <g id="Group_243" data-name="Group 243" transform="translate(41.972 96.466)">
          <g id="Group_240" data-name="Group 240" transform="translate(2.202 51.335)">
            <path id="Path_988" data-name="Path 988" d="M450.654,424.155h2.582l1.873,1.577v1.775H448.7v-1.775Z" transform="translate(-448.699 -424.155)" fill="#d9d9d9"/>
          </g>
          <g id="Group_241" data-name="Group 241">
            <path id="Path_989" data-name="Path 989" d="M443.547,304.074l.69,24.1,3.352,27.235s1.709,1.387,2.6-.115l2.366-16.167-.888-11.019L456,304.074Z" transform="translate(-443.547 -304.074)" fill="#4d808c"/>
          </g>
          <g id="Group_242" data-name="Group 242" transform="translate(2.892 52.444)" style="mix-blend-mode: multiply;isolation: isolate">
            <path id="Path_990" data-name="Path 990" d="M451.859,426.749c1.905,0,3.45.248,3.45.555h-4.964C450.345,427,449.953,426.749,451.859,426.749Z" transform="translate(-450.312 -426.749)" fill="#d7d8dc"/>
          </g>
        </g>
        <g id="Group_244" data-name="Group 244" transform="translate(58.211 46.041)">
          <path id="Path_991" data-name="Path 991" d="M489.956,232.485l-.853-19.626c-.411-4.995-1.907-17.205-6.953-23.777-.062-.08-.109-.142-.139-.185a2.382,2.382,0,0,1-.231-2.481l4.243,2.094a2.347,2.347,0,0,0-.179-2.387l.059.077c2.411,3.141,6.647,10.736,7.919,26.318l.006.09.855,19.672Z" transform="translate(-481.533 -186.123)" fill="#c18355"/>
        </g>
        <g id="Group_245" data-name="Group 245" transform="translate(55.688 40.398)">
          <path id="Path_992" data-name="Path 992" d="M490.518,193.279c-.394-15.576-12.445-20.357-12.445-20.357l-2.44,11.288c5.426,1.775,6.506,9.069,6.506,9.069Z" transform="translate(-475.632 -172.922)" fill="#ffed43"/>
        </g>
        <g id="Group_246" data-name="Group 246" transform="translate(35.284 40.152)">
          <path id="Path_993" data-name="Path 993" d="M427.9,179.577s9.913,14.072,4.857,35.008c6.859,5.645,24.422-14.577,24.422-26.99s-6.54-14.2-9.629-15.247h-16.1C428.958,173.222,427.9,175.933,427.9,179.577Z" transform="translate(-427.903 -172.348)" fill="#ffed43"/>
        </g>
        <g id="Group_247" data-name="Group 247" transform="translate(54.079 40.152)" style="mix-blend-mode: multiply;isolation: isolate">
          <path id="Path_994" data-name="Path 994" d="M474.381,172.348c4.238,2.256,6.539,7.623,6.539,12.617h-3.188c-.409-7.1-.935-10.778-5.864-12.617Z" transform="translate(-471.869 -172.348)" fill="#d7d8dc"/>
        </g>
        <g id="Group_248" data-name="Group 248" transform="translate(38.837 40.152)" style="mix-blend-mode: multiply;isolation: isolate">
          <path id="Path_995" data-name="Path 995" d="M438.726,172.348c4.239,2.256,6.54,7.623,6.54,12.617l-1.436,1.912c-2.209-7.739-2.686-12.69-7.615-14.529Z" transform="translate(-436.215 -172.348)" fill="#d7d8dc"/>
        </g>
        <g id="Group_249" data-name="Group 249" transform="translate(37.984 50.385)">
          <path id="Path_996" data-name="Path 996" d="M435.072,243.842c2.4,12.991,1.509,21.446,1.509,21.446,13.979,3.173,27.26-.669,27.26-.669l-3.818-43.077.775-22.872c-2.911-3.508-14.665-2.833-18.238,0,1.978,20.69-6.472,27.645-6.472,27.645S432.676,235.743,435.072,243.842Z" transform="translate(-434.219 -196.285)" fill="#007a33"/>
        </g>
        <g id="Group_250" data-name="Group 250" transform="translate(61.27 62.702)">
          <path id="Path_997" data-name="Path 997" d="M490.551,225.1c-.476,0-1.861,7.025-1.861,15.415s1.565,15.191,2.042,15.191-.318-6.8-.318-15.191S491.027,225.1,490.551,225.1Z" transform="translate(-488.69 -225.096)" fill="#394b68"/>
        </g>
        <g id="Group_255" data-name="Group 255" transform="translate(38.837 40.152)">
          <g id="Group_251" data-name="Group 251" transform="translate(14.914)">
            <path id="Path_998" data-name="Path 998" d="M475.373,172.348c4.24,2.256,6.54,7.623,6.54,12.617h-3.188c-.493-7.984-2.694-10.778-7.623-12.617Z" transform="translate(-471.102 -172.348)" fill="#007a33"/>
          </g>
          <g id="Group_252" data-name="Group 252" transform="translate(17.812)">
            <path id="Path_999" data-name="Path 999" d="M477.907,172.348c-.476,0,5.483,3.368,5.456,9.069l.95,10.581c1,0,.859.849.911-10.092C485.25,176.2,478.384,172.35,477.907,172.348Z" transform="translate(-477.88 -172.348)" fill="#394b68"/>
          </g>
          <g id="Group_253" data-name="Group 253">
            <path id="Path_1000" data-name="Path 1000" d="M440.487,172.348c5.943,1.84,6.539,7.623,6.539,12.617H443.7c.2-7.426-2.055-10.406-7.488-12.617Z" transform="translate(-436.215 -172.348)" fill="#007a33"/>
          </g>
          <g id="Group_254" data-name="Group 254" transform="translate(2.828)">
            <path id="Path_1001" data-name="Path 1001" d="M442.857,172.348c-.477,0,5.483,3.368,5.455,9.069l.951,7.321c1,0,.91-2.2.91-6.833C450.173,176.2,443.333,172.35,442.857,172.348Z" transform="translate(-442.829 -172.348)" fill="#394b68"/>
          </g>
        </g>
        <g id="Group_258" data-name="Group 258" transform="translate(48.526 58.055)">
          <g id="Group_256" data-name="Group 256" style="mix-blend-mode: multiply;isolation: isolate">
            <path id="Path_1002" data-name="Path 1002" d="M458.879,217.863c0,4.581,3.046,8.3,6.8,8.3s6.8-3.715,6.8-8.3-3.046-3.535-6.8-3.535S458.879,213.282,458.879,217.863Z" transform="translate(-458.879 -214.225)" fill="#d7d8dc"/>
          </g>
          <g id="Group_257" data-name="Group 257" style="mix-blend-mode: multiply;isolation: isolate">
            <path id="Path_1003" data-name="Path 1003" d="M458.881,217.945c0-.028,0-.054,0-.081,0-4.581,3.046-3.535,6.8-3.535s6.8-1.046,6.8,3.535c0,.027,0,.053,0,.081Z" transform="translate(-458.879 -214.225)" fill="#d7d8dc"/>
          </g>
        </g>
        <g id="Group_259" data-name="Group 259" transform="translate(36.09 48.33)">
          <path id="Path_1004" data-name="Path 1004" d="M442,217.379l-1.085-1.183c-5.353-5.84-8.829-11.521-10.332-16.888a17.341,17.341,0,0,1-.577-7.74l.005-.025a2.3,2.3,0,0,0,.011.877l4.637-.944a2.457,2.457,0,0,1-.011,1.011c-.26,1.309-1.007,8.217,8.69,19.32l20.01-7.609,1.682,4.423Z" transform="translate(-429.788 -191.477)" fill="#c18355"/>
        </g>
        <g id="Group_328" data-name="Group 328" transform="translate(0 7.751)">
          <g id="Group_260" data-name="Group 260" transform="translate(66.762 49.346)">
            <path id="Path_1005" data-name="Path 1005" d="M504.312,211.983s-4.227,2.5-2.25,4.925,2.792-1.308,2.792-1.308Z" transform="translate(-501.535 -211.983)" fill="#ebc341"/>
          </g>
          <g id="Group_262" data-name="Group 262" transform="translate(67.261 49.346)">
            <g id="Group_261" data-name="Group 261">
              <path id="Path_1006" data-name="Path 1006" d="M503.986,215.826c-.152-.234-1.284-.531-1.284-.531a6.642,6.642,0,0,1,2.278-3.311A10.3,10.3,0,0,0,503.986,215.826Z" transform="translate(-502.702 -211.983)" fill="#ab8e31"/>
            </g>
          </g>
          <g id="Group_325" data-name="Group 325">
            <g id="Group_263" data-name="Group 263">
              <path id="Path_1007" data-name="Path 1007" d="M370.057,104.1l-14.685,24.552-10-2.679,4.776-7.985,1.17-.082-.527-.993,6.122-10.235h0l1.544-.709-.852-.45,5.364-8.966Z" transform="translate(-345.369 -96.556)" fill="#ebd7a6"/>
            </g>
            <g id="Group_310" data-name="Group 310" transform="translate(0.424 0.858)">
              <g id="Group_265" data-name="Group 265" transform="translate(0 27.376)">
                <g id="Group_264" data-name="Group 264">
                  <path id="Path_1008" data-name="Path 1008" d="M356.363,165.753l-10-2.677.286-.478,10,2.678Z" transform="translate(-346.36 -162.598)" fill="#bbaa84"/>
                </g>
              </g>
              <g id="Group_267" data-name="Group 267" transform="translate(0.712 26.185)">
                <g id="Group_266" data-name="Group 266">
                  <path id="Path_1009" data-name="Path 1009" d="M358.027,162.969l-10-2.677.286-.478,10,2.678Z" transform="translate(-348.025 -159.813)" fill="#bbaa84"/>
                </g>
              </g>
              <g id="Group_269" data-name="Group 269" transform="translate(1.424 24.996)">
                <g id="Group_268" data-name="Group 268">
                  <path id="Path_1010" data-name="Path 1010" d="M359.693,160.188l-10-2.678.285-.477,10,2.677Z" transform="translate(-349.69 -157.032)" fill="#bbaa84"/>
                </g>
              </g>
              <g id="Group_271" data-name="Group 271" transform="translate(2.135 23.805)">
                <g id="Group_270" data-name="Group 270">
                  <path id="Path_1011" data-name="Path 1011" d="M361.358,157.4l-10-2.679.287-.478,10,2.678Z" transform="translate(-351.355 -154.247)" fill="#bbaa84"/>
                </g>
              </g>
              <g id="Group_273" data-name="Group 273" transform="translate(2.848 22.615)">
                <g id="Group_272" data-name="Group 272">
                  <path id="Path_1012" data-name="Path 1012" d="M363.025,154.618l-10-2.679.284-.477,10,2.678Z" transform="translate(-353.023 -151.463)" fill="#bbaa84"/>
                </g>
              </g>
              <g id="Group_275" data-name="Group 275" transform="translate(3.56 21.424)">
                <g id="Group_274" data-name="Group 274">
                  <path id="Path_1013" data-name="Path 1013" d="M364.69,151.833l-10-2.678.285-.478,10,2.679Z" transform="translate(-354.687 -148.676)" fill="#bbaa84"/>
                </g>
              </g>
              <g id="Group_277" data-name="Group 277" transform="translate(4.272 20.495)">
                <g id="Group_276" data-name="Group 276">
                  <path id="Path_1014" data-name="Path 1014" d="M366.355,149.4l-10-2.678.081-.136,1.17-.082,9.038,2.418Z" transform="translate(-356.352 -146.504)" fill="#bbaa84"/>
                </g>
              </g>
              <g id="Group_279" data-name="Group 279" transform="translate(4.982 19.045)">
                <g id="Group_278" data-name="Group 278">
                  <path id="Path_1015" data-name="Path 1015" d="M368.018,146.266l-10-2.678.287-.478,10,2.679Z" transform="translate(-358.014 -143.11)" fill="#bbaa84"/>
                </g>
              </g>
              <g id="Group_281" data-name="Group 281" transform="translate(16.375)">
                <g id="Group_280" data-name="Group 280">
                  <path id="Path_1016" data-name="Path 1016" d="M392.04,106.11l-7.091-7.548-.286.478,7.091,7.547Z" transform="translate(-384.663 -98.562)" fill="#bbaa84"/>
                </g>
              </g>
              <g id="Group_283" data-name="Group 283" transform="translate(15.663 1.191)">
                <g id="Group_282" data-name="Group 282">
                  <path id="Path_1017" data-name="Path 1017" d="M390.375,108.894l-7.091-7.546-.286.478,7.091,7.546Z" transform="translate(-382.997 -101.348)" fill="#bbaa84"/>
                </g>
              </g>
              <g id="Group_285" data-name="Group 285" transform="translate(14.95 2.381)">
                <g id="Group_284" data-name="Group 284">
                  <path id="Path_1018" data-name="Path 1018" d="M388.708,111.679l-7.091-7.547-.287.478,7.092,7.547Z" transform="translate(-381.33 -104.132)" fill="#bbaa84"/>
                </g>
              </g>
              <g id="Group_287" data-name="Group 287" transform="translate(14.239 3.571)">
                <g id="Group_286" data-name="Group 286">
                  <path id="Path_1019" data-name="Path 1019" d="M387.044,114.462l-7.091-7.547-.286.478,7.092,7.547Z" transform="translate(-379.667 -106.915)" fill="#bbaa84"/>
                </g>
              </g>
              <g id="Group_289" data-name="Group 289" transform="translate(13.527 4.761)">
                <g id="Group_288" data-name="Group 288">
                  <path id="Path_1020" data-name="Path 1020" d="M385.379,117.246l-7.091-7.546-.287.478,7.091,7.547Z" transform="translate(-378.001 -109.699)" fill="#bbaa84"/>
                </g>
              </g>
              <g id="Group_291" data-name="Group 291" transform="translate(12.815 5.951)">
                <g id="Group_290" data-name="Group 290">
                  <path id="Path_1021" data-name="Path 1021" d="M383.713,120.029l-7.091-7.547-.286.477,7.091,7.548Z" transform="translate(-376.336 -112.482)" fill="#bbaa84"/>
                </g>
              </g>
              <g id="Group_293" data-name="Group 293" transform="translate(12.126 7.141)">
                <g id="Group_292" data-name="Group 292">
                  <path id="Path_1022" data-name="Path 1022" d="M382.078,122.812l-7.091-7.547-.263.441,7.068,7.584Z" transform="translate(-374.725 -115.265)" fill="#bbaa84"/>
                </g>
              </g>
              <g id="Group_295" data-name="Group 295" transform="translate(10.629 9.644)">
                <g id="Group_294" data-name="Group 294">
                  <path id="Path_1023" data-name="Path 1023" d="M378.639,128.563l-7.152-7.443-.264.441,7.132,7.479Z" transform="translate(-371.223 -121.12)" fill="#bbaa84"/>
                </g>
              </g>
              <g id="Group_297" data-name="Group 297" transform="translate(10.016 10.668)">
                <g id="Group_296" data-name="Group 296">
                  <path id="Path_1024" data-name="Path 1024" d="M377.47,130.517l-7.418-7-.263.441,7.395,7.038Z" transform="translate(-369.789 -123.516)" fill="#bbaa84"/>
                </g>
              </g>
              <g id="Group_299" data-name="Group 299" transform="translate(5.604 18.043)">
                <g id="Group_298" data-name="Group 298">
                  <path id="Path_1025" data-name="Path 1025" d="M369.411,143.99l-9.942-2.782.264-.441,9.963,2.744Z" transform="translate(-359.469 -140.767)" fill="#bbaa84"/>
                </g>
              </g>
              <g id="Group_301" data-name="Group 301" transform="translate(6.429 16.664)">
                <g id="Group_300" data-name="Group 300">
                  <path id="Path_1026" data-name="Path 1026" d="M371.075,141.205l-9.678-3.223.265-.441,9.7,3.186Z" transform="translate(-361.397 -137.541)" fill="#bbaa84"/>
                </g>
              </g>
              <g id="Group_303" data-name="Group 303" transform="translate(7.403 15.036)">
                <g id="Group_302" data-name="Group 302">
                  <path id="Path_1027" data-name="Path 1027" d="M372.778,138.362l-9.1-4.187.264-.441,9.123,4.149Z" transform="translate(-363.676 -133.734)" fill="#bbaa84"/>
                </g>
              </g>
              <g id="Group_305" data-name="Group 305" transform="translate(9.124 12.158)">
                <g id="Group_304" data-name="Group 304">
                  <path id="Path_1028" data-name="Path 1028" d="M375.959,133.041,367.966,127l-.263.441,7.971,6.076Z" transform="translate(-367.703 -127.002)" fill="#bbaa84"/>
                </g>
              </g>
              <g id="Group_307" data-name="Group 307" transform="translate(8.243 13.632)">
                <g id="Group_306" data-name="Group 306">
                  <path id="Path_1029" data-name="Path 1029" d="M374.213,135.963l-8.572-5.072.264-.44,8.594,5.035Z" transform="translate(-365.641 -130.451)" fill="#bbaa84"/>
                </g>
              </g>
              <g id="Group_309" data-name="Group 309" transform="translate(11.609 8.805)">
                <g id="Group_308" data-name="Group 308">
                  <path id="Path_1030" data-name="Path 1030" d="M380.675,126.231l-6.646-7.072-.514.235,6.873,7.315Z" transform="translate(-373.516 -119.159)" fill="#bbaa84"/>
                </g>
              </g>
            </g>
            <g id="Group_311" data-name="Group 311" transform="translate(6.201 0)" style="mix-blend-mode: multiply;isolation: isolate">
              <path id="Path_1031" data-name="Path 1031" d="M368.436,117.371c9.013-15.589,2.834-20.815,2.834-20.815l7.091,7.547-14.685,24.552-3.8-1.018C363.233,125.919,365.644,122.039,368.436,117.371Z" transform="translate(-359.873 -96.556)" fill="#bbaa84"/>
            </g>
            <g id="Group_312" data-name="Group 312" transform="translate(98.206 67.516)">
              <path id="Path_1032" data-name="Path 1032" d="M577.628,254.724a1.677,1.677,0,1,0,.579,2.3A1.677,1.677,0,0,0,577.628,254.724Zm-.321.535a1.054,1.054,0,1,1-1.444.363A1.054,1.054,0,0,1,577.307,255.259Z" transform="translate(-575.089 -254.485)" fill="#69262c"/>
            </g>
            <g id="Group_316" data-name="Group 316" transform="translate(21.964 21.841)">
              <g id="Group_313" data-name="Group 313" transform="translate(0 0)">
                <rect id="Rectangle_49" data-name="Rectangle 49" width="2.699" height="88.895" transform="matrix(0.513, -0.858, 0.858, 0.513, 0, 2.316)" fill="#bfbfc2"/>
              </g>
              <g id="Group_314" data-name="Group 314" transform="translate(0.977 0.002)">
                <rect id="Rectangle_50" data-name="Rectangle 50" width="0.793" height="88.895" transform="matrix(0.513, -0.858, 0.858, 0.513, 0, 0.681)" fill="#f8f8f8"/>
              </g>
              <g id="Group_315" data-name="Group 315" transform="translate(0 1.605)">
                <rect id="Rectangle_51" data-name="Rectangle 51" width="0.829" height="88.895" transform="matrix(0.513, -0.858, 0.858, 0.513, 0, 0.711)" fill="#959395"/>
              </g>
            </g>
            <g id="Group_317" data-name="Group 317" transform="translate(8.974 6.759)">
              <path id="Path_1033" data-name="Path 1033" d="M366.36,137.456l1.594.954,3.957-3,10.282-17.189.768-4.9-1.594-.954Z" transform="translate(-366.36 -112.365)" fill="#ae4957"/>
            </g>
            <g id="Group_318" data-name="Group 318" transform="translate(8.983 6.753)">
              <rect id="Rectangle_52" data-name="Rectangle 52" width="29.236" height="1.011" transform="translate(0 25.101) rotate(-59.158)" fill="#98323e"/>
            </g>
            <g id="Group_319" data-name="Group 319" transform="translate(14.641 12.861)">
              <path id="Path_1034" data-name="Path 1034" d="M389.389,126.655c-.267-.16-2.013,1-5.989,7.643s-3.95,8.763-3.683,8.922.772-1.342,4.749-7.989S389.656,126.814,389.389,126.655Z" transform="translate(-379.615 -126.641)" fill="#c55262"/>
            </g>
            <g id="Group_320" data-name="Group 320" transform="translate(16.063 16.609)">
              <rect id="Rectangle_53" data-name="Rectangle 53" width="8.876" height="2.853" transform="matrix(0.513, -0.858, 0.858, 0.513, 0, 7.617)" fill="#c55262"/>
            </g>
            <g id="Group_321" data-name="Group 321" transform="translate(16.063 16.609)">
              <rect id="Rectangle_54" data-name="Rectangle 54" width="8.876" height="1.544" transform="matrix(0.513, -0.858, 0.858, 0.513, 0, 7.617)" fill="#ae4957"/>
            </g>
            <g id="Group_322" data-name="Group 322" transform="translate(18.066 18.279)">
              <path id="Path_1035" data-name="Path 1035" d="M391.663,140.725l-2.622,4.383a1.029,1.029,0,0,1-1.412.355l3.679-6.151A1.031,1.031,0,0,1,391.663,140.725Z" transform="translate(-387.629 -139.312)" fill="#98323e"/>
            </g>
            <g id="Group_323" data-name="Group 323" transform="translate(19.672 20.014)">
              <rect id="Rectangle_55" data-name="Rectangle 55" width="4.354" height="2.337" transform="matrix(0.513, -0.858, 0.858, 0.513, 0, 3.737)" fill="#98323e"/>
            </g>
            <g id="Group_324" data-name="Group 324" transform="translate(96.959 66.387)">
              <rect id="Rectangle_56" data-name="Rectangle 56" width="3.835" height="1.169" transform="matrix(0.513, -0.858, 0.858, 0.513, 0, 3.29)" fill="#98323e"/>
            </g>
          </g>
          <g id="Group_326" data-name="Group 326" transform="translate(59.865 53.043)">
            <path id="Path_1036" data-name="Path 1036" d="M490.406,229.679l7.5-4.107-3.836-4.94-8.671,2.6Z" transform="translate(-485.402 -220.632)" fill="#ebc341"/>
          </g>
          <g id="Group_327" data-name="Group 327" transform="translate(68.355 48.179)">
            <path id="Path_1037" data-name="Path 1037" d="M505.443,214.118a3.955,3.955,0,0,1,1.59-4.478c2.56-1.911,6.918,3.816,6.851,5.242s-.984,3.687-4.605,4.175S505.443,214.118,505.443,214.118Z" transform="translate(-505.262 -209.255)" fill="#ebc341"/>
          </g>
        </g>
        <g id="Group_329" data-name="Group 329" transform="translate(34.336 42.135)">
          <path id="Path_1038" data-name="Path 1038" d="M430.722,200.02c-9.244-12.542-2.931-23.034-2.931-23.034l8.334,6.382c-3.2,4.731,1.214,11.512,1.214,11.512Z" transform="translate(-425.687 -176.986)" fill="#ffed43"/>
        </g>
        <g id="Group_330" data-name="Group 330" transform="translate(44.999 40.398)">
          <path id="Path_1039" data-name="Path 1039" d="M450.629,172.922c2.215,1.811,1.351,2.7,6.538,2.7,3.88,0,4.28-.892,2.065-2.7Z" transform="translate(-450.629 -172.922)" fill="#c18355"/>
        </g>
        <g id="Group_340" data-name="Group 340" transform="translate(36.441 7.5)">
          <g id="Group_331" data-name="Group 331" transform="translate(21.168 15.631)">
            <path id="Path_1040" data-name="Path 1040" d="M480.125,135.407a2.436,2.436,0,1,0,2.4-2.875A2.669,2.669,0,0,0,480.125,135.407Z" transform="translate(-480.125 -132.532)" fill="#c18355"/>
          </g>
          <g id="Group_332" data-name="Group 332" transform="translate(0 15.631)">
            <path id="Path_1041" data-name="Path 1041" d="M430.609,135.407a2.436,2.436,0,1,0,2.4-2.875A2.669,2.669,0,0,0,430.609,135.407Z" transform="translate(-430.609 -132.532)" fill="#c18355"/>
          </g>
          <g id="Group_334" data-name="Group 334" transform="translate(10.915 27.713)">
            <g id="Group_333" data-name="Group 333">
              <path id="Path_1042" data-name="Path 1042" d="M456.159,167.221l5.109-.335h.006c-.013-.359-.008-3.4,0-6.071l-5.125-.021C456.126,166.817,456.149,167.1,456.159,167.221Z" transform="translate(-456.14 -160.794)" fill="#c18355"/>
            </g>
          </g>
          <g id="Group_336" data-name="Group 336" transform="translate(10.899 27.713)">
            <g id="Group_335" data-name="Group 335" style="mix-blend-mode: multiply;isolation: isolate">
              <path id="Path_1043" data-name="Path 1043" d="M456.913,165.437s4.584,1.133,4.342-4.623l-5.125-.021S455.877,165.437,456.913,165.437Z" transform="translate(-456.102 -160.794)" fill="#d7d8dc"/>
            </g>
          </g>
          <g id="Group_337" data-name="Group 337" transform="translate(1.304 2.815)">
            <path id="Path_1044" data-name="Path 1044" d="M433.66,112.407c0,7.763,5.329,18.258,11.9,18.258s11.9-10.495,11.9-18.258-5.33-9.854-11.9-9.854S433.66,104.645,433.66,112.407Z" transform="translate(-433.66 -102.553)" fill="#c18355"/>
          </g>
          <g id="Group_338" data-name="Group 338" transform="translate(0.937 10.874)">
            <path id="Path_1045" data-name="Path 1045" d="M436.623,121.4c-.975,3.492-2.794,5.142-1.307,11.242-.022.234-1.991-4.538-2.516-11.242Z" transform="translate(-432.8 -121.404)" fill="#1d1100"/>
          </g>
          <g id="Group_339" data-name="Group 339" transform="translate(0.112)">
            <path id="Path_1046" data-name="Path 1046" d="M453.72,118.092c.041.444,12.437-23.737-19.558-22.039,1.885,1.577-1.006,6.785-3.068,7.74-1.492,3.429,4.7,10.04,12.873-.472,0,0,.272,4.8,9.508,6.941C454.255,112.074,453.754,114.891,453.72,118.092Z" transform="translate(-430.872 -95.968)" fill="#1d1100"/>
          </g>
        </g>
        <g id="Group_349" data-name="Group 349" transform="translate(42.09 22.51)">
          <g id="Group_341" data-name="Group 341" transform="translate(4.31 10.614)">
            <path id="Path_1047" data-name="Path 1047" d="M460.4,155.908c0,1.4-1.455,2.537-3.249,2.537s-3.249-1.135-3.249-2.537Z" transform="translate(-453.904 -155.908)" fill="#d9d9d9"/>
          </g>
          <g id="Group_342" data-name="Group 342" transform="translate(4.31 3.496)" style="mix-blend-mode: multiply;isolation: isolate">
            <path id="Path_1048" data-name="Path 1048" d="M455.535,140.728l-.353-1.47-.134,1.622L453.9,144.94l3.751.246-3.075-.635Z" transform="translate(-453.904 -139.258)" fill="#d7d8dc"/>
          </g>
          <g id="Group_343" data-name="Group 343">
            <path id="Path_1049" data-name="Path 1049" d="M449.764,131.285l-2.206-.2a8.135,8.135,0,0,1-3.735.754C444.915,132.317,449.764,131.285,449.764,131.285Z" transform="translate(-443.823 -131.081)" fill="#1d1100"/>
          </g>
          <g id="Group_344" data-name="Group 344" transform="translate(8.691)">
            <path id="Path_1050" data-name="Path 1050" d="M464.152,131.285l2.207-.2a8.132,8.132,0,0,0,3.735.754C469,132.317,464.152,131.285,464.152,131.285Z" transform="translate(-464.152 -131.081)" fill="#1d1100"/>
          </g>
          <g id="Group_345" data-name="Group 345" transform="translate(3.107 1.861)">
            <path id="Path_1051" data-name="Path 1051" d="M451.091,137.249c0,1,.28,1.817.628,1.817s.628-.814.628-1.817-.281-1.815-.628-1.815S451.091,136.246,451.091,137.249Z" transform="translate(-451.091 -135.434)" fill="#1d1100"/>
          </g>
          <g id="Group_346" data-name="Group 346" transform="translate(10.735 1.861)">
            <path id="Path_1052" data-name="Path 1052" d="M468.933,137.249c0,1,.281,1.817.628,1.817s.627-.814.627-1.817-.28-1.815-.627-1.815S468.933,136.246,468.933,137.249Z" transform="translate(-468.933 -135.434)" fill="#1d1100"/>
          </g>
          <g id="Group_347" data-name="Group 347" transform="translate(2.685 1.884)">
            <path id="Path_1053" data-name="Path 1053" d="M451.056,135.487v1.065a1.031,1.031,0,0,1-.953-.849C450.316,136.021,451.056,135.487,451.056,135.487Z" transform="translate(-450.103 -135.487)" fill="#1d1100"/>
          </g>
          <g id="Group_348" data-name="Group 348" transform="translate(10.331 1.884)">
            <path id="Path_1054" data-name="Path 1054" d="M468.941,135.487v1.065a1.031,1.031,0,0,1-.953-.849C468.2,136.021,468.941,135.487,468.941,135.487Z" transform="translate(-467.988 -135.487)" fill="#1d1100"/>
          </g>
        </g>
        <g id="Group_353" data-name="Group 353" transform="translate(64.368 84.598)">
          <g id="Group_350" data-name="Group 350" transform="translate(0 7.303)">
            <path id="Path_1055" data-name="Path 1055" d="M495.98,298.081s-.593-4.346,2.518-4.658.154,2.247.154,2.247h0s-1.038,3.606-1.934,3.725C496.345,299.445,495.98,298.081,495.98,298.081Z" transform="translate(-495.935 -293.396)" fill="#ebc341"/>
          </g>
          <g id="Group_351" data-name="Group 351" transform="translate(0.474)">
            <path id="Path_1056" data-name="Path 1056" d="M505.14,276.313l.212,8.3-6.2.773-2.1-8.069Z" transform="translate(-497.045 -276.313)" fill="#ebc341"/>
          </g>
          <g id="Group_352" data-name="Group 352" transform="translate(2.229 7.186)">
            <path id="Path_1057" data-name="Path 1057" d="M501.5,295.015a23.366,23.366,0,0,0-.185,6.6c.457,3.162,5.372,1.223,6.333.168a6.38,6.38,0,0,0,.056-7.539C505.491,291.334,501.5,295.015,501.5,295.015Z" transform="translate(-501.148 -293.123)" fill="#ebc341"/>
          </g>
        </g>
      </g>
      <g id="Group_517" data-name="Group 517" transform="translate(17.067 124.332)">
        <g id="Group_397" data-name="Group 397" transform="translate(0 1.159)">
          <g id="Group_373" data-name="Group 373" transform="translate(1.487 0.983)">
            <g id="Group_355" data-name="Group 355">
              <path id="Path_1058" data-name="Path 1058" d="M388.768,380.095v-3.41l1.694-2.416,3.361.632s2.928.644,2.94,3.353a6.705,6.705,0,0,1-1.08,3.389l.734,14.208a1.749,1.749,0,0,1-1.749,1.749h-3.807a1.748,1.748,0,0,1-1.749-1.749l.734-14.208A1.5,1.5,0,0,1,388.768,380.095Z" transform="translate(-388.768 -374.269)" fill="#cd6f4f"/>
            </g>
            <g id="Group_357" data-name="Group 357" transform="translate(0.418 3.354)" opacity="0.1">
              <g id="Group_356" data-name="Group 356">
                <path id="Path_1059" data-name="Path 1059" d="M389.746,384.367c.454-4.968,7.034-.434,5.906,1.405l.587,14.2a1.4,1.4,0,0,1-1.4,1.395h-3.037a1.394,1.394,0,0,1-1.395-1.395l.586-14.2A1.276,1.276,0,0,1,389.746,384.367Z" transform="translate(-389.746 -382.114)" fill="#fff"/>
              </g>
            </g>
            <g id="Group_359" data-name="Group 359" transform="translate(1.263 1.094)" opacity="0.1">
              <g id="Group_358" data-name="Group 358">
                <path id="Path_1060" data-name="Path 1060" d="M397.613,381.44c-.491.62-1.028-1.3-2.538-2.208s-3.777-.988-3.286-1.608,3.569-1.247,5.08-.341S398.1,380.82,397.613,381.44Z" transform="translate(-391.721 -376.828)" fill="#fff"/>
              </g>
            </g>
            <g id="Group_360" data-name="Group 360" transform="translate(4.045 1.267)" opacity="0.3">
              <path id="Path_1061" data-name="Path 1061" d="M398.235,377.319c-.1.149,1.029.195,1.942.788s1.268,1.508,1.364,1.359a2.176,2.176,0,0,0-1.111-1.717A2.762,2.762,0,0,0,398.235,377.319Z" transform="translate(-398.229 -377.233)" fill="#fff"/>
            </g>
            <g id="Group_361" data-name="Group 361" transform="translate(2.855 3.807)" opacity="0.3">
              <path id="Path_1062" data-name="Path 1062" d="M395.467,383.19c-.2.129,1.206.886,2.06,2.206s.83,2.7,1.031,2.574a3.226,3.226,0,0,0-.522-2.872A4.121,4.121,0,0,0,395.467,383.19Z" transform="translate(-395.447 -383.175)" fill="#fff"/>
            </g>
            <g id="Group_362" data-name="Group 362" transform="translate(3.992 1.73)" opacity="0.3">
              <path id="Path_1063" data-name="Path 1063" d="M398.126,378.644a.457.457,0,1,0,.568-.309A.457.457,0,0,0,398.126,378.644Z" transform="translate(-398.107 -378.316)" fill="#fff"/>
            </g>
            <g id="Group_372" data-name="Group 372" transform="translate(1.484 11.1)">
              <g id="Group_363" data-name="Group 363">
                <path id="Path_1064" data-name="Path 1064" d="M392.24,409.005h5.026l-.353-8.773h-4.32Z" transform="translate(-392.24 -400.233)" fill="#e7be8e"/>
              </g>
              <g id="Group_368" data-name="Group 368" transform="translate(0.967 0.623)">
                <g id="Group_365" data-name="Group 365">
                  <g id="Group_364" data-name="Group 364">
                    <path id="Path_1065" data-name="Path 1065" d="M394.5,405.739a1.545,1.545,0,0,0,1.545,1.546h0a1.545,1.545,0,0,0,1.546-1.546v-2.5a1.545,1.545,0,0,0-1.546-1.545h0a1.545,1.545,0,0,0-1.545,1.545Z" transform="translate(-394.503 -401.691)" fill="#b08f6d"/>
                  </g>
                </g>
                <g id="Group_367" data-name="Group 367" transform="translate(0.487 0.58)">
                  <g id="Group_366" data-name="Group 366">
                    <path id="Path_1066" data-name="Path 1066" d="M395.641,406.424a1.058,1.058,0,0,0,1.058,1.057h0a1.057,1.057,0,0,0,1.059-1.057v-2.318a1.059,1.059,0,0,0-1.059-1.059h0a1.059,1.059,0,0,0-1.058,1.059Z" transform="translate(-395.641 -403.047)" fill="#8a7156"/>
                  </g>
                </g>
              </g>
              <g id="Group_369" data-name="Group 369" transform="translate(1.045 6.418)">
                <rect id="Rectangle_57" data-name="Rectangle 57" width="2.935" height="0.406" fill="#8a7156"/>
              </g>
              <g id="Group_370" data-name="Group 370" transform="translate(1.045 7.163)">
                <rect id="Rectangle_58" data-name="Rectangle 58" width="2.935" height="0.406" fill="#8a7156"/>
              </g>
              <g id="Group_371" data-name="Group 371" transform="translate(1.045 7.907)">
                <rect id="Rectangle_59" data-name="Rectangle 59" width="2.935" height="0.406" fill="#8a7156"/>
              </g>
            </g>
          </g>
          <g id="Group_396" data-name="Group 396">
            <g id="Group_374" data-name="Group 374">
              <path id="Path_1067" data-name="Path 1067" d="M386.375,374.467a.808.808,0,0,0,1.135-.141l.35-.448a.809.809,0,0,0-.141-1.136l-.772-.6a.809.809,0,0,0-1.136.14l-.349.448a.809.809,0,0,0,.141,1.137Z" transform="translate(-385.291 -371.97)" fill="#394b68"/>
            </g>
            <g id="Group_375" data-name="Group 375" transform="translate(0.893 0.574)">
              <path id="Path_1068" data-name="Path 1068" d="M388.662,373.313l.254.2a.809.809,0,0,1,.141,1.135l-.35.448a.808.808,0,0,1-1.135.141l-.191-.148Z" transform="translate(-387.38 -373.313)" fill="#253247"/>
            </g>
            <g id="Group_392" data-name="Group 392" transform="translate(0.731 0.403)">
              <g id="Group_376" data-name="Group 376" transform="translate(0 0)">
                <path id="Rectangle_60" data-name="Rectangle 60" d="M.5,0H2.287a.5.5,0,0,1,.5.5V.643a.5.5,0,0,1-.5.5H.5a.5.5,0,0,1-.5-.5V.5A.5.5,0,0,1,.5,0Z" transform="matrix(0.614, -0.789, 0.789, 0.614, 0, 2.199)" fill="#394b68"/>
              </g>
              <g id="Group_377" data-name="Group 377" transform="translate(0.087 0.086)">
                <path id="Path_1069" data-name="Path 1069" d="M387.222,375.1l.694.54a.189.189,0,0,0,.265-.032l1.281-1.645a.19.19,0,0,0-.033-.265l-.695-.54a.211.211,0,0,1,.262,0l.565.439a.213.213,0,0,1,.037.3l-1.45,1.861a.213.213,0,0,1-.3.038l-.564-.439A.212.212,0,0,1,387.222,375.1Z" transform="translate(-387.203 -373.116)" fill="#253247"/>
              </g>
              <g id="Group_378" data-name="Group 378" transform="translate(1.493 0.454)">
                <path id="Path_1070" data-name="Path 1070" d="M390.506,374a.063.063,0,0,1,.089-.012l.722.562-.079.1-.721-.561A.063.063,0,0,1,390.506,374Z" transform="translate(-390.492 -373.975)" fill="#253247"/>
              </g>
              <g id="Group_379" data-name="Group 379" transform="translate(1.28 0.727)">
                <path id="Path_1071" data-name="Path 1071" d="M390.007,374.64a.065.065,0,0,1,.09-.012l.721.562-.078.1-.722-.562A.064.064,0,0,1,390.007,374.64Z" transform="translate(-389.994 -374.615)" fill="#253247"/>
              </g>
              <g id="Group_380" data-name="Group 380" transform="translate(1.067 1.001)">
                <path id="Path_1072" data-name="Path 1072" d="M389.509,375.281a.063.063,0,0,1,.089-.011l.722.561-.078.1-.722-.561A.063.063,0,0,1,389.509,375.281Z" transform="translate(-389.495 -375.256)" fill="#253247"/>
              </g>
              <g id="Group_381" data-name="Group 381" transform="translate(0.854 1.275)">
                <path id="Path_1073" data-name="Path 1073" d="M389.011,375.92a.063.063,0,0,1,.089-.011l.721.562-.078.1-.722-.561A.064.064,0,0,1,389.011,375.92Z" transform="translate(-388.997 -375.895)" fill="#253247"/>
              </g>
              <g id="Group_382" data-name="Group 382" transform="translate(0.64 1.549)">
                <path id="Path_1074" data-name="Path 1074" d="M388.511,376.561a.063.063,0,0,1,.089-.012l.722.562-.078.1-.722-.562A.062.062,0,0,1,388.511,376.561Z" transform="translate(-388.498 -376.536)" fill="#253247"/>
              </g>
              <g id="Group_383" data-name="Group 383" transform="translate(0.427 1.822)">
                <path id="Path_1075" data-name="Path 1075" d="M388.013,377.2a.062.062,0,0,1,.089-.011l.722.561-.078.1-.722-.562A.063.063,0,0,1,388.013,377.2Z" transform="translate(-388 -377.176)" fill="#253247"/>
              </g>
              <g id="Group_391" data-name="Group 391" transform="translate(0.27 0.234)">
                <g id="Group_384" data-name="Group 384" transform="translate(1.065 0.273)">
                  <path id="Path_1076" data-name="Path 1076" d="M390.889,374.759l.049-.063-.767-.6-.048.063Z" transform="translate(-390.123 -374.099)" fill="#526e91"/>
                </g>
                <g id="Group_385" data-name="Group 385" transform="translate(0.851 0.548)">
                  <path id="Path_1077" data-name="Path 1077" d="M390.389,375.4l.05-.063-.767-.6-.049.062Z" transform="translate(-389.623 -374.742)" fill="#526e91"/>
                </g>
                <g id="Group_386" data-name="Group 386" transform="translate(0.639 0.821)">
                  <path id="Path_1078" data-name="Path 1078" d="M389.891,376.039l.05-.062-.767-.6-.048.063Z" transform="translate(-389.126 -375.38)" fill="#526e91"/>
                </g>
                <g id="Group_387" data-name="Group 387" transform="translate(0.426 1.094)">
                  <rect id="Rectangle_61" data-name="Rectangle 61" width="0.079" height="0.971" transform="matrix(0.615, -0.788, 0.788, 0.615, 0, 0.062)" fill="#526e91"/>
                </g>
                <g id="Group_388" data-name="Group 388" transform="translate(0.213 1.368)">
                  <path id="Path_1079" data-name="Path 1079" d="M388.9,377.32l.048-.063-.767-.6-.048.063Z" transform="translate(-388.128 -376.661)" fill="#526e91"/>
                </g>
                <g id="Group_389" data-name="Group 389" transform="translate(0 1.64)">
                  <rect id="Rectangle_62" data-name="Rectangle 62" width="0.08" height="0.971" transform="translate(0 0.063) rotate(-51.964)" fill="#526e91"/>
                </g>
                <g id="Group_390" data-name="Group 390" transform="translate(1.278)">
                  <path id="Path_1080" data-name="Path 1080" d="M391.387,374.12l-.011-.109-.706-.55-.049.063Z" transform="translate(-390.621 -373.46)" fill="#526e91"/>
                </g>
              </g>
            </g>
            <g id="Group_393" data-name="Group 393" transform="translate(0.246 0.147)">
              <path id="Path_1081" data-name="Path 1081" d="M385.914,373.321c.137.192.526.147.869-.1s.509-.6.372-.79-.527-.148-.868.1S385.776,373.13,385.914,373.321Z" transform="translate(-385.866 -372.315)" fill="#526e91"/>
            </g>
            <g id="Group_394" data-name="Group 394" transform="translate(0.321 0.253)">
              <path id="Path_1082" data-name="Path 1082" d="M386.046,373.366c.035.048.187-.3.485-.511s.627-.211.592-.259a.729.729,0,0,0-.673.136A.925.925,0,0,0,386.046,373.366Z" transform="translate(-386.041 -372.562)" fill="#7888a8"/>
            </g>
            <g id="Group_395" data-name="Group 395" transform="translate(0.482 0.881)">
              <path id="Path_1083" data-name="Path 1083" d="M386.478,374.305a.153.153,0,1,0-.027-.215A.154.154,0,0,0,386.478,374.305Z" transform="translate(-386.419 -374.031)" fill="#7888a8"/>
            </g>
          </g>
        </g>
        <g id="Group_454" data-name="Group 454" transform="translate(7.019)">
          <g id="Group_435" data-name="Group 435" transform="translate(1.819)">
            <g id="Group_398" data-name="Group 398" transform="translate(1.45 0.234)">
              <rect id="Rectangle_63" data-name="Rectangle 63" width="1.456" height="1.365" fill="#cd6f4f"/>
            </g>
            <g id="Group_399" data-name="Group 399" transform="translate(1.474 0.234)">
              <rect id="Rectangle_64" data-name="Rectangle 64" width="0.567" height="1.365" fill="#a0583d"/>
            </g>
            <g id="Group_401" data-name="Group 401" transform="translate(2.599 0.234)" opacity="0.1">
              <g id="Group_400" data-name="Group 400">
                <rect id="Rectangle_65" data-name="Rectangle 65" width="0.283" height="1.365" fill="#fff"/>
              </g>
            </g>
            <g id="Group_407" data-name="Group 407" transform="translate(0.455 1.102)">
              <g id="Group_402" data-name="Group 402">
                <path id="Path_1084" data-name="Path 1084" d="M407.051,373.591a1.346,1.346,0,0,1-.023-.238v-.242a1.276,1.276,0,0,1,1.275-1.276h.9a1.276,1.276,0,0,1,1.275,1.276v.242a1.347,1.347,0,0,1-.022.238Z" transform="translate(-407.028 -371.835)" fill="#394b68"/>
              </g>
              <g id="Group_403" data-name="Group 403" transform="translate(0 1.022)">
                <path id="Path_1085" data-name="Path 1085" d="M407.051,374.96a1.345,1.345,0,0,1-.023-.238v-.374l3.447-.121v.5a1.346,1.346,0,0,1-.022.238Z" transform="translate(-407.028 -374.226)" fill="#253247"/>
              </g>
              <g id="Group_404" data-name="Group 404" transform="translate(0.756 0.063)">
                <path id="Path_1086" data-name="Path 1086" d="M408.812,372.16c-.1.165.325.368.961.456s1.237.024,1.342-.14-.325-.368-.961-.455S408.918,372,408.812,372.16Z" transform="translate(-408.796 -371.982)" fill="#526e91"/>
              </g>
              <g id="Group_405" data-name="Group 405" transform="translate(0.922 0.136)">
                <path id="Path_1087" data-name="Path 1087" d="M409.186,372.235c-.026.041.551-.026,1.1.048s.869.266.9.224-.27-.249-.821-.324A2.964,2.964,0,0,0,409.186,372.235Z" transform="translate(-409.185 -372.153)" fill="#7888a8"/>
              </g>
              <g id="Group_406" data-name="Group 406" transform="translate(1.108 0.273)">
                <path id="Path_1088" data-name="Path 1088" d="M409.62,372.587a.147.147,0,1,0,.142-.113A.13.13,0,0,0,409.62,372.587Z" transform="translate(-409.62 -372.474)" fill="#7888a8"/>
              </g>
            </g>
            <g id="Group_433" data-name="Group 433" transform="translate(0 2.345)">
              <g id="Group_432" data-name="Group 432">
                <g id="Group_408" data-name="Group 408">
                  <path id="Path_1089" data-name="Path 1089" d="M405.963,375.837a.251.251,0,0,0,.25.251h3.857a.251.251,0,0,0,.252-.251V375a.251.251,0,0,0-.252-.252h-3.857a.251.251,0,0,0-.25.252Z" transform="translate(-405.963 -374.744)" fill="#394b68"/>
                </g>
                <g id="Group_409" data-name="Group 409" transform="translate(0 0.008)">
                  <path id="Path_1090" data-name="Path 1090" d="M406.154,374.763V375.8a.222.222,0,0,0,.222.222h3.532a.223.223,0,0,0,.222-.222v-1.035a.252.252,0,0,1,.191.244v.841a.251.251,0,0,1-.252.251h-3.857a.251.251,0,0,1-.25-.251v-.841A.252.252,0,0,1,406.154,374.763Z" transform="translate(-405.963 -374.763)" fill="#253247"/>
                </g>
                <g id="Group_431" data-name="Group 431" transform="translate(0.293 0.061)">
                  <g id="Group_410" data-name="Group 410" transform="translate(3.398 0.093)">
                    <path id="Path_1091" data-name="Path 1091" d="M414.67,375.1a.074.074,0,0,1,.074.075v1.075h-.149V375.18A.075.075,0,0,1,414.67,375.1Z" transform="translate(-414.595 -375.105)" fill="#253247"/>
                  </g>
                  <g id="Group_411" data-name="Group 411" transform="translate(2.989 0.093)">
                    <path id="Path_1092" data-name="Path 1092" d="M413.714,375.1a.075.075,0,0,1,.076.075v1.075h-.15V375.18A.075.075,0,0,1,413.714,375.1Z" transform="translate(-413.64 -375.105)" fill="#253247"/>
                  </g>
                  <g id="Group_412" data-name="Group 412" transform="translate(2.582 0.093)">
                    <path id="Path_1093" data-name="Path 1093" d="M412.761,375.1a.075.075,0,0,1,.075.075v1.075h-.15V375.18A.075.075,0,0,1,412.761,375.1Z" transform="translate(-412.686 -375.105)" fill="#253247"/>
                  </g>
                  <g id="Group_413" data-name="Group 413" transform="translate(2.174 0.093)">
                    <path id="Path_1094" data-name="Path 1094" d="M411.807,375.1a.075.075,0,0,1,.075.075v1.075h-.15V375.18A.075.075,0,0,1,411.807,375.1Z" transform="translate(-411.732 -375.105)" fill="#253247"/>
                  </g>
                  <g id="Group_414" data-name="Group 414" transform="translate(1.765 0.093)">
                    <path id="Path_1095" data-name="Path 1095" d="M410.852,375.1a.075.075,0,0,1,.075.075v1.075h-.15V375.18A.075.075,0,0,1,410.852,375.1Z" transform="translate(-410.777 -375.105)" fill="#253247"/>
                  </g>
                  <g id="Group_415" data-name="Group 415" transform="translate(1.358 0.093)">
                    <path id="Path_1096" data-name="Path 1096" d="M409.9,375.1a.075.075,0,0,1,.074.075v1.075h-.15V375.18A.075.075,0,0,1,409.9,375.1Z" transform="translate(-409.823 -375.105)" fill="#253247"/>
                  </g>
                  <g id="Group_423" data-name="Group 423" transform="translate(1.224)">
                    <g id="Group_416" data-name="Group 416" transform="translate(2.04)">
                      <rect id="Rectangle_66" data-name="Rectangle 66" width="0.093" height="1.143" fill="#526e91"/>
                    </g>
                    <g id="Group_417" data-name="Group 417" transform="translate(1.631)">
                      <rect id="Rectangle_67" data-name="Rectangle 67" width="0.093" height="1.143" fill="#526e91"/>
                    </g>
                    <g id="Group_418" data-name="Group 418" transform="translate(1.224)">
                      <rect id="Rectangle_68" data-name="Rectangle 68" width="0.092" height="1.143" fill="#526e91"/>
                    </g>
                    <g id="Group_419" data-name="Group 419" transform="translate(0.816)">
                      <rect id="Rectangle_69" data-name="Rectangle 69" width="0.093" height="1.143" fill="#526e91"/>
                    </g>
                    <g id="Group_420" data-name="Group 420" transform="translate(0.408)">
                      <rect id="Rectangle_70" data-name="Rectangle 70" width="0.092" height="1.143" fill="#526e91"/>
                    </g>
                    <g id="Group_421" data-name="Group 421">
                      <rect id="Rectangle_71" data-name="Rectangle 71" width="0.094" height="1.143" fill="#526e91"/>
                    </g>
                    <g id="Group_422" data-name="Group 422" transform="translate(2.447)">
                      <path id="Path_1097" data-name="Path 1097" d="M415.235,376.03l.093-.09v-1.053h-.093Z" transform="translate(-415.235 -374.887)" fill="#526e91"/>
                    </g>
                  </g>
                  <g id="Group_424" data-name="Group 424" transform="translate(0.95 0.093)">
                    <path id="Path_1098" data-name="Path 1098" d="M408.943,375.1a.075.075,0,0,1,.076.075v1.075h-.15V375.18A.075.075,0,0,1,408.943,375.1Z" transform="translate(-408.869 -375.105)" fill="#253247"/>
                  </g>
                  <g id="Group_425" data-name="Group 425" transform="translate(0.542 0.093)">
                    <path id="Path_1099" data-name="Path 1099" d="M407.99,375.1a.075.075,0,0,1,.075.075v1.075h-.15V375.18A.075.075,0,0,1,407.99,375.1Z" transform="translate(-407.915 -375.105)" fill="#253247"/>
                  </g>
                  <g id="Group_426" data-name="Group 426" transform="translate(0.134 0.093)">
                    <path id="Path_1100" data-name="Path 1100" d="M407.035,375.1a.075.075,0,0,1,.075.075v1.075h-.15V375.18A.075.075,0,0,1,407.035,375.1Z" transform="translate(-406.96 -375.105)" fill="#253247"/>
                  </g>
                  <g id="Group_430" data-name="Group 430">
                    <g id="Group_427" data-name="Group 427" transform="translate(0.816)">
                      <rect id="Rectangle_72" data-name="Rectangle 72" width="0.093" height="1.143" fill="#526e91"/>
                    </g>
                    <g id="Group_428" data-name="Group 428" transform="translate(0.408)">
                      <rect id="Rectangle_73" data-name="Rectangle 73" width="0.093" height="1.143" fill="#526e91"/>
                    </g>
                    <g id="Group_429" data-name="Group 429">
                      <rect id="Rectangle_74" data-name="Rectangle 74" width="0.094" height="1.143" fill="#526e91"/>
                    </g>
                  </g>
                </g>
              </g>
            </g>
            <g id="Group_434" data-name="Group 434" transform="translate(1.541)">
              <path id="Path_1101" data-name="Path 1101" d="M409.568,369.374a.118.118,0,0,0,.118.118h1.04a.118.118,0,0,0,.118-.118h0a.117.117,0,0,0-.118-.116h-1.04a.117.117,0,0,0-.118.116Z" transform="translate(-409.568 -369.258)" fill="#a0583d"/>
            </g>
          </g>
          <g id="Group_453" data-name="Group 453" transform="translate(0 3.536)">
            <g id="Group_436" data-name="Group 436">
              <path id="Path_1102" data-name="Path 1102" d="M401.709,380.12c0-2.208,1.789-2.591,4-2.591s4,.383,4,2.591a6.7,6.7,0,0,1-1.081,3.389l.735,14.208a1.748,1.748,0,0,1-1.749,1.749H403.8a1.748,1.748,0,0,1-1.749-1.749l.733-14.208A6.711,6.711,0,0,1,401.709,380.12Z" transform="translate(-401.709 -377.529)" fill="#93c3cd"/>
            </g>
            <g id="Group_437" data-name="Group 437" transform="translate(0.808 1.913)">
              <path id="Path_1103" data-name="Path 1103" d="M403.6,383.006c.117-2.759,6.645.865,5.517,2.7l.586,14.2a1.4,1.4,0,0,1-1.395,1.395h-3.038a1.4,1.4,0,0,1-1.395-1.395l.586-14.2A5.346,5.346,0,0,1,403.6,383.006Z" transform="translate(-403.599 -382.005)" fill="#b4d5de"/>
            </g>
            <g id="Group_438" data-name="Group 438" transform="translate(2.052 0.296)">
              <path id="Path_1104" data-name="Path 1104" d="M411.66,382.252c-.428.543-.9-1.138-2.218-1.931s-3.3-.864-2.874-1.4,3.121-1.09,4.44-.3S412.088,381.71,411.66,382.252Z" transform="translate(-406.509 -378.221)" fill="#b4d5de"/>
            </g>
            <g id="Group_439" data-name="Group 439" transform="translate(4.485 0.447)">
              <path id="Path_1105" data-name="Path 1105" d="M412.2,378.65c-.085.13.9.171,1.7.689s1.108,1.318,1.193,1.188a1.9,1.9,0,0,0-.97-1.5A2.415,2.415,0,0,0,412.2,378.65Z" transform="translate(-412.199 -378.574)" fill="#cee4e9"/>
            </g>
            <g id="Group_440" data-name="Group 440" transform="translate(2.855 2.414)">
              <path id="Path_1106" data-name="Path 1106" d="M408.407,383.19c-.2.129,1.207.886,2.061,2.206s.83,2.7,1.03,2.574a3.228,3.228,0,0,0-.523-2.872A4.119,4.119,0,0,0,408.407,383.19Z" transform="translate(-408.388 -383.175)" fill="#cee4e9"/>
            </g>
            <g id="Group_441" data-name="Group 441" transform="translate(4.439 0.851)">
              <path id="Path_1107" data-name="Path 1107" d="M412.109,379.807a.4.4,0,1,0,.5-.27A.4.4,0,0,0,412.109,379.807Z" transform="translate(-412.092 -379.52)" fill="#cee4e9"/>
            </g>
            <g id="Group_452" data-name="Group 452" transform="translate(1.213 9.489)">
              <g id="Group_442" data-name="Group 442">
                <path id="Path_1108" data-name="Path 1108" d="M404.546,408.932h5.569l-.332-9.207H405Z" transform="translate(-404.546 -399.725)" fill="#fff"/>
              </g>
              <g id="Group_443" data-name="Group 443" transform="translate(0.272 0.217)">
                <path id="Path_1109" data-name="Path 1109" d="M405.181,409.005h5.025l-.353-8.773h-4.319Z" transform="translate(-405.181 -400.233)" fill="#cd6f4f"/>
              </g>
              <g id="Group_448" data-name="Group 448" transform="translate(1.238 0.841)">
                <g id="Group_445" data-name="Group 445">
                  <g id="Group_444" data-name="Group 444">
                    <path id="Path_1110" data-name="Path 1110" d="M407.443,405.739a1.546,1.546,0,0,0,1.546,1.546h0a1.545,1.545,0,0,0,1.545-1.546v-2.5a1.545,1.545,0,0,0-1.545-1.545h0a1.545,1.545,0,0,0-1.546,1.545Z" transform="translate(-407.443 -401.691)" fill="#a95c40"/>
                  </g>
                </g>
                <g id="Group_447" data-name="Group 447" transform="translate(0.488 0.58)">
                  <g id="Group_446" data-name="Group 446">
                    <path id="Path_1111" data-name="Path 1111" d="M408.584,406.424a1.058,1.058,0,0,0,1.058,1.057h0a1.057,1.057,0,0,0,1.059-1.057v-2.318a1.058,1.058,0,0,0-1.059-1.059h0a1.059,1.059,0,0,0-1.058,1.059Z" transform="translate(-408.584 -403.047)" fill="#75412b"/>
                  </g>
                </g>
              </g>
              <g id="Group_449" data-name="Group 449" transform="translate(1.316 6.635)">
                <rect id="Rectangle_75" data-name="Rectangle 75" width="2.935" height="0.406" fill="#75412b"/>
              </g>
              <g id="Group_450" data-name="Group 450" transform="translate(1.316 7.38)">
                <rect id="Rectangle_76" data-name="Rectangle 76" width="2.935" height="0.406" fill="#75412b"/>
              </g>
              <g id="Group_451" data-name="Group 451" transform="translate(1.316 8.125)">
                <rect id="Rectangle_77" data-name="Rectangle 77" width="2.935" height="0.406" fill="#75412b"/>
              </g>
            </g>
          </g>
        </g>
        <g id="Group_516" data-name="Group 516" transform="translate(10.813 5.837)">
          <g id="Group_461" data-name="Group 461" transform="translate(0.9 0.865)">
            <g id="Group_455" data-name="Group 455">
              <path id="Path_1112" data-name="Path 1112" d="M414.469,386.982v-2.046l3.394,1.751c-1.213,2.181-.791.828-1.488.59l-1.1-.375c.005,2.219-2.582,2.654-2.582,1.967A1.939,1.939,0,0,0,414.469,386.982Z" transform="translate(-412.689 -384.936)" fill="#394b68"/>
            </g>
            <g id="Group_460" data-name="Group 460">
              <g id="Group_457" data-name="Group 457" transform="translate(2.582 1.965)">
                <g id="Group_456" data-name="Group 456">
                  <path id="Path_1113" data-name="Path 1113" d="M418.988,389.543l1.1.375c.293.1.388.4.491.546-.321.305-.269-.392-.751-.556l-1.1-.375Z" transform="translate(-418.729 -389.533)" fill="#253247"/>
                </g>
              </g>
              <g id="Group_459" data-name="Group 459">
                <g id="Group_458" data-name="Group 458">
                  <path id="Path_1114" data-name="Path 1114" d="M414.469,386.982v-2.046l.259.134v1.921a1.938,1.938,0,0,1-1.78,1.886c0,.156.133.252.338.286-.346.024-.6-.081-.6-.295A1.939,1.939,0,0,0,414.469,386.982Z" transform="translate(-412.689 -384.936)" fill="#253247"/>
                </g>
              </g>
            </g>
          </g>
          <g id="Group_471" data-name="Group 471">
            <g id="Group_465" data-name="Group 465" transform="translate(0 0.09)">
              <g id="Group_462" data-name="Group 462">
                <rect id="Rectangle_78" data-name="Rectangle 78" width="1.222" height="1.304" fill="#394b68"/>
              </g>
              <g id="Group_463" data-name="Group 463" transform="translate(0 0.775)">
                <rect id="Rectangle_79" data-name="Rectangle 79" width="1.222" height="0.507" fill="#253247"/>
              </g>
              <g id="Group_464" data-name="Group 464" transform="translate(0 0.15)">
                <rect id="Rectangle_80" data-name="Rectangle 80" width="1.222" height="0.254" fill="#526e91"/>
              </g>
            </g>
            <g id="Group_466" data-name="Group 466" transform="translate(1.067)">
              <path id="Path_1115" data-name="Path 1115" d="M419.695,382.912l2.355,2.565-.824,1.606h-3.139l-.522-.963-3.443-1.747H413.08v-1.46Z" transform="translate(-413.08 -382.912)" fill="#cd6f4f"/>
            </g>
            <g id="Group_468" data-name="Group 468" transform="translate(1.067)" opacity="0.1">
              <g id="Group_467" data-name="Group 467">
                <path id="Path_1116" data-name="Path 1116" d="M421.312,386.03l-2.356-2.565H413.08v-.554h6.615l2.355,2.565-.824,1.606Z" transform="translate(-413.08 -382.912)" fill="#fff"/>
              </g>
            </g>
            <g id="Group_469" data-name="Group 469" transform="translate(1.69 0.062)" opacity="0.3">
              <path id="Path_1117" data-name="Path 1117" d="M414.538,383.221a22.652,22.652,0,0,0,5.409,0,22.525,22.525,0,0,0-5.409,0Z" transform="translate(-414.538 -383.058)" fill="#fff"/>
            </g>
            <g id="Group_470" data-name="Group 470" transform="translate(7.373 0.289)" opacity="0.3">
              <path id="Path_1118" data-name="Path 1118" d="M428.491,384.066c.292.318.475.623.41.684s-.354-.15-.646-.467-.476-.623-.41-.684S428.2,383.748,428.491,384.066Z" transform="translate(-427.832 -383.589)" fill="#fff"/>
            </g>
          </g>
          <g id="Group_489" data-name="Group 489" transform="translate(0.611 5.227)">
            <g id="Group_472" data-name="Group 472">
              <path id="Path_1119" data-name="Path 1119" d="M413.863,402.343h0s3.087-2.087,3.442-7.205h3.624l2.529,14.409H415.9a3.891,3.891,0,0,1-2.042-7.2Z" transform="translate(-412.013 -395.138)" fill="#93c3cd"/>
            </g>
            <g id="Group_473" data-name="Group 473" transform="translate(0.755 0.725)">
              <path id="Path_1120" data-name="Path 1120" d="M415.442,403.314h0a8.306,8.306,0,0,0,3.423-6.48h2.688l2.272,12.959h-6.545a3.5,3.5,0,0,1-1.837-6.479Z" transform="translate(-413.778 -396.834)" fill="#b4d5de"/>
            </g>
            <g id="Group_474" data-name="Group 474" transform="translate(3.285 1.119)">
              <path id="Path_1121" data-name="Path 1121" d="M422.575,397.76c-.233-.112-.145,1.48-.944,3.149s-2.14,2.529-1.906,2.642,1.671-.668,2.47-2.337S422.81,397.872,422.575,397.76Z" transform="translate(-419.698 -397.755)" fill="#cee4e9"/>
            </g>
            <g id="Group_475" data-name="Group 475" transform="translate(6.571 1.004)">
              <path id="Path_1122" data-name="Path 1122" d="M427.4,397.775a.4.4,0,1,0,.5-.271A.4.4,0,0,0,427.4,397.775Z" transform="translate(-427.383 -397.487)" fill="#cee4e9"/>
            </g>
            <g id="Group_488" data-name="Group 488" transform="translate(2.07 6.295)">
              <g id="Group_478" data-name="Group 478">
                <g id="Group_476" data-name="Group 476" transform="translate(0.249 0.25)">
                  <path id="Path_1123" data-name="Path 1123" d="M418.583,412.032a5.045,5.045,0,0,0,1.843-1.584h2.753l1.066,6.079h-4.378a2.431,2.431,0,0,1-1.285-4.495Z" transform="translate(-417.437 -410.448)" fill="#cd6f4f"/>
                </g>
                <g id="Group_477" data-name="Group 477">
                  <path id="Path_1124" data-name="Path 1124" d="M416.854,413.762a2.68,2.68,0,0,0,2.68,2.68h4.676l-1.155-6.579h-3.1a4.772,4.772,0,0,1-1.833,1.616h0A2.678,2.678,0,0,0,416.854,413.762Zm.249,0a2.42,2.42,0,0,1,1.146-2.064,5.045,5.045,0,0,0,1.843-1.584h2.753l1.066,6.079h-4.378A2.434,2.434,0,0,1,417.1,413.762Z" transform="translate(-416.854 -409.863)" fill="#fff"/>
                </g>
              </g>
              <g id="Group_487" data-name="Group 487" transform="translate(2.134 0.612)">
                <g id="Group_483" data-name="Group 483" transform="translate(1.128)">
                  <g id="Group_480" data-name="Group 480">
                    <g id="Group_479" data-name="Group 479">
                      <path id="Path_1125" data-name="Path 1125" d="M424.484,414a1.032,1.032,0,0,0,1.032,1.032h0A1.032,1.032,0,0,0,426.548,414v-1.671a1.032,1.032,0,0,0-1.032-1.032h0a1.032,1.032,0,0,0-1.032,1.032Z" transform="translate(-424.484 -411.294)" fill="#a95c40"/>
                    </g>
                  </g>
                  <g id="Group_482" data-name="Group 482" transform="translate(0.325 0.387)">
                    <g id="Group_481" data-name="Group 481">
                      <path id="Path_1126" data-name="Path 1126" d="M425.245,414.453a.708.708,0,0,0,.707.708h0a.708.708,0,0,0,.707-.708v-1.547a.707.707,0,0,0-.707-.707h0a.707.707,0,0,0-.707.707Z" transform="translate(-425.245 -412.199)" fill="#75412b"/>
                    </g>
                  </g>
                </g>
                <g id="Group_484" data-name="Group 484" transform="translate(0 3.869)">
                  <rect id="Rectangle_81" data-name="Rectangle 81" width="4.268" height="0.271" fill="#75412b"/>
                </g>
                <g id="Group_485" data-name="Group 485" transform="translate(0 4.366)">
                  <rect id="Rectangle_82" data-name="Rectangle 82" width="4.268" height="0.271" fill="#75412b"/>
                </g>
                <g id="Group_486" data-name="Group 486" transform="translate(0 4.863)">
                  <rect id="Rectangle_83" data-name="Rectangle 83" width="4.268" height="0.272" fill="#75412b"/>
                </g>
              </g>
            </g>
          </g>
          <g id="Group_515" data-name="Group 515" transform="translate(5.373 3.941)">
            <g id="Group_514" data-name="Group 514">
              <g id="Group_490" data-name="Group 490">
                <path id="Rectangle_84" data-name="Rectangle 84" d="M.589,0H3.772a.586.586,0,0,1,.586.586V.758a.586.586,0,0,1-.586.586H.587A.587.587,0,0,1,0,.757V.589A.589.589,0,0,1,.589,0Z" fill="#394b68"/>
              </g>
              <g id="Group_491" data-name="Group 491" transform="translate(0 0.009)">
                <path id="Path_1127" data-name="Path 1127" d="M423.344,392.152v1.035a.222.222,0,0,0,.222.221H427.1a.222.222,0,0,0,.222-.221v-1.035a.248.248,0,0,1,.191.242v.842a.251.251,0,0,1-.25.251H423.4a.251.251,0,0,1-.251-.251v-.842A.249.249,0,0,1,423.344,392.152Z" transform="translate(-423.154 -392.152)" fill="#253247"/>
              </g>
              <g id="Group_513" data-name="Group 513" transform="translate(0.293 0.061)">
                <g id="Group_492" data-name="Group 492" transform="translate(3.397 0.093)">
                  <path id="Path_1128" data-name="Path 1128" d="M431.86,392.491a.074.074,0,0,1,.074.075v1.076h-.15v-1.076A.075.075,0,0,1,431.86,392.491Z" transform="translate(-431.785 -392.491)" fill="#253247"/>
                </g>
                <g id="Group_493" data-name="Group 493" transform="translate(2.988 0.093)">
                  <path id="Path_1129" data-name="Path 1129" d="M430.906,392.491a.075.075,0,0,1,.074.075v1.076h-.151v-1.076A.076.076,0,0,1,430.906,392.491Z" transform="translate(-430.829 -392.491)" fill="#253247"/>
                </g>
                <g id="Group_494" data-name="Group 494" transform="translate(2.581 0.093)">
                  <path id="Path_1130" data-name="Path 1130" d="M429.951,392.491a.075.075,0,0,1,.075.075v1.076h-.15v-1.076A.075.075,0,0,1,429.951,392.491Z" transform="translate(-429.877 -392.491)" fill="#253247"/>
                </g>
                <g id="Group_495" data-name="Group 495" transform="translate(2.174 0.093)">
                  <path id="Path_1131" data-name="Path 1131" d="M429,392.491a.075.075,0,0,1,.075.075v1.076h-.149v-1.076A.074.074,0,0,1,429,392.491Z" transform="translate(-428.924 -392.491)" fill="#253247"/>
                </g>
                <g id="Group_496" data-name="Group 496" transform="translate(1.765 0.093)">
                  <path id="Path_1132" data-name="Path 1132" d="M428.043,392.491a.075.075,0,0,1,.076.075v1.076h-.15v-1.076A.075.075,0,0,1,428.043,392.491Z" transform="translate(-427.968 -392.491)" fill="#253247"/>
                </g>
                <g id="Group_497" data-name="Group 497" transform="translate(1.357 0.093)">
                  <path id="Path_1133" data-name="Path 1133" d="M427.089,392.491a.075.075,0,0,1,.074.075v1.076h-.15v-1.076A.075.075,0,0,1,427.089,392.491Z" transform="translate(-427.014 -392.491)" fill="#253247"/>
                </g>
                <g id="Group_505" data-name="Group 505" transform="translate(1.224)">
                  <g id="Group_498" data-name="Group 498" transform="translate(2.04)">
                    <rect id="Rectangle_85" data-name="Rectangle 85" width="0.094" height="1.142" fill="#526e91"/>
                  </g>
                  <g id="Group_499" data-name="Group 499" transform="translate(1.632)">
                    <rect id="Rectangle_86" data-name="Rectangle 86" width="0.093" height="1.142" fill="#526e91"/>
                  </g>
                  <g id="Group_500" data-name="Group 500" transform="translate(1.224)">
                    <rect id="Rectangle_87" data-name="Rectangle 87" width="0.094" height="1.142" fill="#526e91"/>
                  </g>
                  <g id="Group_501" data-name="Group 501" transform="translate(0.816)">
                    <rect id="Rectangle_88" data-name="Rectangle 88" width="0.093" height="1.142" fill="#526e91"/>
                  </g>
                  <g id="Group_502" data-name="Group 502" transform="translate(0.408)">
                    <rect id="Rectangle_89" data-name="Rectangle 89" width="0.094" height="1.142" fill="#526e91"/>
                  </g>
                  <g id="Group_503" data-name="Group 503">
                    <rect id="Rectangle_90" data-name="Rectangle 90" width="0.094" height="1.142" fill="#526e91"/>
                  </g>
                  <g id="Group_504" data-name="Group 504" transform="translate(2.447)">
                    <path id="Path_1134" data-name="Path 1134" d="M432.425,393.416l.095-.09v-1.053h-.095Z" transform="translate(-432.425 -392.274)" fill="#526e91"/>
                  </g>
                </g>
                <g id="Group_506" data-name="Group 506" transform="translate(0.95 0.093)">
                  <path id="Path_1135" data-name="Path 1135" d="M426.137,392.491a.074.074,0,0,1,.073.075v1.076h-.149v-1.076A.075.075,0,0,1,426.137,392.491Z" transform="translate(-426.061 -392.491)" fill="#253247"/>
                </g>
                <g id="Group_507" data-name="Group 507" transform="translate(0.542 0.093)">
                  <path id="Path_1136" data-name="Path 1136" d="M425.18,392.491a.075.075,0,0,1,.075.075v1.076h-.15v-1.076A.074.074,0,0,1,425.18,392.491Z" transform="translate(-425.106 -392.491)" fill="#253247"/>
                </g>
                <g id="Group_508" data-name="Group 508" transform="translate(0.134 0.093)">
                  <path id="Path_1137" data-name="Path 1137" d="M424.228,392.491a.075.075,0,0,1,.074.075v1.076h-.149v-1.076A.074.074,0,0,1,424.228,392.491Z" transform="translate(-424.153 -392.491)" fill="#253247"/>
                </g>
                <g id="Group_512" data-name="Group 512">
                  <g id="Group_509" data-name="Group 509" transform="translate(0.816)">
                    <rect id="Rectangle_91" data-name="Rectangle 91" width="0.093" height="1.142" fill="#526e91"/>
                  </g>
                  <g id="Group_510" data-name="Group 510" transform="translate(0.407)">
                    <rect id="Rectangle_92" data-name="Rectangle 92" width="0.094" height="1.142" fill="#526e91"/>
                  </g>
                  <g id="Group_511" data-name="Group 511">
                    <rect id="Rectangle_93" data-name="Rectangle 93" width="0.094" height="1.142" fill="#526e91"/>
                  </g>
                </g>
              </g>
            </g>
          </g>
        </g>
      </g>
    </g>
  </g>
</svg>
